<svg width="25" height="42" viewBox="0 0 25 42" fill="none" xmlns="http://www.w3.org/2000/svg">
<path d="M23.8162 18.1531L6.8469 1.18384C6.47485 0.808721 6.0322 0.51098 5.5445 0.307795C5.0568 0.104609 4.53369 0 4.00535 0C3.47702 0 2.95391 0.104609 2.46621 0.307795C1.9785 0.51098 1.53586 0.808721 1.1638 1.18384C0.418394 1.9337 0 2.94806 0 4.00538C0 5.0627 0.418394 6.07706 1.1638 6.82692L15.3315 20.9946L1.1638 35.1624C0.418394 35.9122 0 36.9266 0 37.9839C0 39.0412 0.418394 40.0556 1.1638 40.8055C1.53777 41.1764 1.98128 41.4698 2.46889 41.669C2.95651 41.8682 3.47864 41.9691 4.00535 41.9661C4.53207 41.9691 5.0542 41.8682 5.54182 41.669C6.02943 41.4698 6.47294 41.1764 6.8469 40.8055L23.8162 23.8362C24.1913 23.4641 24.489 23.0215 24.6922 22.5338C24.8954 22.0461 25 21.523 25 20.9946C25 20.4663 24.8954 19.9432 24.6922 19.4555C24.489 18.9678 24.1913 18.5251 23.8162 18.1531Z" fill="#464646"/>
</svg>
