<svg width="460" height="281" viewBox="0 0 460 281" fill="none" xmlns="http://www.w3.org/2000/svg">
<g filter="url(#filter0_d_353_13789)">
<rect x="5" y="10" width="200" height="100" fill="white"/>
</g>
<path d="M81.36 37.98H85.96C86.9 37.98 87.82 37.94 88.74 37.94C89.3 37.94 89.36 38.14 89.36 39.06V39.98C89.36 40.74 89.34 40.96 88.7 40.96C87.8 40.96 86.92 40.92 86.04 40.92H81.62C80.72 40.92 79.82 40.96 78.92 40.96C78.32 40.96 78.28 40.78 78.28 39.76V39.06C78.28 38.2 78.34 37.94 78.9 37.94C79.74 37.94 80.56 37.98 81.36 37.98ZM79 43.06H88.84C89.76 43.06 90.72 43.02 91.64 43.02C92.2 43.02 92.24 43.2 92.24 44.12V44.88C92.24 45.84 92.1 46.04 91.6 46.04C90.68 46.04 89.76 46 88.84 46H86.7C86.24 46 86.12 46.3 86.06 46.7C85.76 48.38 85.02 50.24 83.82 51.48C82.62 52.68 80.16 53.96 79.54 53.96C78.96 53.96 77.36 51.98 77.36 51.58C77.36 51.34 77.7 51.28 78 51.2C80.42 50.52 81.94 49.64 82.72 47.1C82.76 46.98 82.88 46.58 82.88 46.46C82.88 46.18 82.68 46 82.42 46H79C78.18 46 76.9 46.06 76.38 46.06C75.88 46.06 75.76 45.76 75.76 44.82V44.08C75.76 43.06 75.9 43 76.38 43C76.94 43 78.12 43.06 79 43.06ZM100.395 43.54H109.595C110.775 43.54 112.055 43.46 112.235 43.46C112.755 43.46 112.835 43.68 112.835 44.26V45.22C112.835 46.32 112.815 46.66 112.175 46.66C111.395 46.66 110.475 46.6 109.595 46.6H100.395C99.5153 46.6 98.5753 46.66 97.8353 46.66C97.1553 46.66 97.1553 46.28 97.1553 45.22V44.3C97.1553 43.7 97.2153 43.46 97.7353 43.46C98.0153 43.46 99.1353 43.54 100.395 43.54ZM120.975 40.72H130.755C131.295 40.72 131.855 40.72 132.395 40.66C132.455 40.64 132.555 40.64 132.635 40.64C132.975 40.64 133.435 41.16 133.855 41.66C133.995 41.84 134.515 42.5 134.515 42.7C134.515 42.82 134.315 43 133.995 43.28C133.795 43.46 133.555 43.68 133.315 43.94C131.695 45.54 130.015 47.1 128.275 48.54C128.075 48.7 127.855 48.88 127.855 49.16C127.855 49.34 127.975 49.5 128.075 49.64C128.215 49.84 128.795 50.7 128.795 50.86C128.795 51.28 126.915 52.54 126.395 52.54C126.215 52.54 126.055 52.28 125.955 52.12C124.935 50.48 123.675 48.98 122.275 47.68C122.135 47.54 121.835 47.26 121.835 47.08C121.835 46.74 123.555 45.4 124.035 45.4C124.375 45.4 125.135 46.18 125.395 46.44C125.515 46.58 125.635 46.66 125.835 46.66C126.075 46.66 126.215 46.52 126.375 46.38C127.075 45.78 127.795 45.22 128.455 44.58C128.575 44.46 128.795 44.26 128.795 44.06C128.795 43.8 128.495 43.78 128.135 43.78H120.975C120.095 43.78 119.075 43.82 118.275 43.82C117.715 43.82 117.675 43.46 117.675 42.74V41.78C117.675 40.82 117.715 40.68 118.195 40.68C119.135 40.68 120.055 40.72 120.975 40.72Z" fill="black"/>
<path d="M71.752 81.284V82.404C71.78 82.642 71.906 82.768 72.144 82.796H77.828C78.066 82.768 78.192 82.642 78.22 82.404V81.284C78.192 81.046 78.066 80.92 77.828 80.892H72.144C71.906 80.92 71.78 81.046 71.752 81.284ZM71.752 78.554V79.492C71.78 79.73 71.906 79.856 72.144 79.884H77.828C78.066 79.856 78.192 79.73 78.22 79.492V78.554C78.192 78.316 78.066 78.19 77.828 78.162H72.144C71.906 78.19 71.78 78.316 71.752 78.554ZM72.144 77.154H77.828C78.066 77.126 78.192 77 78.22 76.762V75.838C78.192 75.6 78.066 75.46 77.828 75.46H72.144C71.906 75.46 71.78 75.6 71.752 75.838V76.762C71.78 77 71.906 77.126 72.144 77.154ZM72.41 74.368H73.082C73.376 74.368 73.488 74.326 73.656 74.074C73.964 73.5 74.188 73.066 74.44 72.464C74.468 72.38 74.51 72.296 74.608 72.296C74.832 72.296 75.84 72.604 75.84 72.842C75.84 72.982 75.714 72.982 75.602 72.996C75.462 73.01 75.448 73.066 75.392 73.122C75.224 73.43 75.042 73.738 74.874 74.046C74.846 74.088 74.832 74.13 74.832 74.186C74.832 74.326 74.944 74.368 75.07 74.368H77.548C77.94 74.368 78.318 74.354 78.696 74.354C79.186 74.354 79.424 74.494 79.424 75.012C79.424 75.418 79.396 75.824 79.396 76.23V83.048C79.396 83.51 79.424 83.986 79.424 84.448C79.424 84.812 79.27 84.84 78.808 84.84C78.332 84.84 78.178 84.812 78.178 84.448C78.178 84.35 78.192 84.266 78.192 84.168C78.178 83.944 78.08 83.86 77.856 83.86H72.116C71.892 83.86 71.78 83.944 71.78 84.168V84.392C71.78 84.756 71.668 84.784 71.164 84.784C70.702 84.784 70.548 84.77 70.548 84.406C70.548 83.93 70.576 83.468 70.576 83.006V76.23C70.576 75.824 70.548 75.432 70.548 75.04C70.548 74.508 70.744 74.354 71.262 74.354C71.64 74.354 72.032 74.368 72.41 74.368ZM89 78.666V76.678C88.972 76.44 88.846 76.3 88.608 76.3H85.766C85.528 76.3 85.388 76.44 85.388 76.678V78.666C85.388 78.918 85.528 79.058 85.766 79.058H88.608C88.846 79.03 88.972 78.918 89 78.666ZM89 82.6V80.486C88.972 80.248 88.846 80.122 88.608 80.094H85.766C85.528 80.122 85.388 80.248 85.388 80.486V82.6C85.388 82.838 85.528 82.964 85.766 82.992H88.608C88.846 82.964 88.972 82.838 89 82.6ZM90.134 80.486V82.6C90.134 82.838 90.274 82.964 90.512 82.992H93.354C93.606 82.964 93.718 82.838 93.746 82.6V80.486C93.718 80.248 93.606 80.122 93.354 80.094H90.512C90.274 80.122 90.134 80.248 90.134 80.486ZM90.512 79.058H93.354C93.606 79.03 93.718 78.918 93.746 78.666V76.678C93.718 76.44 93.606 76.3 93.354 76.3H90.512C90.274 76.3 90.134 76.44 90.134 76.678V78.666C90.134 78.918 90.274 79.058 90.512 79.058ZM86.27 75.208H88.608C88.874 75.208 89 75.096 89 74.816V73.836C89 73.43 89 73.01 88.944 72.646C88.93 72.604 88.93 72.548 88.93 72.506C88.93 72.352 89.042 72.324 89.168 72.324C89.35 72.324 89.826 72.38 90.036 72.408C90.232 72.422 90.484 72.422 90.484 72.59C90.484 72.688 90.414 72.716 90.302 72.8C90.148 72.898 90.134 73.08 90.134 73.5V74.816C90.134 75.096 90.246 75.208 90.512 75.208H92.878C93.312 75.208 93.746 75.194 94.18 75.194C94.684 75.194 94.95 75.292 94.95 75.852C94.95 76.23 94.922 76.594 94.922 76.958V83.104C94.922 83.552 94.964 83.986 94.964 84.434C94.964 84.798 94.782 84.812 94.334 84.812C93.858 84.812 93.718 84.798 93.718 84.434V84.336C93.718 84.14 93.62 84.07 93.438 84.07H85.696C85.5 84.07 85.43 84.14 85.416 84.336C85.402 84.714 85.318 84.742 84.8 84.742C84.352 84.742 84.184 84.728 84.184 84.364C84.184 83.916 84.212 83.482 84.212 83.034V76.958C84.212 76.566 84.198 76.258 84.198 76.006C84.198 75.432 84.296 75.194 84.954 75.194C85.388 75.194 85.822 75.208 86.27 75.208ZM100.592 77.476H107.62C108.194 77.476 108.768 77.434 109.342 77.434C109.72 77.434 109.72 77.574 109.72 78.036C109.72 78.428 109.706 78.652 109.356 78.652C108.782 78.652 108.194 78.61 107.62 78.61H105.618C105.24 78.61 105.226 78.974 105.184 79.254C105.058 80.136 104.722 81.102 104.26 81.858C103.742 82.684 103.014 83.258 102.174 83.734C101.922 83.874 100.984 84.364 100.718 84.364C100.466 84.364 99.878 83.65 99.878 83.454C99.878 83.3 100.116 83.244 100.228 83.216C100.858 83.034 101.488 82.796 102.048 82.446C102.972 81.858 103.616 80.794 103.854 79.73C103.896 79.576 103.98 79.086 103.98 78.946C103.98 78.764 103.826 78.61 103.658 78.61H100.592C100.018 78.61 99.43 78.652 98.856 78.652C98.534 78.652 98.52 78.456 98.52 78.064C98.52 77.602 98.562 77.434 98.856 77.434C99.43 77.434 100.004 77.476 100.592 77.476ZM102.482 73.752H105.506C106.094 73.752 106.682 73.724 107.27 73.724C107.592 73.724 107.606 73.892 107.606 74.368C107.606 74.732 107.62 74.928 107.27 74.928C106.682 74.928 106.094 74.9 105.52 74.9H102.468C101.894 74.9 101.306 74.928 100.732 74.928C100.368 74.928 100.382 74.718 100.382 74.34C100.382 73.85 100.41 73.724 100.732 73.724C101.32 73.724 101.908 73.752 102.482 73.752ZM115.747 77.84H122.173C122.761 77.84 123.629 77.798 123.853 77.798C124.203 77.798 124.231 77.896 124.231 78.484C124.231 78.806 124.231 79.086 123.895 79.086C123.321 79.086 122.747 79.044 122.173 79.044H115.747C115.173 79.044 114.599 79.086 114.025 79.086C113.675 79.086 113.675 78.806 113.675 78.484C113.675 77.896 113.717 77.798 114.053 77.798C114.277 77.798 115.145 77.84 115.747 77.84ZM129.866 75.782H136.88C137.216 75.782 137.734 75.782 138.056 75.74C138.098 75.726 138.14 75.726 138.182 75.726C138.42 75.726 138.98 76.426 138.98 76.58C138.98 76.664 138.77 76.846 138.532 77.07C138.42 77.168 138.308 77.266 138.196 77.378C136.978 78.596 135.718 79.786 134.388 80.906C134.276 81.004 134.15 81.102 134.15 81.284C134.15 81.438 134.262 81.564 134.346 81.69C134.458 81.83 134.906 82.446 134.906 82.586C134.906 82.838 134.248 83.244 133.996 83.244C133.856 83.244 133.772 83.118 133.716 83.02C133.03 81.9 132.204 80.878 131.224 80.024C131.126 79.94 130.972 79.814 130.972 79.688C130.972 79.492 131.518 79.016 131.742 79.016C131.966 79.016 132.778 79.828 132.974 80.024C133.072 80.136 133.156 80.22 133.324 80.22C133.492 80.22 133.604 80.108 133.73 80.01C134.122 79.674 136.712 77.406 136.712 77.112C136.712 76.93 136.488 76.944 136.278 76.944H129.866C129.292 76.944 128.704 76.986 128.13 76.986C127.78 76.986 127.794 76.762 127.794 76.412C127.794 75.908 127.794 75.754 128.116 75.754C128.704 75.754 129.278 75.782 129.866 75.782Z" fill="black"/>
<path d="M65 0H145L142.6 10L145 20H65L67.4 10L65 0Z" fill="#FFE162"/>
<g filter="url(#filter1_d_353_13789)">
<rect x="255" y="10" width="200" height="100" fill="white"/>
</g>
<path d="M307.62 39.72H316.52C317.12 39.72 317.72 39.7 318.32 39.7C319.12 39.7 319.58 39.94 319.58 40.8C319.58 41.48 319.56 42.16 319.56 42.82V49.58C319.56 50.16 319.6 50.74 319.6 51.34C319.6 52.18 319.58 52.28 318.64 52.28H317.5C316.74 52.28 316.66 52.2 316.58 51.88C316.46 51.44 316.18 51.44 315.52 51.44H307.66C307.4 51.46 307.12 51.48 306.84 51.48C306.36 51.48 306.3 51.22 306.3 50.52V49.1C306.3 48.5 306.34 48.32 306.76 48.32C307.02 48.32 307.42 48.36 307.72 48.36C308.34 48.38 308.96 48.38 309.6 48.38H315.86C316.2 48.38 316.48 48.1 316.48 47.76V43.4C316.48 43.06 316.2 42.78 315.86 42.78H309.58C309 42.78 308.42 42.78 307.86 42.8C307.5 42.8 307.16 42.84 306.82 42.84C306.38 42.84 306.28 42.66 306.28 41.76V40.56C306.28 39.8 306.38 39.68 306.74 39.68C307.04 39.68 307.34 39.72 307.62 39.72ZM329.32 37.9C329.42 37.9 329.66 38.02 329.94 38.18C331.56 39.14 332.8 40.1 333.46 40.7C333.58 40.8 333.64 40.9 333.64 41.06C333.64 41.64 332.22 43.26 331.76 43.26C331.58 43.26 331.38 43.08 331.26 42.96C330.1 42 329.22 41.36 327.9 40.62C327.74 40.52 327.54 40.4 327.54 40.2C327.54 39.8 328.74 37.9 329.32 37.9ZM340.78 40.86C341.18 40.86 341.8 41.94 341.98 42.26C342.02 42.32 342.04 42.4 342.1 42.48C342.24 42.78 342.44 43.2 342.44 43.42C342.44 43.9 340.82 45.44 340.4 45.84C337.18 48.98 333.96 50.78 329.96 52.7C329.56 52.9 329.58 52.94 329.42 53.22C329.4 53.28 329.34 53.34 329.26 53.34C329.1 53.34 328.98 53.16 328.9 53.02C328.56 52.52 328.24 52 327.96 51.48C327.82 51.24 327.38 50.5 327.38 50.28C327.38 50.1 327.6 50 327.76 49.96C329.54 49.48 331.28 48.7 332.88 47.76C335.34 46.3 338.42 43.8 340.1 41.5C340.14 41.44 340.18 41.4 340.22 41.34C340.4 41.08 340.56 40.86 340.78 40.86ZM354.1 45.48V48.54C354.1 49.62 354.2 49.78 355.42 49.78C356.96 49.78 359.08 49.64 360.6 49.42C360.7 49.4 360.86 49.38 360.96 49.38C361.42 49.38 361.46 50.12 361.46 50.72V51.34C361.46 51.8 361.42 52.2 361.06 52.4C360.92 52.48 360.76 52.52 360.6 52.54C359.96 52.56 357.04 52.72 356.64 52.72C355.76 52.72 354.88 52.72 354 52.68C353.22 52.64 352.24 52.46 351.68 51.88C351.06 51.24 351 49.96 351 48.9V46.2C351 45.94 350.8 45.72 350.52 45.72C350.5 45.72 350.42 45.74 350.34 45.76L350.04 45.82C349.66 45.9 347.3 46.4 347.14 46.4C346.76 46.4 346.7 46.08 346.62 45.68C346.54 45.32 346.3 44.12 346.3 43.8C346.3 43.44 346.74 43.36 347.94 43.14C348.36 43.08 348.88 42.98 349.52 42.86L350.5 42.68C350.8 42.62 351 42.36 351 42.06V40.68C351 39.94 351 39.2 350.96 38.46C350.96 38.16 350.9 37.78 350.9 37.48C350.9 37.3 350.94 37.22 351.14 37.22L354.06 37.54C354.22 37.56 354.52 37.62 354.52 37.82C354.52 37.9 354.48 37.94 354.4 38.04C354.12 38.32 354.1 38.52 354.1 38.9V41.42C354.1 41.66 354.3 41.86 354.54 41.86C354.58 41.86 354.74 41.84 354.84 41.82L358.14 41.18C358.84 41.04 359.52 40.9 360.2 40.7C360.32 40.66 360.46 40.64 360.58 40.64C361.08 40.64 362.58 42.14 362.58 42.64C362.58 42.82 362.44 42.94 362.32 43.06C362.14 43.24 361.62 43.92 361.42 44.18C360.46 45.36 359.46 46.52 358.44 47.64C358.24 47.88 357.96 48.2 357.62 48.2C357.2 48.2 355.5 47.1 355.5 46.54C355.5 46.36 356.02 45.92 356.18 45.78C356.36 45.62 357.52 44.6 357.52 44.42C357.52 44.36 357.46 44.3 357.36 44.3C357.26 44.3 356.98 44.36 356.86 44.4L354.62 44.86C354.3 44.94 354.1 45.24 354.1 45.48ZM383.14 35.88C384.28 35.88 385.22 36.82 385.22 37.96C385.22 39.12 384.3 40.06 383.14 40.06C381.98 40.06 381.06 39.12 381.06 37.96C381.06 36.82 381.98 35.88 383.14 35.88ZM383.14 36.9C382.56 36.9 382.08 37.38 382.08 37.96C382.08 38.56 382.54 39.02 383.14 39.02C383.72 39.02 384.2 38.56 384.2 37.96C384.2 37.38 383.72 36.9 383.14 36.9ZM371.48 39.16H377.92C378.54 39.16 379.42 39.12 379.82 39.12C380.26 39.12 380.76 39.66 381.06 39.98L381.22 40.14C381.54 40.48 382.1 41.06 382.1 41.36C382.1 41.48 381.96 41.86 381.92 42.02C381.84 42.36 381.78 42.64 381.7 42.98C380.84 47.22 378.54 49.98 374.82 52.06C374.22 52.38 372.4 53.32 371.8 53.32C371.36 53.32 371 52.68 370.8 52.34C370.62 52.04 370.14 51.18 370.14 50.84C370.14 50.62 370.34 50.56 370.52 50.52C372.46 50.08 374.96 48.64 376.3 47.18C377.54 45.84 378.46 43.7 378.46 42.62C378.46 42.26 378.1 42.22 377.78 42.22H371.42C370.56 42.22 369.72 42.24 368.86 42.24C368.18 42.24 368.08 42.16 368.08 41.38V40.08C368.08 39.24 368.18 39.12 368.76 39.12C369.66 39.12 370.58 39.16 371.48 39.16ZM396.6 46.32V51.12C396.6 51.78 396.62 52.44 396.62 53.12C396.62 54.08 396.56 54.16 395.26 54.16H394.36C393.56 54.16 393.32 54.06 393.32 53.54C393.32 52.74 393.36 51.96 393.36 51.16V39.62C393.36 38.8 393.32 37.76 393.32 37.14C393.32 36.88 393.36 36.76 393.64 36.76C393.88 36.76 396.24 37.02 396.72 37.16C396.84 37.2 396.94 37.28 396.94 37.4C396.94 37.5 396.88 37.58 396.82 37.64C396.72 37.78 396.6 37.94 396.6 38.36V42.24C396.6 42.34 396.62 42.52 396.84 42.52C396.96 42.52 397.08 42.44 397.18 42.44C397.34 42.44 397.6 42.58 397.92 42.76C398.56 43.16 399.38 43.8 399.64 44C400.14 44.4 401.04 45.16 401.48 45.62C401.56 45.72 401.62 45.82 401.62 45.94C401.62 46.34 400.16 47.96 399.7 47.96C399.52 47.96 399.32 47.76 399.2 47.64C398.86 47.32 397.22 45.84 396.9 45.84C396.62 45.84 396.6 46.12 396.6 46.32Z" fill="black"/>
<path d="M301.452 73.528C301.452 73.332 301.844 73.318 302.166 73.276C302.334 73.262 302.488 73.234 302.656 73.234C303.02 73.234 303.006 73.402 303.034 73.71C303.132 74.662 303.342 75.586 303.552 76.496C303.594 76.664 303.65 76.86 303.86 76.86C304.084 76.86 306.52 75.432 306.87 75.208C306.968 75.138 307.094 75.054 307.234 75.054C307.444 75.054 307.99 76.034 307.99 76.216C307.99 76.342 307.822 76.384 307.724 76.412C306.576 76.79 304.574 77.854 303.51 78.47C302.586 79.002 300.948 79.94 300.948 81.144C300.948 81.536 301.228 81.872 301.55 82.068C302.194 82.488 303.132 82.544 303.874 82.544C304.84 82.544 306.632 82.39 307.556 82.194C307.598 82.18 307.654 82.18 307.696 82.18C307.892 82.18 307.878 82.67 307.878 82.978C307.878 83.258 307.864 83.44 307.64 83.496C307.15 83.622 304.406 83.72 303.762 83.72C302.754 83.72 301.872 83.664 300.976 83.132C300.234 82.698 299.758 81.956 299.758 81.074C299.758 79.548 301.13 78.568 302.292 77.826C302.432 77.728 302.53 77.644 302.53 77.462C302.53 77.364 302.516 77.308 302.488 77.224C302.264 76.65 301.928 75.348 301.774 74.704C301.69 74.326 301.62 74.06 301.494 73.682C301.466 73.64 301.452 73.57 301.452 73.528ZM317.79 80.808C317.874 80.808 317.93 80.892 317.972 80.948C318.602 81.718 319.232 81.942 320.198 81.942C321.416 81.942 322.41 81.746 323.264 81.494C323.348 81.466 323.474 81.438 323.544 81.438C323.726 81.438 323.754 81.648 323.754 82.18C323.754 82.334 323.754 82.656 323.614 82.74C323.222 82.95 320.884 83.146 320.352 83.146C318.07 83.146 317.174 81.942 317.174 81.774C317.174 81.606 317.552 80.808 317.79 80.808ZM318.21 74.704C318.294 74.704 318.434 74.746 318.518 74.774C319.092 74.914 319.778 74.984 320.366 74.984C321.052 74.984 321.85 74.886 322.508 74.718C322.578 74.704 322.69 74.676 322.76 74.676C323.04 74.676 323.026 75.292 323.026 75.488C323.026 75.726 323.026 75.852 322.9 75.908C322.578 76.048 320.884 76.146 320.464 76.146C320.03 76.146 318.42 76.048 318.098 75.866C317.944 75.782 317.958 75.544 317.958 75.39C317.958 74.984 317.986 74.704 318.21 74.704ZM315.998 74.032C316.082 74.074 316.152 74.102 316.18 74.116C316.264 74.158 316.376 74.214 316.376 74.326C316.376 74.41 316.306 74.438 316.18 74.508C315.956 74.62 315.9 74.76 315.76 75.11C315.242 76.384 314.99 77.784 314.99 79.156C314.99 79.478 315.088 81.508 315.452 81.508C315.564 81.508 315.648 81.34 315.774 81.046C315.802 80.976 315.844 80.906 315.872 80.836C315.998 80.57 316.082 80.444 316.194 80.444C316.306 80.444 316.586 80.64 316.586 80.766C316.586 80.906 316.054 82.236 316.054 82.81C316.054 82.922 316.082 83.174 316.096 83.286C316.11 83.342 316.11 83.426 316.11 83.468C316.11 83.734 315.438 84.042 315.214 84.042C314.976 84.042 314.78 83.594 314.668 83.356C314.024 82.054 313.828 80.584 313.828 79.142C313.828 77.574 314.122 76.048 314.57 74.536C314.64 74.326 314.71 74.102 314.752 73.878C314.766 73.766 314.808 73.612 314.934 73.612C315.018 73.612 315.662 73.892 315.998 74.032ZM336.634 74.578C337.096 74.578 338.958 77.616 338.958 77.952C338.958 78.204 338.286 78.61 338.034 78.61C337.866 78.61 337.796 78.456 337.74 78.316C337.194 77.14 336.816 76.37 335.906 75.39C335.85 75.334 335.794 75.25 335.794 75.166C335.794 74.942 336.424 74.578 336.634 74.578ZM331.664 73.164C331.79 73.164 332.588 73.374 332.77 73.416C332.882 73.444 333.134 73.5 333.134 73.654C333.134 73.738 333.078 73.794 333.008 73.85C332.784 74.032 332.742 74.312 332.672 74.774C332.644 74.984 332.602 75.208 332.546 75.488C332.546 75.53 332.532 75.6 332.532 75.642C332.532 75.796 332.63 75.894 332.784 75.894C332.882 75.894 333.246 75.866 333.512 75.866C334.954 75.866 335.514 76.706 335.514 78.078C335.514 79.366 335.29 81.2 334.688 82.334C334.17 83.3 333.26 83.804 332.168 83.804C331.888 83.804 331.734 83.762 331.594 83.51C331.482 83.314 331.37 82.95 331.37 82.712C331.37 82.614 331.412 82.53 331.524 82.53C331.65 82.53 331.888 82.586 332.196 82.586C332.994 82.586 333.386 82.32 333.722 81.62C334.142 80.766 334.352 79.352 334.352 78.4C334.352 77.616 334.296 76.93 333.33 76.93C332.308 76.93 332.224 77.098 332.14 77.42C331.79 78.876 331.104 80.43 330.32 81.718C330.012 82.222 329.326 83.286 328.934 83.706C328.864 83.762 328.794 83.818 328.696 83.818C328.486 83.818 327.814 83.412 327.814 83.146C327.814 83.034 327.926 82.922 328.01 82.838C329.41 81.368 330.32 79.702 330.894 77.756C330.908 77.686 330.95 77.588 330.95 77.518C330.95 77.434 330.88 77.364 330.782 77.364C330.53 77.364 329.13 77.84 328.836 77.952C328.794 77.966 328.724 77.994 328.682 77.994C328.388 77.994 328.15 76.958 328.15 76.832C328.15 76.636 328.388 76.65 328.514 76.636C329.2 76.58 330.236 76.3 330.95 76.174C331.398 76.09 331.37 75.894 331.426 75.488C331.496 75.04 331.552 74.368 331.552 73.906C331.552 73.738 331.552 73.57 331.524 73.402V73.332C331.524 73.248 331.566 73.164 331.664 73.164ZM349.584 73.626C349.724 73.766 350.228 74.214 350.228 74.354C350.228 74.508 350.018 74.494 349.92 74.494C349.654 74.508 349.584 74.676 349.388 74.774C348.968 75.096 348.576 75.418 348.184 75.74C347.414 76.37 346.672 77.028 345.944 77.7C345.762 77.868 345.58 78.064 345.58 78.33C345.58 78.792 346.294 79.534 346.616 79.856C347.54 80.808 348.548 81.69 349.542 82.572C349.71 82.712 350.088 83.006 350.088 83.216C350.088 83.51 349.43 84.112 349.122 84.112C348.982 84.112 348.828 83.902 348.73 83.79C348.198 83.16 347.624 82.572 347.036 81.998C346.294 81.256 345.552 80.514 344.866 79.716C344.502 79.282 344.222 78.89 344.222 78.302C344.222 77.966 344.32 77.63 344.516 77.364C344.852 76.944 345.818 76.16 346.266 75.796C347.064 75.124 348.212 74.172 348.856 73.374C348.898 73.318 348.968 73.234 349.052 73.234C349.178 73.234 349.416 73.458 349.584 73.626ZM361.694 83.062V81.718C361.694 81.606 361.652 81.522 361.54 81.522C361.498 81.522 361.456 81.564 361.414 81.578C360.07 82.768 358.726 83.58 357.074 84.28C356.934 84.336 356.696 84.434 356.556 84.434C356.304 84.434 355.982 83.902 355.982 83.692C355.982 83.496 356.234 83.426 356.43 83.356C357.802 82.838 359.272 82.068 360.406 81.13C360.434 81.102 360.462 81.06 360.462 81.018C360.462 80.92 360.378 80.892 360.294 80.892H358.054C357.508 80.892 356.962 80.92 356.416 80.92C356.122 80.92 356.108 80.78 356.108 80.402C356.108 80.01 356.122 79.87 356.416 79.87C356.962 79.87 357.508 79.898 358.054 79.898H361.358C361.582 79.898 361.68 79.828 361.694 79.59L361.652 79.058C361.638 79.002 361.638 78.96 361.638 78.904C361.638 78.75 361.75 78.722 361.876 78.722C362.03 78.722 362.24 78.75 362.394 78.764C362.884 78.806 363.136 78.792 363.136 78.988C363.136 79.072 363.08 79.1 362.968 79.17C362.814 79.282 362.828 79.422 362.814 79.59C362.828 79.828 362.926 79.898 363.15 79.898H366.44C366.986 79.898 367.532 79.87 368.078 79.87C368.372 79.87 368.386 79.996 368.386 80.402C368.386 80.808 368.372 80.92 368.078 80.92C367.532 80.92 366.986 80.892 366.44 80.892H364.172C364.046 80.892 364.018 80.962 364.018 81.004C364.018 81.06 364.032 81.088 364.074 81.116C365.348 82.068 366.496 82.768 367.98 83.37C368.246 83.482 368.498 83.566 368.498 83.748C368.498 83.958 368.162 84.49 367.896 84.49C367.616 84.49 366.258 83.748 365.95 83.566C364.998 83.02 363.892 82.278 363.094 81.536C363.052 81.508 363.01 81.48 362.954 81.48C362.814 81.48 362.814 81.648 362.814 81.662V83.062C362.814 83.51 362.842 83.958 362.842 84.406C362.842 84.84 362.73 84.868 362.268 84.868C361.82 84.868 361.666 84.854 361.666 84.434C361.666 83.972 361.694 83.524 361.694 83.062ZM362.758 73.682H363.612C363.864 73.682 364.116 73.668 364.368 73.668C364.718 73.668 364.858 73.85 364.858 74.2C364.858 74.466 364.844 74.746 364.844 75.012V77.546C364.844 77.84 364.872 78.12 364.872 78.414C364.872 78.736 364.69 78.75 364.326 78.75C364.088 78.75 363.962 78.75 363.85 78.652C363.78 78.582 363.738 78.526 363.654 78.512H360.924C360.826 78.526 360.784 78.568 360.728 78.638C360.602 78.75 360.49 78.75 360.238 78.75C359.902 78.75 359.706 78.736 359.706 78.414C359.706 78.12 359.72 77.84 359.72 77.546V75.012C359.72 74.746 359.706 74.48 359.706 74.214C359.706 73.878 359.832 73.668 360.196 73.668C360.434 73.668 360.672 73.682 360.896 73.682C361.176 73.668 361.274 73.612 361.414 73.374C361.554 73.108 361.75 72.702 361.848 72.436C361.876 72.338 361.904 72.24 362.016 72.24C362.03 72.24 363.248 72.548 363.248 72.772C363.248 72.87 363.136 72.898 363.066 72.912C362.94 72.926 362.856 72.954 362.786 73.066C362.744 73.136 362.632 73.318 362.59 73.402C362.562 73.444 362.562 73.472 362.562 73.514C362.562 73.64 362.646 73.668 362.758 73.682ZM363.808 75.32V74.956C363.808 74.76 363.668 74.62 363.472 74.62H361.106C360.896 74.62 360.756 74.76 360.756 74.956V75.32C360.756 75.516 360.896 75.656 361.106 75.656H363.472C363.668 75.656 363.808 75.516 363.808 75.32ZM360.756 76.86V77.238C360.756 77.434 360.896 77.574 361.106 77.574H363.472C363.668 77.574 363.808 77.434 363.808 77.238V76.86C363.808 76.65 363.668 76.524 363.472 76.524H361.106C360.896 76.524 360.756 76.65 360.756 76.86ZM357.046 73.024C357.158 73.024 357.27 73.122 357.354 73.192C357.704 73.472 358.054 73.78 358.39 74.088C358.572 74.242 359.146 74.704 359.146 74.928C359.146 75.124 358.754 75.53 358.516 75.53C358.376 75.53 358.278 75.404 358.18 75.306C357.69 74.816 357.158 74.382 356.626 73.934C356.542 73.864 356.416 73.78 356.416 73.654C356.416 73.444 356.836 73.024 357.046 73.024ZM368.386 73.682C368.386 73.85 368.12 73.808 368.078 73.808C367.994 73.808 367.896 73.906 367.84 73.976C367.56 74.256 366.202 75.572 365.88 75.572C365.656 75.572 365.222 75.152 365.222 74.97C365.222 74.844 365.39 74.732 365.53 74.62C366.076 74.2 366.734 73.626 367.182 73.08C367.238 73.024 367.308 72.926 367.392 72.926C367.504 72.926 368.386 73.542 368.386 73.682ZM358.81 76.356C359.02 76.356 359.37 76.846 359.37 77.042C359.37 77.154 359.286 77.224 359.174 77.308C358.544 77.812 357.886 78.274 357.214 78.722C356.99 78.862 356.976 78.876 356.962 78.988C356.948 79.086 356.934 79.226 356.808 79.226C356.64 79.226 356.052 78.372 356.052 78.232C356.052 78.12 356.192 78.078 356.276 78.036C356.836 77.77 358.096 76.902 358.572 76.482C358.642 76.426 358.726 76.356 358.81 76.356ZM368.358 78.414C368.358 78.624 367.938 79.072 367.728 79.072C367.602 79.072 367.49 78.96 367.392 78.876C366.846 78.358 366.048 77.728 365.418 77.28C365.32 77.21 365.194 77.126 365.194 77C365.194 76.776 365.558 76.342 365.782 76.342C365.978 76.342 366.944 77.112 367.154 77.28C367.42 77.49 368.022 77.98 368.246 78.204C368.302 78.26 368.358 78.33 368.358 78.414ZM374.112 73.486C374.294 73.486 375.134 73.71 375.344 73.78C375.456 73.808 375.61 73.864 375.61 73.99C375.61 74.088 375.526 74.144 375.456 74.2C375.246 74.382 375.204 74.788 375.176 75.04C374.952 76.622 374.868 78.218 374.868 79.814C374.868 81.018 374.896 82.754 376.534 82.754C377.598 82.754 378.676 82.138 379.334 81.312C379.824 80.696 380.076 79.996 380.188 79.226C380.216 79.03 380.244 78.792 380.426 78.792C380.692 78.792 381.364 79.352 381.364 79.744C381.364 80.122 381 80.99 380.818 81.326C379.992 82.866 378.396 83.986 376.618 83.986C375.736 83.986 374.826 83.65 374.28 82.922C373.678 82.11 373.622 80.836 373.622 79.856C373.622 78.12 373.748 76.384 373.888 74.648C373.916 74.368 373.916 74.102 373.916 73.822C373.916 73.626 373.93 73.486 374.112 73.486ZM394.342 75.222C394.706 75.222 396.652 77 396.652 77.336C396.652 77.56 396.064 78.036 395.868 78.036C395.728 78.036 395.616 77.868 395.532 77.742C395.07 77.126 394.468 76.594 393.852 76.16C393.768 76.104 393.656 76.034 393.656 75.936C393.656 75.754 394.118 75.222 394.342 75.222ZM388.224 78.386C387.692 78.386 387.552 79.142 387.552 79.548C387.552 79.842 387.636 80.402 388.028 80.402C388.546 80.402 388.868 79.59 388.868 79.17C388.868 78.82 388.616 78.386 388.224 78.386ZM389.008 72.926C389.092 72.926 390.142 73.108 390.254 73.136C390.338 73.164 390.464 73.206 390.464 73.304C390.464 73.374 390.408 73.458 390.352 73.514C390.212 73.682 390.198 73.724 390.17 73.976C390.142 74.13 390.142 74.298 390.142 74.452C390.142 74.578 390.226 74.69 390.352 74.69C390.52 74.69 391.458 74.41 391.654 74.34C391.696 74.312 391.738 74.298 391.78 74.298C392.018 74.298 392.06 74.998 392.06 75.18C392.06 75.488 391.92 75.516 390.478 75.796C390.03 75.88 390.03 76.02 390.002 76.496C389.988 76.916 389.904 78.036 389.904 78.358C389.904 78.512 389.918 78.596 389.946 78.75C389.988 78.918 390.002 79.086 390.002 79.268C390.002 79.73 389.904 80.192 389.778 80.64C389.666 81.074 389.484 81.718 389.484 82.166C389.484 82.992 390.842 82.922 391.402 82.922C393.922 82.922 394.23 82.446 394.398 80.64C394.426 80.402 394.426 80.248 394.664 80.248C394.916 80.248 395.63 80.5 395.63 80.808C395.63 81.2 395.35 82.138 395.196 82.502C394.916 83.132 394.454 83.524 393.81 83.734C392.942 84.014 391.976 84.056 391.08 84.056C389.918 84.056 388.392 83.916 388.392 82.39C388.392 82.11 388.434 81.83 388.49 81.564C388.504 81.522 388.504 81.494 388.504 81.466C388.504 81.382 388.448 81.34 388.378 81.34C388.322 81.34 388.252 81.382 388.196 81.41C388.084 81.466 387.972 81.494 387.846 81.494C386.852 81.494 386.544 80.374 386.544 79.562C386.544 78.61 387.02 77.322 388.168 77.322C388.434 77.322 388.602 77.42 388.728 77.42C388.854 77.42 388.882 77.238 388.882 76.51C388.882 76.328 388.91 76.118 388.686 76.118C388.63 76.118 388.532 76.132 388.476 76.146C388.182 76.188 387.02 76.342 386.782 76.342C386.614 76.342 386.544 76.258 386.502 76.104C386.474 75.964 386.404 75.558 386.404 75.418C386.404 75.166 386.488 75.166 386.712 75.166H386.796C387.132 75.166 388.406 75.096 388.672 74.998C388.952 74.886 388.938 74.564 388.938 74.172C388.938 73.892 388.924 73.584 388.882 73.304C388.868 73.234 388.84 73.15 388.84 73.08C388.84 72.982 388.882 72.926 389.008 72.926ZM406.088 81.032H405.766C405.458 81.032 405.43 80.962 405.416 80.598L405.332 76.944C405.318 76.132 405.234 74.284 405.234 74.004C405.234 73.752 405.318 73.696 405.64 73.696H406.2C406.522 73.696 406.606 73.752 406.606 74.004C406.606 74.284 406.536 76.146 406.508 76.986L406.438 80.598C406.424 80.962 406.396 81.032 406.088 81.032ZM405.976 82.236C406.424 82.236 406.774 82.544 406.774 83.02C406.774 83.496 406.466 83.916 405.878 83.916C405.416 83.916 405.08 83.608 405.08 83.16C405.08 82.642 405.402 82.236 405.976 82.236Z" fill="black"/>
<path d="M315 0H395L392.6 10L395 20H315L317.4 10L315 0Z" fill="#FFE162"/>
<g filter="url(#filter2_d_353_13789)">
<rect x="106" y="151" width="250" height="125" fill="white"/>
</g>
<path d="M190.4 180.68H193.34C193.72 180.68 194.06 180.66 194.46 180.58C194.52 180.56 194.58 180.54 194.64 180.54C195.08 180.54 195.92 181.78 195.92 182.2C195.92 182.3 195.9 182.36 195.84 182.44C195.66 182.74 195.52 183.08 195.38 183.42C194.86 184.62 194.3 185.8 193.64 186.94C193.54 187.1 193.46 187.24 193.46 187.42C193.46 187.68 193.62 187.82 193.8 187.96C194.02 188.12 194.84 188.72 194.84 188.98C194.84 189.34 193.48 191.1 192.98 191.1C192.84 191.1 192.76 191.02 192.66 190.92C192.46 190.72 191.84 190.1 191.58 190.1C191.4 190.1 191.26 190.22 191.16 190.34C190.1 191.48 188.88 192.48 187.54 193.28C186.94 193.66 184.9 194.74 184.24 194.74C183.78 194.74 183.3 194.14 183.04 193.82C182.84 193.56 182.26 192.82 182.26 192.56C182.26 192.34 182.5 192.26 182.96 192.14C183.06 192.1 183.16 192.08 183.28 192.04C185.84 191.3 188.94 188.96 188.94 188.4C188.94 188.22 188.82 188.12 188.68 188.04C188.28 187.78 187.5 187.42 187.04 187.22C186.86 187.14 186.44 186.96 186.44 186.74C186.44 186.42 187.54 184.6 188.16 184.6C188.44 184.6 190 185.46 190.34 185.66C190.46 185.72 190.6 185.8 190.74 185.8C191.08 185.8 191.24 185.48 191.42 185.1C191.54 184.86 191.92 184.06 191.92 183.82C191.92 183.48 191.48 183.44 191.22 183.44H188.5C187.94 183.44 187.78 183.48 187.5 183.86C186.84 184.76 185.92 185.82 185.14 186.64C184.9 186.88 184.46 187.34 184.12 187.34C183.88 187.34 183.24 186.96 182.7 186.56C182.2 186.2 181.78 185.8 181.78 185.64C181.78 185.44 182.02 185.28 182.16 185.18C184.28 183.64 186.68 180.38 187.56 177.9C187.62 177.72 187.72 177.4 187.94 177.4C188.1 177.4 189.4 177.94 190.26 178.34C190.62 178.48 190.9 178.62 191.02 178.68C191.1 178.72 191.16 178.76 191.16 178.82C191.16 178.92 191.12 178.96 190.94 179.04C190.62 179.16 190.54 179.32 190.34 179.68C190.22 179.86 190.02 180.16 190.02 180.36C190.02 180.6 190.2 180.66 190.4 180.68ZM205.2 184.54H214.4C215.58 184.54 216.86 184.46 217.04 184.46C217.56 184.46 217.64 184.68 217.64 185.26V186.22C217.64 187.32 217.62 187.66 216.98 187.66C216.2 187.66 215.28 187.6 214.4 187.6H205.2C204.32 187.6 203.38 187.66 202.64 187.66C201.96 187.66 201.96 187.28 201.96 186.22V185.3C201.96 184.7 202.02 184.46 202.54 184.46C202.82 184.46 203.94 184.54 205.2 184.54ZM230.52 181.9H235.36C236.3 181.9 237.4 181.84 237.96 181.84C238.52 181.84 238.64 182.02 238.64 183V184C238.64 184.7 238.54 184.9 237.96 184.9C237.1 184.9 236.24 184.86 235.36 184.86H234.9C234.46 184.86 234.3 185.2 234.26 185.58C234.08 187.7 233.36 189.98 232.12 191.7C231.18 193 229.74 194.3 228.32 195.08C228.16 195.18 227.96 195.26 227.76 195.26C227.36 195.26 226.62 194.6 226.28 194.3C226.1 194.12 225.58 193.58 225.58 193.32C225.58 193.12 225.98 192.9 226.16 192.8C227.94 191.84 229.62 190.46 230.44 188.58C230.72 187.92 230.92 187.2 231.04 186.5C231.08 186.26 231.18 185.64 231.18 185.42C231.18 185.1 230.96 184.86 230.64 184.86H229.1C228.52 184.86 228.22 184.9 227.92 185.38C227.22 186.46 226.18 187.76 225.28 188.68C225.14 188.82 225 188.96 224.8 188.96C224.56 188.96 223.92 188.64 223.36 188.26C222.82 187.9 222.36 187.48 222.36 187.22C222.36 187.04 222.64 186.82 222.78 186.7C225.06 184.7 227.28 181.08 227.78 178.06C227.82 177.78 227.86 177.56 228.06 177.56C228.3 177.56 230.14 178.14 230.5 178.26C230.82 178.36 231.44 178.54 231.44 178.72C231.44 178.82 231.32 178.88 231.26 178.92C230.82 179.16 230.72 179.5 230.5 180.12C230.42 180.38 230.32 180.66 230.18 181.02C230.14 181.14 230.06 181.36 230.06 181.46C230.06 181.76 230.26 181.88 230.52 181.9ZM236 178.1C236.16 178.1 237.84 179.84 237.84 180.14C237.84 180.54 236.84 181.26 236.64 181.26C236.54 181.26 236.46 181.16 236.4 181.08C235.94 180.5 235.44 179.94 234.92 179.38C234.84 179.32 234.72 179.2 234.72 179.1C234.72 178.8 235.78 178.1 236 178.1ZM238.68 177.08L238.74 177.14C238.96 177.36 239.98 178.36 239.98 178.64C239.98 179.02 238.98 179.76 238.78 179.76C238.68 179.76 238.6 179.66 238.52 179.58C238.12 179.06 237.5 178.34 237.04 177.88C236.96 177.82 236.86 177.72 236.86 177.62C236.86 177.34 237.86 176.6 238.12 176.6C238.22 176.6 238.52 176.92 238.68 177.08ZM247.54 183.9C248.18 184.66 248.72 185.6 249.22 186.5C249.32 186.7 249.38 186.86 249.38 186.94C249.38 187.44 247.62 188.22 247.32 188.22C247.1 188.22 246.98 187.98 246.9 187.82C246.42 186.9 245.9 186.02 245.32 185.18C245.24 185.06 245.14 184.92 245.14 184.78C245.14 184.36 246.78 183.62 247.14 183.62C247.24 183.62 247.4 183.72 247.54 183.9ZM251.02 182.5C251.12 182.5 251.26 182.6 251.38 182.74C252.02 183.48 252.64 184.58 253.12 185.44C253.2 185.6 253.24 185.74 253.24 185.82C253.24 186.3 251.5 187.08 251.2 187.08C250.98 187.08 250.86 186.86 250.76 186.68C250.28 185.72 249.76 184.86 249.14 183.98C249.06 183.88 249 183.78 249 183.64C249 183.26 250.64 182.5 251.02 182.5ZM255.02 182.88C255.22 182.88 256.38 183.32 256.64 183.42C257.24 183.62 257.82 183.8 257.82 184.1C257.82 184.2 257.72 184.3 257.56 184.42C257.38 184.56 257.34 184.56 257.24 184.92C256.56 187.16 256.06 188.68 254.52 190.52C252.92 192.42 251.2 193.38 248.88 194.16C248.72 194.22 248.38 194.34 248.22 194.34C247.9 194.34 247.38 193.6 247.18 193.32C247.16 193.28 247.12 193.24 247.08 193.18C246.92 192.94 246.68 192.58 246.68 192.36C246.68 192.1 246.82 192.02 247.04 191.96C248.06 191.72 249.38 191.12 250.3 190.6C251.52 189.88 252.52 189 253.24 187.78C254.06 186.4 254.5 184.92 254.72 183.32C254.76 183.14 254.82 182.88 255.02 182.88ZM272.6 187.32V192.12C272.6 192.78 272.62 193.44 272.62 194.12C272.62 195.08 272.56 195.16 271.26 195.16H270.36C269.56 195.16 269.32 195.06 269.32 194.54C269.32 193.74 269.36 192.96 269.36 192.16V180.62C269.36 179.8 269.32 178.76 269.32 178.14C269.32 177.88 269.36 177.76 269.64 177.76C269.88 177.76 272.24 178.02 272.72 178.16C272.84 178.2 272.94 178.28 272.94 178.4C272.94 178.5 272.88 178.58 272.82 178.64C272.72 178.78 272.6 178.94 272.6 179.36V183.24C272.6 183.34 272.62 183.52 272.84 183.52C272.96 183.52 273.08 183.44 273.18 183.44C273.34 183.44 273.6 183.58 273.92 183.76C274.56 184.16 275.38 184.8 275.64 185C276.14 185.4 277.04 186.16 277.48 186.62C277.56 186.72 277.62 186.82 277.62 186.94C277.62 187.34 276.16 188.96 275.7 188.96C275.52 188.96 275.32 188.76 275.2 188.64C274.86 188.32 273.22 186.84 272.9 186.84C272.62 186.84 272.6 187.12 272.6 187.32Z" fill="black"/>
<path d="M171.116 220.11C171.116 220.32 170.654 220.684 170.444 220.684C170.318 220.684 170.22 220.572 170.15 220.474C169.604 219.788 168.974 219.13 168.316 218.542C168.232 218.458 168.12 218.374 168.12 218.248C168.12 218.038 168.568 217.646 168.778 217.646C168.988 217.646 169.898 218.612 170.08 218.808C170.276 219.004 171.116 219.886 171.116 220.11ZM169.324 223.61H168.876C168.666 223.61 168.456 223.638 168.246 223.638C167.966 223.638 167.952 223.484 167.952 223.092C167.952 222.672 167.966 222.532 168.246 222.532C168.456 222.532 168.666 222.574 168.876 222.574H169.268C169.548 222.574 169.828 222.546 170.094 222.546C170.584 222.546 170.85 222.658 170.85 223.176C170.85 223.554 170.836 223.932 170.836 224.31V226.284C170.836 227.11 170.822 227.782 171.718 228.146C172.46 228.454 173.65 228.482 174.658 228.482H175.61C176.744 228.482 177.864 228.468 178.998 228.44C179.278 228.44 179.642 228.426 179.908 228.426C180.118 228.426 180.146 228.552 180.146 228.734C180.146 229.434 179.964 229.518 179.334 229.518C179.138 229.518 178.9 229.504 178.62 229.504H174.882C173.58 229.504 171.102 229.574 170.36 228.272C170.304 228.188 170.234 228.104 170.108 228.104C170.038 228.104 169.982 228.146 169.926 228.188C169.534 228.51 169.142 228.818 168.75 229.126C168.652 229.196 168.624 229.266 168.61 229.378C168.61 229.49 168.568 229.602 168.442 229.602C168.33 229.602 168.302 229.532 168.218 229.406C168.106 229.252 167.672 228.65 167.672 228.496C167.672 228.37 167.812 228.3 168.218 228.09C168.372 227.992 169.226 227.376 169.422 227.236C169.66 227.054 169.716 226.928 169.716 226.634V224.002C169.716 223.722 169.604 223.61 169.324 223.61ZM178.382 219.452V219.13C178.382 218.962 178.256 218.85 178.088 218.85H173.286C173.118 218.85 172.992 218.962 172.992 219.13V219.452C172.992 219.62 173.118 219.732 173.286 219.732H178.088C178.256 219.732 178.382 219.62 178.382 219.452ZM172.992 220.964V221.79C172.992 223.554 172.866 225.122 172.292 226.802C172.222 227.012 172.096 227.32 171.984 227.53C171.942 227.614 171.872 227.67 171.774 227.67C171.55 227.67 170.934 227.404 170.934 227.152C170.934 227.096 171.046 226.872 171.074 226.802C171.788 225.206 171.928 223.484 171.928 221.748V218.5C171.928 218.08 172.082 217.954 172.614 217.954C172.992 217.954 173.384 217.982 173.776 217.982H177.612C177.976 217.982 178.326 217.968 178.69 217.968C179.068 217.968 179.474 217.982 179.474 218.458C179.474 218.668 179.446 218.878 179.446 219.088V219.466C179.446 219.676 179.46 219.886 179.46 220.096C179.46 220.572 179.068 220.586 178.704 220.586C178.34 220.586 177.976 220.572 177.612 220.572H173.384C173.118 220.572 172.992 220.684 172.992 220.964ZM178.088 223.05H177.346C177.136 223.05 177.052 223.134 177.052 223.33V223.582C177.052 223.792 177.136 223.876 177.346 223.876H177.892C178.284 223.876 178.676 223.848 179.068 223.848C179.348 223.848 179.334 224.03 179.334 224.282C179.334 224.66 179.32 224.73 178.942 224.73C178.732 224.73 178.396 224.702 177.892 224.702H177.346C177.136 224.702 177.052 224.786 177.052 224.982V225.29C177.052 225.486 177.136 225.57 177.346 225.57H178.242C178.746 225.57 179.25 225.542 179.768 225.542C180.048 225.542 180.034 225.71 180.034 225.99C180.034 226.298 180.034 226.452 179.768 226.452C179.25 226.452 178.746 226.41 178.242 226.41H177.444C177.164 226.438 177.066 226.522 177.066 226.802C177.052 227.096 177.08 227.39 177.08 227.684C177.08 228.062 176.996 228.118 176.52 228.118C176.044 228.118 175.946 228.062 175.946 227.684C175.946 227.376 175.96 227.082 175.974 226.788C175.96 226.522 175.848 226.41 175.582 226.41H174.994C174.49 226.41 173.986 226.452 173.468 226.452C173.202 226.452 173.202 226.284 173.202 225.99C173.202 225.71 173.202 225.542 173.482 225.542C173.986 225.542 174.49 225.57 174.994 225.57H175.694C175.89 225.57 175.974 225.486 175.974 225.29V224.982C175.974 224.786 175.904 224.702 175.694 224.702H175.4C175.022 224.702 174.63 224.73 174.238 224.73C173.958 224.73 173.972 224.562 173.972 224.282C173.972 224.002 173.972 223.848 174.238 223.848C174.63 223.848 175.022 223.876 175.4 223.876H175.694C175.89 223.876 175.974 223.792 175.974 223.582V223.33C175.974 223.134 175.904 223.05 175.694 223.05H175.232C174.756 223.05 174.28 223.078 173.79 223.078C173.524 223.078 173.524 222.924 173.524 222.63C173.524 222.238 173.552 222.168 173.874 222.168C174.042 222.168 174.308 222.182 174.7 222.182C174.84 222.182 174.938 222.126 174.938 221.986C174.938 221.93 174.938 221.902 174.91 221.86C174.896 221.818 174.854 221.734 174.798 221.636C174.686 221.412 174.532 221.118 174.532 221.062C174.532 220.852 175.19 220.684 175.26 220.684C175.428 220.684 175.54 220.922 175.792 221.468C175.806 221.496 175.834 221.552 175.862 221.622C175.918 221.762 176.002 221.944 176.002 222.014C176.002 222.028 175.988 222.07 175.974 222.084C175.974 222.098 175.96 222.112 175.96 222.126C175.96 222.168 175.988 222.182 176.03 222.196H176.52C176.758 222.196 176.884 222.154 177.01 221.944C177.178 221.664 177.458 221.132 177.556 220.838C177.584 220.754 177.612 220.684 177.71 220.684C177.724 220.684 178.788 220.992 178.788 221.216C178.788 221.314 178.676 221.328 178.494 221.356C178.438 221.384 178.396 221.426 178.382 221.468L178.158 221.86C178.144 221.902 178.116 221.944 178.116 222C178.116 222.126 178.228 222.182 178.34 222.196C178.732 222.196 179.124 222.168 179.516 222.168C179.81 222.168 179.796 222.336 179.796 222.63C179.796 222.91 179.796 223.078 179.53 223.078C179.04 223.078 178.564 223.05 178.088 223.05ZM193.054 227.46V218.71C193.054 218.36 193.054 218.024 192.998 217.688V217.548C192.998 217.394 193.096 217.366 193.222 217.366C193.404 217.366 194.034 217.422 194.23 217.436C194.356 217.45 194.538 217.464 194.538 217.632C194.538 217.744 194.454 217.772 194.342 217.856C194.174 217.954 194.16 218.122 194.16 218.766V227.348C194.16 227.656 194.188 227.964 194.188 228.272C194.188 228.678 194.132 229.084 193.81 229.378C193.39 229.742 192.55 229.798 192.032 229.798C191.556 229.798 191.318 229.798 191.318 228.944C191.318 228.762 191.332 228.552 191.556 228.552C191.612 228.552 191.738 228.552 191.808 228.566C191.962 228.58 192.116 228.58 192.27 228.58C193.054 228.58 193.054 228.342 193.054 227.46ZM190.52 224.8V220.362C190.52 219.998 190.52 219.634 190.464 219.298C190.45 219.256 190.45 219.214 190.45 219.172C190.45 219.032 190.562 219.004 190.674 219.004C190.814 219.004 191.528 219.06 191.696 219.074C191.78 219.088 191.934 219.116 191.934 219.242C191.934 219.34 191.836 219.396 191.752 219.452C191.598 219.55 191.584 219.69 191.584 220.222V224.8C191.584 225.346 191.612 225.906 191.612 226.452C191.612 226.844 191.5 226.9 191.052 226.9C190.604 226.9 190.478 226.844 190.478 226.452C190.478 225.892 190.52 225.346 190.52 224.8ZM187.076 227.67C187.006 227.586 186.922 227.53 186.81 227.53C186.698 227.53 186.628 227.572 186.544 227.628C185.41 228.538 184.598 229.028 183.282 229.644C183.212 229.686 183.1 229.728 183.002 229.728C182.722 229.728 182.414 229.154 182.414 229C182.414 228.804 182.736 228.692 182.876 228.622C184.836 227.712 187.118 226.102 188.35 224.31C188.392 224.226 188.49 224.128 188.588 224.128C188.728 224.128 189.064 224.366 189.274 224.52C189.33 224.562 189.372 224.59 189.414 224.618C189.498 224.674 189.61 224.744 189.61 224.856C189.61 224.996 189.372 225.01 189.274 225.038C189.204 225.038 189.12 225.136 189.078 225.192C188.7 225.626 188.308 226.06 187.888 226.466C187.818 226.536 187.762 226.606 187.762 226.718C187.762 226.83 187.818 226.9 187.874 226.97C188.168 227.278 189.75 228.916 189.75 229.21C189.75 229.42 189.274 229.826 189.064 229.826C188.938 229.826 188.868 229.728 188.798 229.63C188.252 228.944 187.678 228.3 187.076 227.67ZM183.716 221.86C183.8 221.916 183.856 221.958 183.968 221.958C184.066 221.958 184.15 221.902 184.22 221.818C184.556 221.426 184.836 221.02 185.13 220.586C185.158 220.544 185.172 220.516 185.172 220.474C185.172 220.334 185.06 220.292 184.948 220.278H184.094C183.618 220.278 183.156 220.306 182.68 220.306C182.4 220.306 182.4 220.166 182.4 219.774C182.4 219.396 182.414 219.256 182.68 219.256C183.156 219.256 183.618 219.284 184.094 219.284H185.228C185.508 219.284 185.62 219.172 185.62 218.892V218.584C185.62 218.304 185.62 218.01 185.578 217.716C185.564 217.674 185.564 217.632 185.564 217.59C185.564 217.436 185.676 217.408 185.816 217.408C185.984 217.408 186.194 217.422 186.362 217.436C186.446 217.45 186.516 217.45 186.586 217.45C186.908 217.478 187.132 217.492 187.132 217.646C187.132 217.744 187.048 217.786 186.95 217.856C186.796 217.954 186.782 218.122 186.782 218.514V218.892C186.782 219.172 186.894 219.284 187.174 219.284H188.252C188.728 219.284 189.19 219.256 189.666 219.256C189.946 219.256 189.946 219.41 189.946 219.774C189.946 220.152 189.946 220.306 189.666 220.306C189.19 220.306 188.728 220.278 188.252 220.278H186.25C186.208 220.278 186.166 220.292 186.166 220.348C186.166 220.362 186.18 220.39 186.194 220.404C186.32 220.488 186.572 220.642 186.572 220.754C186.572 220.908 186.404 220.88 186.362 220.88C186.264 220.88 186.194 220.908 186.124 220.992C185.676 221.65 185.438 221.916 184.934 222.504C184.878 222.588 184.836 222.658 184.836 222.756C184.836 222.868 184.892 222.952 184.962 223.036C185.102 223.176 185.256 223.33 185.396 223.484C185.48 223.54 185.55 223.596 185.662 223.596C185.76 223.596 185.844 223.554 185.914 223.484C186.488 222.896 187.076 222.238 187.482 221.524C187.538 221.44 187.608 221.328 187.72 221.328C187.846 221.328 188.742 221.832 188.742 222C188.742 222.112 188.63 222.168 188.532 222.182C188.322 222.238 188.308 222.294 188.14 222.504C187.174 223.736 186.544 224.436 185.326 225.444C184.668 225.99 184.122 226.368 183.394 226.816C183.268 226.886 183.142 226.984 182.988 226.984C182.778 226.984 182.372 226.536 182.372 226.326C182.372 226.158 182.652 226.004 182.764 225.934C183.38 225.57 184.038 225.122 184.598 224.674C184.682 224.604 184.738 224.534 184.738 224.408C184.738 224.296 184.682 224.24 184.612 224.156C184.01 223.526 183.366 222.938 182.694 222.378C182.61 222.308 182.512 222.21 182.512 222.098C182.512 221.916 182.904 221.44 183.114 221.44C183.282 221.44 183.59 221.748 183.716 221.86ZM200.432 218.486C200.614 218.486 201.454 218.71 201.664 218.78C201.776 218.808 201.93 218.864 201.93 218.99C201.93 219.088 201.846 219.144 201.776 219.2C201.566 219.382 201.524 219.788 201.496 220.04C201.272 221.622 201.188 223.218 201.188 224.814C201.188 226.018 201.216 227.754 202.854 227.754C203.918 227.754 204.996 227.138 205.654 226.312C206.144 225.696 206.396 224.996 206.508 224.226C206.536 224.03 206.564 223.792 206.746 223.792C207.012 223.792 207.684 224.352 207.684 224.744C207.684 225.122 207.32 225.99 207.138 226.326C206.312 227.866 204.716 228.986 202.938 228.986C202.056 228.986 201.146 228.65 200.6 227.922C199.998 227.11 199.942 225.836 199.942 224.856C199.942 223.12 200.068 221.384 200.208 219.648C200.236 219.368 200.236 219.102 200.236 218.822C200.236 218.626 200.25 218.486 200.432 218.486ZM216.154 218.276C216.294 218.276 217.078 218.486 217.274 218.528C217.386 218.57 217.624 218.612 217.624 218.766C217.624 218.85 217.568 218.906 217.512 218.962C217.274 219.158 217.232 219.438 217.162 219.928C217.134 220.124 217.106 220.348 217.05 220.6C217.036 220.642 217.022 220.712 217.022 220.754C217.022 220.908 217.134 221.006 217.274 221.006C217.372 221.006 217.778 220.992 218.044 220.992C219.472 220.992 220.004 221.86 220.004 223.19C220.004 224.478 219.794 226.312 219.192 227.446C218.674 228.412 217.75 228.916 216.658 228.916C216.378 228.916 216.224 228.874 216.084 228.622C215.972 228.426 215.86 228.062 215.86 227.824C215.86 227.726 215.902 227.642 216.014 227.642C216.14 227.642 216.392 227.712 216.7 227.712C217.484 227.712 217.876 227.432 218.212 226.732C218.632 225.878 218.842 224.464 218.842 223.512C218.842 222.7 218.786 222.042 217.806 222.042C216.784 222.042 216.714 222.224 216.644 222.532C216.196 224.324 215.356 226.046 214.348 227.572C214.11 227.922 213.69 228.524 213.424 228.818C213.354 228.888 213.284 228.944 213.186 228.944C212.976 228.944 212.304 228.524 212.304 228.258C212.304 228.146 212.416 228.034 212.5 227.95C213.648 226.746 214.516 225.346 215.09 223.778C215.146 223.61 215.44 222.77 215.44 222.644C215.44 222.532 215.37 222.476 215.272 222.476C215.02 222.476 213.62 222.952 213.326 223.064C213.284 223.078 213.214 223.106 213.172 223.106C212.892 223.106 212.654 222.07 212.654 221.944C212.654 221.748 212.878 221.762 213.018 221.748C213.648 221.692 214.754 221.412 215.44 221.286C215.874 221.202 215.86 221.034 215.916 220.6C215.986 220.152 216.056 219.48 216.056 219.018C216.056 218.85 216.042 218.682 216.014 218.514V218.458C216.014 218.36 216.056 218.276 216.154 218.276ZM221.614 218.332C221.74 218.332 222.342 218.976 222.468 219.102C222.58 219.214 222.93 219.592 222.93 219.704C222.93 219.886 222.524 220.264 222.342 220.264C222.258 220.264 222.188 220.166 222.146 220.11C221.824 219.732 221.502 219.382 221.152 219.032C221.11 218.99 221.026 218.92 221.026 218.85C221.026 218.696 221.46 218.332 221.614 218.332ZM222.902 217.38C223.056 217.38 224.232 218.598 224.232 218.738C224.232 218.934 223.812 219.312 223.63 219.312C223.546 219.312 223.49 219.214 223.434 219.158C223.112 218.766 222.818 218.458 222.454 218.08C222.412 218.038 222.328 217.968 222.328 217.898C222.328 217.744 222.762 217.38 222.902 217.38ZM220.732 219.858C221.222 219.858 223.098 222.882 223.098 223.232C223.098 223.47 222.426 223.876 222.174 223.876C222.006 223.876 221.936 223.722 221.88 223.596C221.348 222.42 220.942 221.622 220.06 220.656C219.99 220.6 219.934 220.53 219.934 220.432C219.934 220.222 220.536 219.858 220.732 219.858ZM231.022 217.954C231.078 217.954 232.394 218.276 232.394 218.57C232.394 218.654 232.31 218.724 232.24 218.78C232.044 218.934 231.988 219.13 231.89 219.494C231.862 219.62 231.834 219.746 231.792 219.9C231.778 219.97 231.75 220.068 231.75 220.138C231.75 220.222 231.806 220.348 231.974 220.348C232.534 220.348 234.312 219.9 234.886 219.718C234.998 219.676 235.152 219.62 235.25 219.62C235.516 219.62 235.6 220.53 235.6 220.628C235.6 220.838 235.404 220.866 235.194 220.908C234.27 221.076 232.758 221.286 231.82 221.398C231.386 221.454 231.358 221.566 231.218 222.21C231.162 222.462 231.092 222.784 230.966 223.218C230.938 223.33 230.854 223.596 230.854 223.694C230.854 223.764 230.896 223.806 230.966 223.806C231.036 223.806 231.106 223.764 231.162 223.722C232.03 223.19 232.814 222.826 233.85 222.826C235.53 222.826 236.608 223.918 236.608 225.598C236.608 227.32 235.404 228.384 233.822 228.79C233.024 229 231.764 229.182 230.938 229.182C230.532 229.182 230.476 229.112 230.392 228.86C230.336 228.678 230.238 228.328 230.238 228.146C230.238 227.978 230.364 227.894 230.518 227.894C230.686 227.894 231.078 227.964 231.554 227.964C232.324 227.964 233.206 227.824 233.934 227.558C234.844 227.222 235.432 226.522 235.432 225.514C235.432 224.604 234.83 223.904 233.878 223.904C232.688 223.904 231.092 224.674 230.392 225.64C230.294 225.766 230.182 225.962 230 225.962C229.734 225.962 229.104 225.64 229.104 225.318C229.104 225.206 229.146 225.094 229.188 224.996C229.566 224.1 229.762 223.526 230 222.588C230.042 222.448 230.182 221.916 230.182 221.804C230.182 221.678 230.07 221.608 229.958 221.622L228.012 221.79C227.928 221.804 227.858 221.804 227.774 221.804C227.578 221.804 227.508 221.72 227.452 221.552C227.41 221.398 227.354 221.02 227.354 220.866C227.354 220.53 227.55 220.544 227.648 220.544C228.11 220.544 228.558 220.572 229.006 220.572C229.832 220.572 230.322 220.572 230.476 220.348C230.616 220.124 230.784 218.752 230.826 218.402C230.84 218.192 230.84 217.954 231.022 217.954ZM247.08 226.942C246.688 226.942 245.932 227.012 245.932 227.544C245.932 228.048 246.646 228.314 247.066 228.314C247.668 228.314 247.934 228.006 247.934 227.418C247.934 227.068 247.892 226.942 247.08 226.942ZM247.836 221.986C248.06 221.986 248.41 222.042 248.62 222.098C248.746 222.126 248.858 222.196 248.858 222.336C248.858 222.392 248.83 222.812 248.83 223.092C248.83 223.834 248.886 225.22 248.97 225.948C248.998 226.2 249.096 226.27 249.32 226.354C249.88 226.564 250.216 226.718 250.734 227.012C250.902 227.11 251.546 227.46 251.546 227.642C251.546 227.866 251.14 228.454 250.846 228.454C250.72 228.454 250.594 228.342 250.496 228.272C250.272 228.104 249.446 227.53 249.18 227.53C249.026 227.53 249.012 227.754 248.998 227.88C248.9 228.93 248.158 229.35 247.164 229.35C246.114 229.35 244.812 228.776 244.812 227.572C244.812 226.34 246.016 225.962 247.038 225.962C247.206 225.962 247.388 225.976 247.556 225.976C247.696 225.976 247.822 225.948 247.822 225.78C247.822 225.374 247.626 222.868 247.556 222.406V222.238C247.556 222.056 247.668 221.986 247.836 221.986ZM249.852 219.998C250.202 219.998 252.092 221.846 252.092 222.196C252.092 222.476 251.462 222.938 251.252 222.938C251.126 222.938 251.07 222.84 251 222.742C250.594 222.112 249.894 221.426 249.292 220.978C249.208 220.922 249.11 220.838 249.11 220.74C249.11 220.572 249.628 219.998 249.852 219.998ZM245.288 217.674C245.428 217.674 246.338 217.968 246.534 218.038C246.604 218.066 246.702 218.108 246.702 218.206C246.702 218.29 246.618 218.346 246.506 218.458C246.38 218.57 246.156 219.508 246.1 219.718C246.086 219.788 246.044 219.942 246.044 219.984C246.044 220.082 246.114 220.152 246.212 220.152C246.31 220.152 247.052 219.942 247.178 219.9C247.234 219.886 247.276 219.858 247.332 219.858C247.542 219.858 247.57 220.6 247.57 220.768C247.57 221.09 247.402 221.09 246.03 221.342C245.568 221.426 245.582 221.496 245.428 221.93C244.994 223.204 244.364 224.576 243.762 225.794C243.552 226.2 243.342 226.606 243.104 227.012C243.048 227.11 242.992 227.18 242.866 227.18C242.628 227.18 241.886 226.858 241.886 226.606C241.886 226.494 242.054 226.242 242.11 226.13C242.74 225.122 243.398 223.876 243.846 222.77C243.93 222.574 244.196 221.93 244.196 221.818C244.196 221.734 244.14 221.65 244.028 221.65C243.944 221.65 243.832 221.664 243.748 221.678C243.524 221.706 242.488 221.804 242.306 221.804C242.082 221.804 242.026 221.678 241.984 221.44C241.956 221.314 241.914 220.936 241.914 220.81C241.914 220.642 241.998 220.6 242.152 220.6C242.264 220.6 242.376 220.614 242.474 220.614C242.852 220.614 244.434 220.6 244.644 220.376C244.77 220.236 244.868 219.774 244.938 219.494C245.064 218.976 245.148 218.43 245.162 217.898C245.162 217.8 245.162 217.674 245.288 217.674ZM262.284 221.734C262.046 221.902 262.004 222.014 262.004 222.294V222.994C262.004 223.274 262.116 223.386 262.396 223.386H265.504C266.064 223.386 266.638 223.358 267.198 223.358C267.52 223.358 267.534 223.498 267.534 223.946C267.534 224.394 267.52 224.534 267.198 224.534C266.638 224.534 266.064 224.506 265.504 224.506H262.396C262.116 224.506 262.004 224.618 262.004 224.898V227.39C262.004 227.768 262.032 228.146 262.032 228.524C262.032 229.826 260.52 229.854 259.554 229.854C259.288 229.854 258.966 229.868 258.868 229.672C258.77 229.504 258.7 229.112 258.7 228.916C258.7 228.734 258.756 228.636 258.952 228.636C259.12 228.636 259.47 228.678 259.778 228.678C260.856 228.678 260.856 228.468 260.856 227.628V224.898C260.856 224.618 260.744 224.506 260.464 224.506H257.3C256.74 224.506 256.166 224.534 255.606 224.534C255.298 224.534 255.27 224.408 255.27 223.946C255.27 223.484 255.298 223.358 255.606 223.358C256.166 223.358 256.74 223.386 257.3 223.386H260.464C260.744 223.386 260.856 223.274 260.856 222.994V222.49C260.856 222.14 260.856 221.776 260.8 221.426V221.314C260.8 221.16 260.898 221.118 261.024 221.118C261.094 221.118 261.164 221.132 261.234 221.132C261.416 221.132 261.5 221.118 261.668 221.006C261.948 220.796 263.614 219.55 263.614 219.284C263.614 219.13 263.418 219.158 263.25 219.158H259.008C258.462 219.158 257.916 219.186 257.356 219.186C257.062 219.186 257.048 219.046 257.048 218.612C257.048 218.136 257.076 218.024 257.37 218.024C257.916 218.024 258.462 218.066 259.008 218.066H263.572C263.992 218.066 264.412 218.052 264.846 218.052C265.406 218.052 265.686 218.668 265.686 218.794C265.686 219.354 262.844 221.356 262.284 221.734ZM276.69 226.774C276.69 226.872 276.578 226.9 276.508 226.9C276.326 226.9 276.298 226.928 276.158 227.096C275.486 227.978 274.688 228.762 273.834 229.476C273.722 229.56 273.554 229.728 273.428 229.728C273.232 229.728 272.714 229.392 272.714 229.154C272.714 229.014 272.868 228.902 272.98 228.832C273.764 228.188 274.87 227.138 275.43 226.284C275.5 226.172 275.556 226.13 275.626 226.13C275.738 226.13 276.032 226.298 276.27 226.438C276.382 226.508 276.48 226.564 276.536 226.592C276.606 226.634 276.69 226.676 276.69 226.774ZM282.318 229.21C282.318 229.434 281.8 229.826 281.604 229.826C281.128 229.826 278.594 226.956 278.594 226.606C278.594 226.41 279.112 226.088 279.322 226.088C279.448 226.088 279.518 226.186 279.644 226.368C280.218 227.194 281.254 228.272 282.052 228.902C282.136 228.972 282.318 229.098 282.318 229.21ZM276.69 224.52H278.384C278.622 224.492 278.748 224.38 278.776 224.128V221.776C278.748 221.538 278.622 221.412 278.384 221.384H276.69C276.452 221.412 276.326 221.538 276.298 221.776V224.128C276.326 224.38 276.452 224.492 276.69 224.52ZM274.828 221.384C274.436 221.384 274.016 221.426 273.61 221.426C273.302 221.426 273.288 221.286 273.288 220.866C273.288 220.474 273.302 220.32 273.61 220.32C274.016 220.32 274.422 220.362 274.828 220.348C275.094 220.348 275.206 220.222 275.206 219.956V218.808C275.206 218.444 275.192 218.066 275.15 217.73C275.15 217.688 275.136 217.646 275.136 217.604C275.136 217.45 275.234 217.408 275.36 217.408C275.528 217.408 276.2 217.478 276.382 217.506C276.494 217.52 276.648 217.534 276.648 217.674C276.648 217.758 276.592 217.786 276.466 217.87C276.312 217.982 276.298 218.164 276.298 218.598V219.956C276.298 220.236 276.41 220.348 276.69 220.348H278.384C278.65 220.348 278.776 220.236 278.776 219.956V218.78C278.776 218.43 278.776 218.066 278.72 217.716C278.706 217.674 278.706 217.632 278.706 217.59C278.706 217.422 278.818 217.408 278.944 217.408C279.07 217.408 279.868 217.478 280.008 217.506C280.106 217.52 280.218 217.548 280.218 217.66C280.218 217.758 280.148 217.786 280.036 217.87C279.882 217.982 279.868 218.192 279.868 218.696V219.956C279.868 220.236 279.98 220.348 280.246 220.348C280.694 220.362 281.156 220.32 281.604 220.32C281.926 220.32 281.926 220.474 281.926 220.866C281.926 221.272 281.926 221.426 281.604 221.426C281.156 221.426 280.708 221.37 280.26 221.384C279.98 221.384 279.868 221.51 279.868 221.776V224.128C279.868 224.408 279.98 224.52 280.26 224.52H280.288C280.806 224.52 281.31 224.492 281.828 224.492C282.136 224.492 282.136 224.66 282.136 225.038C282.136 225.416 282.136 225.584 281.828 225.584C281.31 225.584 280.806 225.556 280.288 225.556H274.828C274.324 225.556 273.82 225.584 273.302 225.584C272.994 225.584 272.994 225.416 272.994 225.038C272.994 224.66 272.994 224.492 273.302 224.492C273.806 224.492 274.31 224.534 274.814 224.52C275.094 224.52 275.206 224.408 275.206 224.128V221.776C275.206 221.524 275.108 221.384 274.828 221.384ZM271.23 227.572V223.162C271.216 223.092 271.202 223.022 271.118 223.022C271.076 223.022 271.034 223.036 271.006 223.064C270.866 223.26 270.278 224.072 270.068 224.072C269.83 224.072 269.452 223.498 269.452 223.288C269.452 223.134 269.662 222.924 269.76 222.812C270.53 221.916 271.188 220.866 271.678 219.802C272.084 218.906 272.196 218.472 272.476 217.562C272.504 217.45 272.56 217.352 272.686 217.352C272.77 217.352 273.162 217.464 273.26 217.492C273.428 217.534 273.918 217.66 273.918 217.842C273.918 217.94 273.792 217.996 273.722 218.024C273.512 218.122 273.498 218.192 273.4 218.472C273.05 219.522 272.728 220.18 272.238 221.146C272.224 221.174 272.224 221.202 272.224 221.23C272.224 221.3 272.28 221.356 272.35 221.356C272.462 221.37 272.686 221.356 272.686 221.524C272.686 221.622 272.616 221.65 272.504 221.72C272.35 221.818 272.336 222.028 272.336 222.49V227.572C272.336 228.174 272.364 228.776 272.364 229.392C272.364 229.812 272.266 229.854 271.79 229.854C271.328 229.854 271.188 229.826 271.188 229.392C271.188 228.776 271.23 228.174 271.23 227.572Z" fill="black"/>
<path d="M191 141H271L268.6 151L271 161H191L193.4 151L191 141Z" fill="#FFE162"/>
<defs>
<filter id="filter0_d_353_13789" x="0" y="5" width="210" height="110" filterUnits="userSpaceOnUse" color-interpolation-filters="sRGB">
<feFlood flood-opacity="0" result="BackgroundImageFix"/>
<feColorMatrix in="SourceAlpha" type="matrix" values="0 0 0 0 0 0 0 0 0 0 0 0 0 0 0 0 0 0 127 0" result="hardAlpha"/>
<feOffset/>
<feGaussianBlur stdDeviation="2.5"/>
<feComposite in2="hardAlpha" operator="out"/>
<feColorMatrix type="matrix" values="0 0 0 0 0 0 0 0 0 0 0 0 0 0 0 0 0 0 0.25 0"/>
<feBlend mode="normal" in2="BackgroundImageFix" result="effect1_dropShadow_353_13789"/>
<feBlend mode="normal" in="SourceGraphic" in2="effect1_dropShadow_353_13789" result="shape"/>
</filter>
<filter id="filter1_d_353_13789" x="250" y="5" width="210" height="110" filterUnits="userSpaceOnUse" color-interpolation-filters="sRGB">
<feFlood flood-opacity="0" result="BackgroundImageFix"/>
<feColorMatrix in="SourceAlpha" type="matrix" values="0 0 0 0 0 0 0 0 0 0 0 0 0 0 0 0 0 0 127 0" result="hardAlpha"/>
<feOffset/>
<feGaussianBlur stdDeviation="2.5"/>
<feComposite in2="hardAlpha" operator="out"/>
<feColorMatrix type="matrix" values="0 0 0 0 0 0 0 0 0 0 0 0 0 0 0 0 0 0 0.25 0"/>
<feBlend mode="normal" in2="BackgroundImageFix" result="effect1_dropShadow_353_13789"/>
<feBlend mode="normal" in="SourceGraphic" in2="effect1_dropShadow_353_13789" result="shape"/>
</filter>
<filter id="filter2_d_353_13789" x="101" y="146" width="260" height="135" filterUnits="userSpaceOnUse" color-interpolation-filters="sRGB">
<feFlood flood-opacity="0" result="BackgroundImageFix"/>
<feColorMatrix in="SourceAlpha" type="matrix" values="0 0 0 0 0 0 0 0 0 0 0 0 0 0 0 0 0 0 127 0" result="hardAlpha"/>
<feOffset/>
<feGaussianBlur stdDeviation="2.5"/>
<feComposite in2="hardAlpha" operator="out"/>
<feColorMatrix type="matrix" values="0 0 0 0 0 0 0 0 0 0 0 0 0 0 0 0 0 0 0.25 0"/>
<feBlend mode="normal" in2="BackgroundImageFix" result="effect1_dropShadow_353_13789"/>
<feBlend mode="normal" in="SourceGraphic" in2="effect1_dropShadow_353_13789" result="shape"/>
</filter>
</defs>
</svg>
