<svg width="300" height="300" viewBox="0 0 300 300" fill="none" xmlns="http://www.w3.org/2000/svg">
<g filter="url(#filter0_d_612_355)">
<rect x="58.8126" y="75" width="191.63" height="103.419" transform="rotate(2.66724 58.8126 75)" fill="#F7FA67"/>
<rect x="50.5" y="84.5" width="199" height="149" fill="white" stroke="#D5D5D5"/>
<path d="M226.81 70.6373C230.347 73.4196 230.386 78.2218 228.067 81.1691L206.426 108.677C204.365 111.297 199.903 113.088 195.895 109.934C191.886 106.781 192.576 102.022 194.637 99.4023L216.278 71.8945C218.854 68.6198 223.568 68.0868 226.81 70.6373Z" stroke="#BFBFBF" stroke-width="4"/>
<path d="M121.068 142.112C121.392 142.112 124.416 145.208 124.416 145.676C124.416 146.18 123.12 147.296 122.688 147.296C122.472 147.296 122.328 147.08 122.22 146.936C121.464 146 120.456 144.884 119.628 144.056C119.484 143.948 119.304 143.768 119.304 143.588C119.304 143.156 120.636 142.112 121.068 142.112ZM117.468 144.524C117.792 144.524 120.816 147.692 120.816 148.124C120.816 148.664 119.52 149.744 119.052 149.744C118.872 149.744 118.728 149.564 118.584 149.42C117.828 148.448 116.892 147.368 116.028 146.504C115.884 146.36 115.704 146.18 115.704 146C115.704 145.568 117.072 144.524 117.468 144.524ZM106.056 151.796H116.496C118.008 151.796 119.52 151.724 120.996 151.724C122.076 151.724 122.04 152.192 122.04 154.208C122.04 155.252 121.932 155.612 120.996 155.612C119.484 155.612 118.008 155.54 116.496 155.54H114.84C113.76 155.54 113.76 156.692 113.724 156.944C113.22 163.496 111.24 168.464 105.984 172.676C105.372 173.18 103.248 174.8 102.492 174.8C101.772 174.8 99.828 172.928 99.828 172.28C99.828 171.884 100.404 171.632 100.8 171.416C103.14 170.12 105.444 168.284 106.992 166.088C108.36 164.108 108.972 162.164 109.44 159.86C109.584 159.14 109.836 157.304 109.836 156.584C109.836 156.008 109.44 155.54 108.828 155.54H104.076C103.284 155.54 102.924 155.684 102.492 156.368C101.772 157.484 97.776 163.172 96.696 163.172C95.976 163.172 93.672 161.732 93.672 160.976C93.672 160.688 94.068 160.4 94.248 160.22C98.46 156.404 102.168 150.104 103.284 144.524C103.356 144.092 103.428 143.696 103.752 143.696C104.076 143.696 105.624 144.2 106.056 144.308C106.416 144.416 108.18 144.848 108.18 145.28C108.18 145.496 107.856 145.676 107.676 145.784C107.172 146.108 106.956 146.684 106.596 147.764C106.344 148.448 106.056 149.312 105.588 150.428C105.48 150.644 105.372 150.896 105.372 151.112C105.372 151.58 105.66 151.76 106.056 151.796ZM137.16 156.764H153.72C155.376 156.764 157.716 156.656 158.184 156.656C159.156 156.656 159.192 156.944 159.192 158.924C159.192 160.076 159.156 160.76 158.22 160.76C156.708 160.76 155.196 160.688 153.72 160.688H137.16C135.684 160.688 134.172 160.76 132.66 160.76C131.724 160.76 131.688 160.076 131.688 158.96C131.688 156.944 131.76 156.656 132.696 156.656C133.164 156.656 135.648 156.764 137.16 156.764ZM180.962 145.748C181.394 145.748 183.626 146.792 184.166 147.044C184.418 147.188 185.102 147.44 185.102 147.764C185.102 147.98 184.85 148.124 184.67 148.196C183.878 148.556 183.698 149.096 182.762 150.86C180.602 155 178.658 159.248 176.534 163.424C176.426 163.676 176.21 164.072 176.21 164.36C176.21 164.72 176.498 165.008 176.858 165.008C177.11 165.008 177.686 164.936 177.938 164.9C181.07 164.576 184.166 164.252 187.262 163.856C187.658 163.82 188.27 163.784 188.27 163.244C188.27 162.596 185.534 160.22 184.922 159.68C184.67 159.428 184.274 159.14 184.274 158.78C184.274 158.204 186.038 156.476 186.686 156.476C187.586 156.476 191.87 161.228 192.662 162.128C193.31 162.92 196.478 166.808 196.478 167.6C196.478 168.464 194.462 169.94 193.67 169.94C193.238 169.94 192.95 169.4 192.77 169.04C191.834 167.528 191.546 166.916 190.79 166.916C190.682 166.916 172.934 169.112 170.918 169.364C169.694 169.508 169.694 169.436 169.298 169.976C169.19 170.12 169.082 170.264 168.866 170.264C168.434 170.264 168.182 169.184 167.894 167.816C167.822 167.384 167.75 166.952 167.606 166.484C167.57 166.304 167.498 166.124 167.498 165.944C167.498 165.548 167.822 165.512 168.29 165.512H168.902C171.35 165.512 171.458 165.368 171.998 164.36C173.33 161.84 179.666 148.7 180.35 146.468C180.458 146.18 180.566 145.748 180.962 145.748Z" fill="black"/>
</g>
<path d="M248.16 232.523H246.422V240.604H248.16V232.523Z" fill="#919988"/>
<path d="M248.142 216.722H246.422V232.525H248.142V216.722Z" fill="#2642A8"/>
<path d="M246.834 232.523H234.113V240.604H246.834V232.523Z" fill="#DEE4D9"/>
<path d="M246.816 216.722H234.149V232.525H246.816V216.722Z" fill="#465DC5"/>
<path d="M266.829 216.722H259.967V232.525H266.829V216.722Z" fill="#2642A8"/>
<path d="M266.829 232.523H259.949V240.604H266.829V232.523Z" fill="#919988"/>
<path d="M260.235 216.722H247.568V232.525H260.235V216.722Z" fill="#465DC5"/>
<path d="M260.253 232.523H247.532V240.604H260.253V232.523Z" fill="#3EC4D3"/>
<path d="M260.253 232.523H247.532V240.604H260.253V232.523Z" fill="#DEE4D9"/>
<path d="M266.865 213.73H259.77V223.065H266.865V213.73Z" fill="#EEAC71"/>
<path d="M234.077 213.73H227.179V223.065H234.077V213.73Z" fill="#EEAC71"/>
<path d="M273.959 213.73H266.865V223.065H273.959V213.73Z" fill="#BF8051"/>
<path d="M273.959 197.694H266.865V213.748H273.959V197.694Z" fill="#3897A5"/>
<path d="M227 197.694H266.865V213.73H259.77V217.098H237.75V221.828H234.149L234.077 213.73H227V197.694Z" fill="#3EC4D3"/>
<path d="M259.519 166H230.78V178.685H259.519V166Z" fill="#665447"/>
<path d="M259.519 197.73H230.78V178.703H233.271V174.098H255.416L255.541 178.577H259.519V197.73Z" fill="#EEAC71"/>
<path d="M270.717 166H259.519V197.73H270.717V166Z" fill="#594131"/>
<path d="M270.717 197.731H259.393V190.259H263.747V194.004H270.717V197.731Z" fill="#BA8054"/>
<path d="M241.118 182.68H234.525V186.031H241.118V182.68Z" fill="#FEFFFA"/>
<path d="M241.118 182.68H237.822V186.031H241.118V182.68Z" fill="#464C7B"/>
<path d="M249.207 186.035H255.801V182.685H249.207V186.035Z" fill="#FEFFFA"/>
<path d="M249.207 186.035H252.504V182.685H249.207V186.035Z" fill="#464C7B"/>
<path d="M248.464 186.909H241.495V189.274H248.464V186.909Z" fill="#CA976B"/>
<path d="M249.378 190.761V194.99H240.616V190.761H238.001L237.875 197.731H238.001H240.616H249.378H251.994V190.761H249.378Z" fill="#665447"/>
<path d="M20.4444 176.242H34.1249V233.588H20.4444V176.242Z" fill="#6D9E46"/>
<path d="M6.00008 233.289H20.4443V255.436H6.00008V233.289Z" fill="#6D9E46"/>
<path d="M20.4111 233.289H34.2577V255.436H20.4111V233.289Z" fill="#588233"/>
<path d="M20.4444 176.242H34.1249V183.481H20.4444V176.242Z" fill="#5B8933"/>
<path d="M33.4276 118H86.6223V176.242H33.4276V118Z" fill="#6ECF32"/>
<path d="M12.8403 118H33.4275V176.242H12.8403V118Z" fill="#6D9E46"/>
<path d="M66.5996 132.145H79.2175V147.22H66.5996V132.145Z" fill="#3F3838"/>
<path d="M40.2678 132.145H52.8857V147.22H40.2678V132.145Z" fill="#3F3838"/>
<path d="M52.7863 147.188H66.6328V166.247H52.7863V147.188Z" fill="#3F3838"/>
<path d="M66.5331 154.426H73.8383V175.179H66.5331V154.426Z" fill="#3F3838"/>
<path d="M45.7136 154.426H52.7863V175.179H45.7136V154.426Z" fill="#3F3838"/>
<path d="M33.5935 176.109H80.7781V233.288H33.5935V176.109Z" fill="#6ECF32"/>
<path d="M74.6351 233.289H93.9938V255.436H74.6351V233.289Z" fill="#6ECF32"/>
<path d="M74.768 233.289H93.9938V241.756H74.768V233.289Z" fill="#98E464"/>
<path d="M67.0976 233.289H74.6351V255.436H67.0976V233.289Z" fill="#6D9E46"/>
<path d="M47.7389 233.289H67.0975V255.436H47.7389V233.289Z" fill="#6ECF32"/>
<path d="M47.8717 233.289H67.0975V241.756H47.8717V233.289Z" fill="#98E464"/>
<path d="M33.2616 233.289H47.7058V255.436H33.2616V233.289Z" fill="#6D9E46"/>
<path d="M33.4275 176.242H80.7781V183.481H33.4275V176.242Z" fill="#5DB226"/>
<path d="M19.913 133.44H26.5873V141.742H19.913V133.44Z" fill="#51814C"/>
<path d="M19.913 156.053H26.5873V164.355H19.913V156.053Z" fill="#51814C"/>
<path d="M14.1354 126.069H19.4482V133.673H14.1354V126.069Z" fill="#51814C"/>
<path d="M39.2716 119.162H46.6432V126.766H39.2716V119.162Z" fill="#98E464"/>
<path d="M73.4065 119.162H80.0807V129.755H73.4065V119.162Z" fill="#98E464"/>
<path d="M78.2544 119.162H85.3936V126.301H78.2544V119.162Z" fill="#98E464"/>
<path d="M75.0004 147.52H81.0105V154.194H75.0004V147.52Z" fill="#98E464"/>
<path d="M39.338 169.701H44.7505V175.113H39.338V169.701Z" fill="#98E464"/>
<path d="M33.9257 164.288H39.3381V169.701H33.9257V164.288Z" fill="#98E464"/>
<path d="M33.7264 183.713H41.0979V191.084H33.7264V183.713Z" fill="#98E464"/>
<path d="M74.303 184.178H80.0807V189.955H74.303V184.178Z" fill="#98E464"/>
<path d="M66.6991 189.922H74.3031V204.665H66.6991V189.922Z" fill="#98E464"/>
<path d="M60.0248 204.699H66.6991V211.373H60.0248V204.699Z" fill="#98E464"/>
<path d="M73.8713 213.896H80.0807V220.106H73.8713V213.896Z" fill="#98E464"/>
<path d="M40.7659 210.576H47.4402V225.784H40.7659V210.576Z" fill="#98E464"/>
<path d="M34.5565 225.784H40.7659V231.994H34.5565V225.784Z" fill="#98E464"/>
<defs>
<filter id="filter0_d_612_355" x="40" y="57.0303" width="220.235" height="186.97" filterUnits="userSpaceOnUse" color-interpolation-filters="sRGB">
<feFlood flood-opacity="0" result="BackgroundImageFix"/>
<feColorMatrix in="SourceAlpha" type="matrix" values="0 0 0 0 0 0 0 0 0 0 0 0 0 0 0 0 0 0 127 0" result="hardAlpha"/>
<feOffset/>
<feGaussianBlur stdDeviation="5"/>
<feComposite in2="hardAlpha" operator="out"/>
<feColorMatrix type="matrix" values="0 0 0 0 0 0 0 0 0 0 0 0 0 0 0 0 0 0 0.25 0"/>
<feBlend mode="normal" in2="BackgroundImageFix" result="effect1_dropShadow_612_355"/>
<feBlend mode="normal" in="SourceGraphic" in2="effect1_dropShadow_612_355" result="shape"/>
</filter>
</defs>
</svg>
