<svg width="83" height="79" viewBox="0 0 83 79" fill="none" xmlns="http://www.w3.org/2000/svg">
<g filter="url(#filter0_d_395_17082)">
<path fill-rule="evenodd" clip-rule="evenodd" d="M48.3545 19.4515H34.5599H19.4515C19.4515 11.4702 25.9217 5 33.903 5C41.8826 5 48.3517 11.4673 48.3545 19.4462C48.3574 11.4673 54.8264 5 62.806 5C70.7873 5 77.2575 11.4702 77.2575 19.4515H63.4629L77.2575 19.4516C77.2575 47.7764 41.4178 59.6266 41.4178 59.6266C41.4178 59.6266 42.5739 51.2448 38.2385 45.7532C36.1435 43.0996 33.492 41.2571 30.8464 39.4187C25.1354 35.4502 19.4515 31.5006 19.4515 19.4516L48.3545 19.4515Z" fill="#009FAD"/>
<path fill-rule="evenodd" clip-rule="evenodd" d="M19.2221 53.7312H12.4343H5C5 49.8038 8.18373 46.6201 12.1111 46.6201C16.0361 46.6201 19.2184 49.8001 19.2221 53.7243C19.2259 49.8002 22.4082 46.6203 26.3331 46.6203C30.2605 46.6203 33.4442 49.804 33.4442 53.7313H26.6564H19.2221L19.2221 53.7312ZM15.8088 73.5002C15.8088 73.5002 33.4442 67.6691 33.4442 53.7315L19.2221 53.7314L5 53.7315C5 59.6603 7.7968 61.6038 10.607 63.5566C11.9088 64.4612 13.2135 65.3678 14.2444 66.6735C16.3777 69.3757 15.8088 73.5002 15.8088 73.5002Z" fill="#009FAD"/>
</g>
<defs>
<filter id="filter0_d_395_17082" x="0" y="0" width="82.2574" height="78.5" filterUnits="userSpaceOnUse" color-interpolation-filters="sRGB">
<feFlood flood-opacity="0" result="BackgroundImageFix"/>
<feColorMatrix in="SourceAlpha" type="matrix" values="0 0 0 0 0 0 0 0 0 0 0 0 0 0 0 0 0 0 127 0" result="hardAlpha"/>
<feOffset/>
<feGaussianBlur stdDeviation="2.5"/>
<feComposite in2="hardAlpha" operator="out"/>
<feColorMatrix type="matrix" values="0 0 0 0 0 0 0 0 0 0 0 0 0 0 0 0 0 0 0.5 0"/>
<feBlend mode="normal" in2="BackgroundImageFix" result="effect1_dropShadow_395_17082"/>
<feBlend mode="normal" in="SourceGraphic" in2="effect1_dropShadow_395_17082" result="shape"/>
</filter>
</defs>
</svg>
