<svg width="75" height="73" viewBox="0 0 75 73" fill="none" xmlns="http://www.w3.org/2000/svg">
<g clip-path="url(#clip0_626_368)">
<path d="M57.8437 6H17.1562C10.9948 6 6 10.9603 6 17.0791V55.9209C6 62.0397 10.9948 67 17.1562 67H57.8437C64.0052 67 69 62.0397 69 55.9209V17.0791C69 10.9603 64.0052 6 57.8437 6Z" fill="#330000"/>
<path d="M36.5287 42.6078H26.7661L24.7798 48.7354C24.7527 48.8471 24.6872 48.946 24.5947 49.015C24.5021 49.0839 24.3882 49.1186 24.2726 49.1131H19.3279C19.0459 49.1131 18.9473 48.9593 19.0321 48.6515L27.4845 24.4767C27.5691 24.2249 27.6537 23.9381 27.7382 23.6163C27.8487 23.0563 27.9053 22.4872 27.9072 21.9166C27.9015 21.8766 27.9052 21.836 27.918 21.7977C27.9309 21.7595 27.9525 21.7247 27.9812 21.6962C28.0099 21.6677 28.0449 21.6462 28.0834 21.6335C28.1219 21.6207 28.1629 21.617 28.203 21.6227H34.9227C35.1196 21.6227 35.2323 21.6927 35.2608 21.8326L44.8545 48.6934C44.939 48.9734 44.8544 49.1134 44.6008 49.1131H39.1067C39.0123 49.1235 38.9174 49.0994 38.8396 49.0454C38.7618 48.9913 38.7065 48.911 38.6841 48.8194L36.5287 42.6078ZM28.2875 37.3196H34.965C34.7959 36.7602 34.5987 36.1306 34.3733 35.4309C34.1475 34.7318 33.908 33.9833 33.6549 33.1855C33.4013 32.3881 33.1477 31.5906 32.8941 30.7932C32.6406 29.9958 32.4081 29.2263 32.1968 28.4848C31.9855 27.7438 31.7953 27.0653 31.6263 26.4493H31.584C31.3461 27.5828 31.0499 28.7035 30.6965 29.8069C30.3016 31.066 29.9001 32.3531 29.492 33.6681C29.0832 34.9836 28.6817 36.2008 28.2875 37.3196Z" fill="#FF9A00"/>
<path d="M50.5593 26.0714C50.1283 26.0885 49.6984 26.0152 49.2979 25.8561C48.8973 25.697 48.5351 25.4557 48.2349 25.148C47.9355 24.827 47.703 24.4504 47.5507 24.0398C47.3983 23.6293 47.3292 23.1929 47.3473 22.7557C47.3319 22.3229 47.4087 21.8917 47.5726 21.4903C47.7364 21.0889 47.9837 20.7264 48.2982 20.4264C48.6097 20.1294 48.9774 19.8968 49.38 19.7419C49.7826 19.587 50.2122 19.513 50.6438 19.524C51.6582 19.524 52.4541 19.8248 53.0317 20.4264C53.3232 20.739 53.5498 21.1056 53.6985 21.5054C53.8471 21.9051 53.9149 22.33 53.898 22.7557C53.9157 23.1946 53.8444 23.6325 53.6883 24.0435C53.5322 24.4544 53.2945 24.83 52.9894 25.148C52.6705 25.4602 52.2899 25.7034 51.8717 25.8623C51.4535 26.0212 51.0066 26.0924 50.5593 26.0714ZM47.6431 48.6932V28.6315C47.6431 28.3797 47.7554 28.2537 47.9812 28.2537H53.1796C53.4048 28.2537 53.5175 28.3797 53.5177 28.6315V48.6932C53.5177 48.9732 53.405 49.1131 53.1796 49.1129H48.0235C47.77 49.1129 47.6432 48.973 47.6431 48.6932Z" fill="#FF9A00"/>
</g>
<defs>
<clipPath id="clip0_626_368">
<rect width="63" height="61" fill="white" transform="translate(6 6)"/>
</clipPath>
</defs>
</svg>
