<svg width="400" height="400" viewBox="0 0 400 400" fill="none" xmlns="http://www.w3.org/2000/svg">
<path d="M296.875 54H103.125C73.7849 54 50 77.7849 50 107.125V293.375C50 322.715 73.7849 346.5 103.125 346.5H296.875C326.215 346.5 350 322.715 350 293.375V107.125C350 77.7849 326.215 54 296.875 54Z" fill="#330000"/>
<path d="M195.375 229.535H148.887L139.428 258.918C139.299 259.454 138.987 259.928 138.547 260.258C138.106 260.589 137.563 260.756 137.013 260.729H113.467C112.124 260.729 111.654 259.991 112.058 258.516L152.308 142.595C152.711 141.388 153.113 140.013 153.516 138.47C154.042 135.785 154.312 133.056 154.321 130.319C154.293 130.128 154.311 129.933 154.372 129.75C154.433 129.566 154.536 129.4 154.673 129.263C154.81 129.126 154.976 129.023 155.16 128.962C155.343 128.901 155.538 128.883 155.729 128.91H187.728C188.665 128.91 189.202 129.246 189.338 129.917L235.022 258.717C235.424 260.059 235.022 260.73 233.814 260.729H207.651C207.202 260.779 206.75 260.664 206.38 260.404C206.009 260.145 205.746 259.76 205.639 259.321L195.375 229.535ZM156.132 204.178H187.929C187.124 201.496 186.185 198.477 185.112 195.122C184.036 191.77 182.896 188.181 181.691 184.355C180.483 180.531 179.275 176.707 178.068 172.883C176.86 169.06 175.754 165.37 174.747 161.815C173.741 158.262 172.835 155.008 172.031 152.054H171.829C170.696 157.49 169.286 162.863 167.603 168.154C165.723 174.192 163.811 180.363 161.867 186.669C159.921 192.977 158.009 198.813 156.132 204.178Z" fill="#FF9A00"/>
<path d="M262.188 150.243C260.135 150.326 258.089 149.974 256.181 149.211C254.274 148.448 252.549 147.291 251.119 145.816C249.694 144.277 248.586 142.471 247.861 140.502C247.136 138.533 246.807 136.441 246.893 134.345C246.82 132.269 247.185 130.202 247.965 128.277C248.746 126.352 249.923 124.614 251.421 123.175C252.904 121.751 254.655 120.636 256.572 119.893C258.49 119.151 260.535 118.795 262.59 118.848C267.421 118.848 271.211 120.291 273.961 123.175C275.349 124.674 276.428 126.432 277.136 128.349C277.844 130.266 278.167 132.303 278.087 134.345C278.171 136.449 277.831 138.549 277.088 140.52C276.344 142.49 275.213 144.291 273.76 145.816C272.241 147.313 270.429 148.479 268.437 149.241C266.446 150.003 264.318 150.344 262.188 150.243ZM248.301 258.717V162.519C248.301 161.312 248.836 160.708 249.911 160.708H274.666C275.738 160.708 276.275 161.312 276.276 162.519V258.717C276.276 260.06 275.739 260.731 274.666 260.73H250.113C248.906 260.73 248.302 260.059 248.301 258.717Z" fill="#FF9A00"/>
</svg>
