<svg width="196" height="113" viewBox="0 0 196 113" fill="none" xmlns="http://www.w3.org/2000/svg">
<g clip-path="url(#clip0_240_9068)">
<path d="M29.4294 31.1371C28.7489 30.6792 27.9088 30.5931 27.2212 30.7189C25.7245 30.9925 25.1982 31.864 24.9907 32.3596C24.3718 33.8429 24.7771 36.3424 25.5608 37.813C26.1131 38.8527 26.9502 40.2911 28.6711 41.2666C29.1797 41.5534 30.415 41.9379 31.5893 41.8437C31.6889 42.0699 31.7688 42.2532 31.7688 42.2532C32.1568 43.0056 33.0605 44.3157 33.0605 44.3157C33.8523 45.4175 34.691 46.4663 35.6725 47.482C35.3872 48.3158 35.1014 49.1502 34.8156 49.9851C34.5694 50.6972 34.3228 51.419 33.9327 52.0659C32.8774 53.8069 30.6372 54.7289 28.8105 55.6223C28.4987 55.7751 28.1524 55.93 27.7893 56.0849C27.9576 56.2173 28.7276 56.825 28.7276 56.825C33.9658 60.6891 40.1819 62.7913 46.4184 62.8005C48.806 62.8005 51.2288 62.4969 53.4502 61.496C55.5099 60.5674 57.3997 58.9964 58.5851 56.8652C57.477 56.4939 56.4039 56.123 55.6385 55.8001C54.5929 55.4604 53.6308 54.6178 53.1797 53.6118C53.1797 53.6118 53.1664 53.5818 53.1481 53.5395C56.2641 53.1524 58.9956 51.8636 61.577 49.6163C64.8481 46.7684 66.1784 42.3913 66.5619 37.5843C66.7826 34.8123 66.9571 31.8009 67.2632 28.7884C67.2632 28.7884 69.6255 13.7715 53.4365 13.7715C28.2628 13.7715 29.4299 31.1376 29.4299 31.1376L29.4294 31.1371Z" fill="#FCE0CD"/>
<path d="M31.2842 4.27764C28.5227 6.38391 26.2642 9.08717 24.3581 12.0415L23.5144 16.1171C21.9221 20.5079 22.1489 25.5757 24.1023 29.8091L25.1581 32.0264C25.4459 31.541 26.0221 30.9379 27.2213 30.7188C27.9089 30.593 28.749 30.6791 29.4295 31.137L33.857 31.6535C34.3849 29.2141 37.6381 28.3574 39.7903 27.5261C40.4855 27.1817 41.2046 26.8073 41.9304 26.4019H45.3921C51.1165 27.2622 56.7544 22.7038 59.0348 17.7389L60.8259 16.1176C63.3916 19.1626 65.1171 22.958 65.7442 26.9459C65.821 27.4344 65.8815 27.9249 65.9298 28.417H67.9752C68.9735 22.8556 69.0717 17.2387 67.2633 12.8474C65.1339 7.6767 60.6962 3.89102 54.7313 2.73575L50.9914 1.70682C46.5313 -0.580793 40.9783 -0.44479 36.3906 1.37317C35.8973 1.56877 35.4116 1.78373 34.9346 2.01652C33.6271 2.65476 32.4142 3.41628 31.2852 4.27764H31.2842Z" fill="#FFDA71"/>
<path d="M126.453 65.2577C127.951 63.6903 128.495 62.8453 129.321 61.2621C129.945 60.0682 130.13 58.7091 130.273 57.3771C130.995 50.6422 131.325 41.2493 131.035 33.8027C130.672 22.7523 133.546 14.7383 138.077 10.351C140.808 7.70633 146.962 4.10352 153.876 4.10352C158.029 4.10352 162.886 4.51509 167.511 8.5794C173.096 12.2851 176.295 16.9352 176.931 25.4902C177.018 26.6612 177.037 29.3996 177.069 33.168C176.778 40.9075 176.942 51.3049 177.664 58.3047C177.807 59.6892 177.993 61.1017 178.616 62.3425C179.442 63.9878 180.946 65.1584 182.401 66.2719L126.452 65.2582L126.453 65.2577Z" fill="#645D5C"/>
<path d="M53.9958 43.6399C53.9159 43.6842 53.8346 43.7239 53.7522 43.7636C53.6138 43.8314 53.7679 43.7331 53.7974 43.7448C53.7771 43.7366 53.682 43.7886 53.6591 43.7968C53.4521 43.8706 53.24 43.9292 53.0254 43.9766C52.9202 44 52.8144 44.0204 52.7081 44.0382C52.6837 44.0423 52.5042 44.0703 52.6405 44.0504C52.7767 44.0306 52.5957 44.055 52.5708 44.0576C52.3379 44.082 52.1034 44.0952 51.8685 44.0958C51.6523 44.0963 51.4377 44.083 51.2221 44.0642C51.0471 44.0489 51.2567 44.0555 51.2597 44.0713C51.2587 44.0647 51.1219 44.0489 51.1082 44.0463C51.0105 44.0285 50.9134 44.0076 50.8168 43.9832C50.7247 43.9598 50.6337 43.9333 50.5437 43.9022C50.5208 43.894 50.3016 43.8095 50.4201 43.8579C50.5248 43.9007 50.3489 43.8248 50.3311 43.8166C50.0824 43.7025 49.8373 43.5818 49.586 43.4738C49.0983 43.2645 48.4728 43.3118 48.1946 43.8395C47.9637 44.2771 48.0375 45.0096 48.5598 45.2332C49.1166 45.4721 49.6527 45.7818 50.2411 45.9382C50.7659 46.0777 51.3258 46.1343 51.8685 46.1328C52.9446 46.1302 54.0715 45.9219 55.022 45.3982C55.4889 45.141 55.6791 44.4584 55.3872 44.0046C55.0826 43.5309 54.4947 43.3638 53.9958 43.6388V43.6399Z" fill="#EFC0A0"/>
<path d="M48.1134 34.1403C48.3484 33.1541 48.0112 30.9429 46.1707 30.8716C43.7546 31.0422 43.7993 33.7399 44.6944 34.9512C45.4272 35.9434 47.4137 36.247 48.1139 34.1397L48.1134 34.1403Z" fill="#645D5C"/>
<path d="M62.4917 33.6643C62.7038 32.6761 62.389 30.4568 60.7026 30.3799C58.4904 30.5444 58.5392 33.2497 59.3626 34.4681C60.0364 35.4655 61.8566 35.7757 62.4917 33.6643Z" fill="#645D5C"/>
<path d="M53.402 37.17C53.5774 37.4465 53.7468 37.7267 53.9126 38.0094C54.0906 38.313 54.2772 38.6202 54.4196 38.9431L54.3169 38.6996C54.3474 38.7745 54.3708 38.8489 54.3825 38.9288L54.3464 38.6578C54.3494 38.696 54.3494 38.7297 54.3459 38.7679L54.382 38.4969C54.3789 38.5203 54.3728 38.5432 54.3647 38.5651L54.4674 38.3217C54.4588 38.3441 54.4476 38.365 54.4339 38.3848L54.593 38.1785C54.5361 38.2493 54.4689 38.3099 54.3972 38.3655L54.6032 38.206C54.5422 38.2498 54.4791 38.2865 54.4105 38.3171L54.6535 38.2142C54.5691 38.2473 54.4832 38.2672 54.3932 38.2799L54.6637 38.2437C54.5066 38.2641 54.3484 38.2789 54.1928 38.3069C53.9553 38.3492 53.7025 38.5743 53.5851 38.775C53.4574 38.9935 53.4035 39.3154 53.4823 39.5599C53.5622 39.8065 53.7147 40.0444 53.9497 40.1687C54.204 40.3031 54.4506 40.3215 54.7334 40.2715C54.7573 40.2675 54.7812 40.2639 54.8051 40.2603L54.5345 40.2965C54.7446 40.2705 54.9622 40.2614 55.1636 40.1906C55.4698 40.0831 55.7454 39.9201 55.9728 39.6853C56.3277 39.3185 56.4305 38.8779 56.3445 38.3863C56.3018 38.1413 56.1823 37.9157 56.0689 37.6966C55.7927 37.1638 55.4805 36.6473 55.1591 36.141C55.0187 35.9194 54.8071 35.7437 54.5513 35.6729C54.3077 35.6057 53.9838 35.6362 53.7676 35.7758C53.3186 36.0656 53.0974 36.6886 53.4025 37.1694L53.402 37.17Z" fill="#EFC0A0"/>
<path d="M26.1426 108.951H22.5816C20.1716 110.098 17.7035 111.043 15.6026 111.567C11.465 112.599 7.33448 111.513 5.6959 110.579C2.29923 108.588 0.840173 104.69 1.04055 99.5891C1.20532 95.3872 2.21329 90.8355 3.18107 87.4965C4.71591 82.3671 6.99934 74.2624 9.60571 69.1635C11.6008 65.2602 13.3029 63.4748 14.6471 62.3461C17.7991 59.6998 22.2699 57.5299 27.3311 55.7231C27.5975 55.933 27.7527 56.0558 27.7527 56.0558L28.7276 56.8254C33.9657 60.6896 40.1819 62.7918 46.4183 62.8009C48.806 62.8009 51.2288 62.4973 53.4502 61.4964C55.6711 60.4955 57.6941 58.7473 58.8501 56.3558C59.409 56.4979 60.303 56.7281 60.685 56.8407C64.785 58.0484 70.3654 60.1471 73.2327 63.024C74.0138 63.808 75.9245 65.7762 77.5997 68.7739C78.5405 70.8165 79.5276 73.668 80.0463 75.3846C81.2669 79.4239 84.9997 100.249 85.2998 108.952H26.1426V108.951Z" fill="white"/>
<path d="M57.9724 55.84C57.0483 57.7033 55.5989 59.1927 53.7798 60.1946C51.6418 61.3718 49.1763 61.7488 46.7647 61.7793C42.1638 61.8384 37.57 60.6918 33.4847 58.584C31.6793 57.6524 30.028 56.5638 28.4713 55.3352C28.0401 54.9949 27.4537 54.9139 27.0331 55.3352C26.6802 55.6887 26.5993 56.4334 27.0331 56.7757C30.5671 59.5651 34.5344 61.6846 38.9029 62.8327C43.7841 64.1153 49.5572 64.4938 54.2187 62.2561C56.5748 61.1248 58.5648 59.2156 59.7289 56.8679C60.3097 55.6974 58.5557 54.6644 57.9724 55.84Z" fill="#D9D9D9"/>
<path d="M29.5138 53.9061C25.959 55.0624 22.4346 56.4036 19.132 58.1681C16.6966 59.4695 14.2687 61.0262 12.4058 63.0937C10.2923 65.4394 8.78082 68.297 7.55163 71.1872C6.20954 74.3438 5.12377 77.6028 4.10716 80.8771C3.16124 83.9252 2.18633 86.9855 1.4423 90.0907C0.563511 93.7561 -0.143387 97.6345 0.0249465 101.419C0.158189 104.412 0.95256 107.469 3.01935 109.723C5.06833 111.957 8.06274 112.768 10.9987 112.967C14.5794 113.21 17.9532 112.069 21.2014 110.685C24.2283 109.394 27.1897 107.836 29.8693 105.917C30.4485 105.502 31.0146 105.066 31.5607 104.608C32.5652 103.765 31.1198 102.33 30.1225 103.167C27.862 105.064 25.2144 106.539 22.573 107.83C19.8156 109.176 16.7474 110.556 13.666 110.886C10.9681 111.176 7.58571 110.88 5.36839 109.137C3.3372 107.54 2.39382 104.986 2.1375 102.481C1.78202 99.0058 2.35466 95.4269 3.08546 92.0355C3.73438 89.0225 4.65335 86.0773 5.54587 83.13C6.48925 80.0142 7.47331 76.9055 8.64605 73.8676C9.75319 70.9993 11.0719 68.1641 12.9047 65.6824C14.5515 63.4523 16.8049 61.829 19.189 60.4648C22.6116 58.5058 26.316 57.0882 30.0564 55.8718C31.2963 55.4684 30.7659 53.5001 29.5158 53.9071L29.5138 53.9061Z" fill="#D9D9D9"/>
<path d="M27.9225 88.0089C28.4783 86.0595 28.7382 84.7907 29.3988 83.6629C30.391 81.9702 36.832 77.0563 37.0288 76.9045C37.7245 76.3686 38.6068 75.9183 39.7435 76.5688C40.3471 76.9147 40.848 77.7185 40.5587 78.2666C40.46 78.453 40.2942 79.2379 40.1549 79.9618C42.1057 78.7561 44.676 77.2325 45.8197 76.6009C46.8094 76.0549 48.1205 75.8404 48.7272 76.5454C49.2988 77.2101 49.3893 78.6929 48.3951 79.3943C48.2522 79.4952 48.0884 79.6113 47.9074 79.7407C48.8696 80.0178 49.2652 80.1946 49.6538 80.4706C49.7321 80.5262 49.937 80.7574 49.937 80.7574C50.6256 81.5689 50.1801 82.72 49.4127 83.343L49.279 83.4332C50.7634 84.4514 50.1745 85.3194 49.7504 85.8135C49.5917 86.003 49.2891 86.2816 48.925 86.5928C49.2174 86.8694 49.4758 87.1134 49.4758 87.1134C50.0332 87.3834 49.8811 87.9462 49.7656 88.2615C49.6278 88.6385 49.4493 89.0898 49.2515 89.5518C49.0908 90.4896 49.2515 91.4574 49.0882 92.3931C48.6839 94.7087 46.4427 96.2312 44.2508 97.0712C42.0589 97.9112 38.3236 98.7949 35.2656 99.5147L31.9971 102.307C31.1997 102.989 29.9862 102.85 29.3714 102C27.8737 99.9293 26.555 97.7288 25.4346 95.431C25.0079 94.5564 24.6041 93.6431 24.5396 92.6809C25.5816 91.7869 26.5407 90.7962 27.4002 89.725C27.6041 89.0974 27.774 88.5285 27.922 88.0079L27.9225 88.0089Z" fill="#FCE0CD"/>
<path d="M66.2883 94.0548C65.6247 97.2272 64.961 100.4 64.2973 103.573C64.1849 104.11 64.455 104.674 65.0078 104.826C65.5128 104.965 66.1459 104.655 66.2588 104.114C66.9225 100.942 67.5862 97.7692 68.2498 94.5963C68.3622 94.0584 68.0922 93.495 67.5394 93.3432C67.0344 93.2042 66.4012 93.5139 66.2883 94.0548Z" fill="#D9D9D9"/>
<path d="M58.0801 57.2106C62.5011 58.3225 67.0715 59.7574 70.8567 62.3741C72.5385 63.5365 73.9482 65.1543 75.1383 66.8042C76.0221 68.0297 76.7626 69.294 77.3246 70.6973C77.8311 71.9611 78.2898 73.2447 78.7129 74.539C79.6171 77.3049 80.1374 80.188 80.6811 83.042C81.4988 87.3335 82.2245 91.6439 82.8643 95.9654C83.5005 100.263 84.126 104.604 84.2822 108.952C84.329 110.26 86.3637 110.266 86.3164 108.952C86.1735 104.973 85.6222 101 85.0638 97.0621C84.4266 92.5694 83.6861 88.09 82.8557 83.6294C82.3181 80.7417 81.8416 77.7822 80.9826 74.9679C80.1608 72.2754 79.2647 69.4249 77.7492 67.0385C76.5337 65.1242 75.0671 63.2288 73.343 61.7389C71.0662 59.7707 68.2661 58.4784 65.4858 57.395C63.2441 56.5214 60.952 55.8332 58.6213 55.2464C57.3514 54.927 56.8093 56.8912 58.0807 57.2111L58.0801 57.2106Z" fill="#D9D9D9"/>
<path d="M168.843 33.9103C169.489 33.4916 170.279 33.4244 170.923 33.5538C172.324 33.835 172.804 34.6622 172.99 35.1313C173.547 36.5341 173.126 38.8747 172.366 40.2424C171.83 41.2097 171.021 42.5468 169.389 43.4341C168.875 43.7123 167.585 44.0811 166.424 43.9012C167.285 43.3369 165.217 46.2255 165.217 46.2255C164.528 47.15 163.804 48.0328 162.977 48.887L162.922 49.4061C163.736 50.568 163.912 52.1379 164.676 53.4047C165.667 55.0398 167.772 55.9057 169.487 56.7452C169.77 56.8837 170.083 57.0238 170.411 57.1644C170.411 59.262 165.217 64.9502 152.951 64.9502C143.307 64.9502 141.498 58.9227 141.498 57.8225C142.547 57.471 143.567 57.1196 144.291 56.8134C145.273 56.494 146.177 55.703 146.601 54.7586C146.609 54.7397 146.627 54.6878 146.651 54.6114C143.542 54.2676 140.862 52.9967 138.354 50.735C135.329 48.0073 134.151 43.8753 133.87 39.3551C133.747 37.3756 133.651 35.2668 133.508 33.1254C133.812 31.9946 134.526 30.0809 135.23 29.0152H146.148C148.157 28.2945 149.822 26.7016 150.855 24.8312C151.559 23.5557 151.996 22.5003 152.348 20.9885C152.466 20.4817 152.939 20.1388 153.456 20.1974L156.865 20.5861C157.284 20.634 157.628 20.9365 157.736 21.3445C158.278 23.4034 158.911 25.3126 159.491 26.4205C160.797 28.9154 163.08 32.3623 165.44 33.296L168.843 33.9108L168.843 33.9103Z" fill="#FCE0CD"/>
<path d="M144.56 46.9441C145.441 47.4504 146.496 47.6583 147.504 47.6842C148.011 47.6975 148.528 47.6506 149.023 47.5386C149.273 47.4815 149.509 47.3908 149.746 47.291C149.895 47.2278 150.044 47.1631 150.192 47.0964C150.247 47.0715 150.302 47.0465 150.358 47.0215C150.375 47.0139 150.652 46.8983 150.45 46.9808C150.941 46.7806 151.344 46.2942 151.161 45.7277C151.008 45.2535 150.437 44.8007 149.91 45.0161C149.618 45.1353 149.33 45.2642 149.043 45.3926C149.023 45.4012 148.85 45.473 148.963 45.4282C149.075 45.3839 148.908 45.4476 148.888 45.4547C148.798 45.4878 148.707 45.5163 148.614 45.5413C148.514 45.5683 148.413 45.5902 148.311 45.6085C148.267 45.6167 148.212 45.6162 148.17 45.6315C148.227 45.6106 148.362 45.6106 148.224 45.6218C148.01 45.6391 147.797 45.6513 147.582 45.6483C147.374 45.6452 147.169 45.6243 146.962 45.6096C146.814 45.5989 147.146 45.6401 147.001 45.6162C146.95 45.6075 146.9 45.6004 146.849 45.5917C146.736 45.5724 146.624 45.55 146.513 45.524C146.322 45.4797 146.134 45.4257 145.95 45.36C145.914 45.3472 145.723 45.3014 145.877 45.336C146.009 45.365 145.883 45.3391 145.844 45.3197C145.757 45.2769 145.672 45.2336 145.587 45.1852C145.126 44.9204 144.454 45.0615 144.196 45.551C143.94 46.0359 144.068 46.6619 144.561 46.9446L144.56 46.9441Z" fill="#EFC0A0"/>
<path d="M151.248 36.4236C151.044 35.494 151.396 33.4229 153.126 33.3862C155.392 33.5864 155.306 36.1185 154.446 37.2412C153.742 38.1606 151.871 38.4133 151.249 36.4231L151.248 36.4236Z" fill="#645D5C"/>
<path d="M137.755 35.7398C137.572 34.8081 137.904 32.7294 139.488 32.6851C141.563 32.8756 141.473 35.4158 140.68 36.5456C140.031 37.4712 138.317 37.733 137.755 35.7398Z" fill="#645D5C"/>
<path d="M144.539 38.1699C144.231 38.636 143.928 39.1107 143.665 39.6043C143.558 39.8066 143.442 40.0149 143.393 40.24C143.288 40.7168 143.392 41.1533 143.714 41.5221C143.931 41.7692 144.203 41.923 144.502 42.0422C144.696 42.1196 144.908 42.1308 145.113 42.1583L144.842 42.1222C144.873 42.1263 144.903 42.1313 144.933 42.1369C145.205 42.1899 145.472 42.1777 145.717 42.0341C145.928 41.9103 146.129 41.6683 146.184 41.4253C146.243 41.1645 146.23 40.8717 146.081 40.6404C145.944 40.427 145.731 40.2227 145.474 40.1723C145.338 40.1458 145.201 40.1326 145.065 40.1147L145.335 40.1509C145.234 40.1371 145.137 40.1168 145.042 40.0775L145.285 40.1804C145.221 40.1509 145.163 40.1152 145.106 40.073L145.312 40.2324C145.246 40.1789 145.184 40.1208 145.131 40.0536L145.29 40.2599C145.278 40.2411 145.268 40.2212 145.26 40.2003L145.363 40.4438C145.355 40.4229 145.35 40.4015 145.347 40.3791L145.384 40.6501C145.381 40.6144 145.381 40.5828 145.385 40.5472L145.349 40.8182C145.359 40.756 145.377 40.698 145.399 40.6394L145.297 40.8829C145.428 40.5737 145.619 40.2808 145.793 39.9945C145.957 39.7266 146.123 39.4612 146.296 39.1994C146.437 38.9859 146.465 38.6554 146.399 38.4144C146.334 38.1781 146.151 37.9219 145.931 37.8057C145.421 37.5358 144.853 37.6957 144.54 38.1715L144.539 38.1699Z" fill="#EFC0A0"/>
<path d="M195.975 98.2952C195.816 94.6353 195.289 92.307 194.533 89.2502C193.194 83.8417 191.86 80.8251 190.417 76.5291C189.526 73.9384 188.551 71.4302 187.523 69.4192C185.65 65.7532 184.051 64.0763 182.789 63.0168C179.828 60.5316 175.63 58.4936 170.876 56.7974C170.626 56.994 170.48 57.1091 170.48 57.1091L169.565 57.8319C164.645 61.4612 158.807 63.435 152.95 63.4437C150.708 63.4437 148.432 63.1585 146.346 62.2181C144.272 61.2834 142.382 59.6545 141.3 57.4254C140.772 57.5599 139.914 57.7805 139.552 57.8874C135.702 59.0218 130.46 60.9926 127.768 63.6948C127.243 64.221 126.176 65.3167 125.036 66.9289C124.021 67.78 117.541 80.4604 115.739 86.469C115.058 88.7373 113.622 93.613 113.284 97.2622C113.154 98.6716 113.457 100.346 114.047 101.648C115.35 104.523 120.263 106.445 125.009 104.28C125.009 104.28 128.653 102.611 132.022 101.068C132.52 103.524 132.964 105.991 133.355 108.466C133.355 108.466 133.398 108.729 133.474 109.182H192.424C195.278 106.782 196.168 102.741 195.975 98.2947V98.2952Z" fill="#FFDA71"/>
<path d="M113.908 93.4368C114.965 93.5081 116.376 93.3263 117.424 93.1694C118.821 92.9605 120.944 92.6213 122.323 92.3136L124.508 91.5287C127.114 90.0388 128.924 87.6615 128.759 84.1473C128.725 83.4062 128.551 81.9891 128.088 80.8323C127.419 79.1193 126.091 77.586 124.571 76.4863C123.045 75.382 121.366 74.5063 119.764 73.5166C118.977 73.0302 118.159 72.5325 117.242 72.4108C116.325 72.289 115.276 72.6492 114.882 73.4871C114.305 74.7152 115.353 76.0579 116.331 76.9967C116.855 77.4994 117.382 77.9981 117.913 78.4927C115.771 79.7173 112.881 80.4212 110.392 80.1268L110.411 80.0738C108.072 79.7713 105.858 79.4254 103.724 79.188C103.006 79.108 102.228 79.2405 101.654 79.6801C100.941 80.2261 100.759 81.3518 101.264 82.096L101.491 82.5178C101.363 82.5545 101.243 82.6059 101.139 82.6747C100.803 82.8993 100.66 83.6196 100.939 83.9848L101.997 85.9342C101.852 85.9902 101.708 86.0834 101.565 86.2251C101.331 86.4578 101.161 87.0034 101.441 87.5133C101.652 87.8983 102.28 88.4551 102.745 88.6538L106.231 90.0851C106.219 90.1152 106.212 90.1472 106.207 90.1793C106.141 90.5828 106.372 91.0208 106.719 91.2358C107.687 91.8353 108.428 92.1409 109.948 92.5994C111.589 93.095 112.792 93.2977 114.673 93.4521" fill="#FCE0CD"/>
<path d="M157.922 102.686C157.404 102.216 154.995 100.023 154.487 99.4884C152.845 97.758 151.998 94.1634 154.122 93.003C154.539 92.7977 155.068 92.7122 155.299 92.3092C155.429 92.0821 155.428 91.8065 155.466 91.5477C155.561 90.9105 155.943 90.3334 156.466 89.961C156.989 89.5887 157.274 88.9698 157.249 88.328C157.236 87.9857 157.237 87.6882 157.244 87.624C157.352 86.5813 157.815 85.5692 158.57 84.8387C158.594 84.8163 158.622 84.7929 158.654 84.7689C159.131 84.4154 159.444 83.8852 159.477 83.2923C159.507 82.7493 159.552 82.2154 159.541 82.0219C159.508 81.4631 159.733 80.8681 159.967 80.4535C160.347 79.7816 161.071 79.4831 161.777 79.5122C162.403 79.5376 162.964 79.7674 163.257 80.3521C163.983 81.8003 165.835 87.1712 167.761 90.1607C168.732 89.7669 169.735 89.3493 170.138 89.144C171.767 88.3157 172.936 89.309 173.344 89.9717C173.649 90.4678 173.749 91.1046 173.774 91.6868C173.841 93.3041 173.812 94.6615 173.696 96.3623C173.681 96.5788 173.647 96.8035 173.725 97.0062C173.793 97.1814 173.919 97.3317 174.066 97.4494C174.432 97.7438 174.784 98.0255 175.128 98.2939C175.877 98.8792 176.081 99.9275 175.608 100.754C174.334 102.98 172.958 105.169 171.305 107.067C170.331 108.185 168.68 108.446 167.422 107.663C165.869 106.698 164.246 105.896 162.532 105.042C161.104 104.376 159.357 103.967 158.02 102.775C158.02 102.775 157.985 102.744 157.922 102.686H157.922Z" fill="#FCE0CD"/>
</g>
<defs>
<clipPath id="clip0_240_9068">
<rect width="196" height="113" fill="white"/>
</clipPath>
</defs>
</svg>
