<svg width="134" height="171" viewBox="0 0 134 171" fill="none" xmlns="http://www.w3.org/2000/svg">
<g clip-path="url(#clip0_727_5762)">
<path d="M60.1748 5.67259C59.8799 6.00563 59.5982 6.36555 59.3306 6.75424C57.6111 9.25388 57.3524 12.4866 55.5775 15.0353C53.5278 17.9793 49.6374 21.1525 47.4594 24.8607C41.6797 34.7008 48.6695 44.955 46.2497 56.1616C45.5179 59.5514 44.4865 63.7535 45.9454 67.1588C47.4632 70.7019 51.6908 78.49 46.4999 84.6709C46.4999 84.6709 46.5268 88.2677 47.4058 92.166C50.6185 93.4326 102.006 91.7537 102.006 91.7537C111.482 91.4792 118.998 87.1182 118.998 87.1182C119.988 86.5328 123.686 83.876 123.692 81.8491C123.692 81.7094 121.583 78.7565 121.541 78.188C121.473 77.2687 122.72 76.263 122.64 75.5063C122.322 72.5043 118.386 68.8183 117.831 65.3351C116.534 57.19 121.948 52.4473 121.316 44.1818C120.745 36.7216 119.186 29.2967 113.605 24.2748C108.518 19.6977 108.643 13.3168 105.397 8.35667C104.815 7.46701 103.185 5.68344 102.338 4.93058C95.9619 -0.730049 84.4129 -1.24375 77.948 1.9979C77.3065 2.15263 75.8696 2.38848 75.3001 2.49085C70.9619 1.62524 64.3042 1.00871 60.1753 5.67165L60.1748 5.67259Z" fill="#645D5C"/>
<path d="M90.9157 20.7975C87.9311 19.1522 84.2392 19.3928 80.3694 22.3457C77.1468 24.8043 76.6949 27.4818 74.4482 30.5277C70.7148 35.5888 59.7118 33.7038 58.7049 42.507C58.0591 41.9235 57.5818 41.4909 57.5818 41.4909C56.7926 40.7763 55.622 40.4305 54.5276 40.5946C53.4331 40.7588 52.437 41.4206 51.9361 42.3225C51.5824 42.9551 51.4682 43.6754 51.4028 44.3788C51.1634 47.1492 51.7075 49.9729 52.96 52.4975C53.5695 53.7278 54.3644 54.9052 55.4696 55.801C56.3185 56.4803 57.3574 56.9836 58.4617 57.1539C58.4617 57.1539 58.83 57.2105 59.4372 57.3039C60.3021 60.3733 61.7756 63.8598 64.3863 66.9935C66.5408 69.5799 68.9384 71.5842 71.5402 72.8824C71.5529 74.9518 71.3526 76.9934 70.9975 79.0256C70.6904 80.7837 70.7868 82.355 68.3496 83.2376C68.2715 83.2659 67.9649 83.3682 67.6159 83.4847C69.8494 85.4235 79.5652 93.2007 82.5658 93.2253C85.2344 93.247 95.4383 87.0538 98.5151 83.9192C97.7132 83.605 96.8521 83.2696 96.7636 83.2376C94.3269 82.355 94.4229 80.7837 94.1158 79.0256C93.7941 77.1835 93.5994 75.3344 93.5749 73.464C100.312 71.095 105.826 61.8805 106.757 59.3436C106.893 58.9318 107.168 58.1563 107.416 57.2322L107.927 57.1534C109.031 56.9831 110.07 56.4798 110.919 55.8005C112.024 54.9042 112.819 53.7268 113.428 52.4971C114.68 49.9724 115.225 47.1492 114.985 44.3783C114.92 43.6754 114.806 42.9551 114.452 42.3221C113.951 41.4202 112.955 40.7583 111.861 40.5942C110.679 40.4173 109.409 40.8343 108.625 41.6687C104.326 39.4243 102.248 37.9959 99.6899 34.2302C97.3073 30.722 96.014 25.1095 94.0283 23.0127L90.9162 20.7971L90.9157 20.7975Z" fill="#FCE0CD"/>
<path d="M93.4194 51.1715C95.8119 51.2408 98.3483 51.3394 100.534 50.2507C103.342 48.8525 104.201 45.7514 103.899 43.0424C103.802 42.1692 103.247 41.0758 102.562 40.4012C98.0355 38.7978 92.9035 38.611 88.2652 40.2771C87.0711 40.7059 86.653 42.5343 86.5528 43.0655C86.1813 45.0358 86.8552 47.3624 88.213 49.0068C89.3945 50.437 91.5447 51.1168 93.4194 51.1715Z" fill="white"/>
<path d="M64.4242 40.4017C68.9505 38.7983 74.0825 38.6115 78.7208 40.2776C79.9149 40.7064 80.333 42.5348 80.4332 43.066C80.8047 45.0363 80.1308 47.3628 78.773 49.0073C77.5915 50.4375 75.4408 51.1173 73.5661 51.172C71.1736 51.2413 68.6372 51.3399 66.4512 50.2512C63.6434 48.853 62.7846 45.7519 63.0866 43.0428C63.1839 42.1697 63.7384 41.0763 64.4237 40.4017" fill="white"/>
<path d="M123.322 97.613C121.84 94.9718 119.746 92.4977 118.662 91.7005C113.476 87.8904 106.615 84.9459 99.1144 83.2218C97.1395 86.0101 85.4504 93.2486 82.5654 93.225C78.9596 93.1953 65.6553 81.9689 67.2906 83.1336C59.6362 84.8445 52.6271 87.8243 47.3521 91.7005C46.2676 92.4977 44.4258 94.9718 42.9438 97.613C41.9341 99.6315 40.9572 101.965 40.6431 103.174L56.155 142.849C56.3868 144.422 55.9687 149.248 54.8423 156.565C54.6716 157.675 53.1685 169.087 52.804 170.775C52.804 170.775 52.78 170.887 52.7696 170.999H114.412C114.21 169.734 112.491 158.677 111.842 154.543C111.842 154.543 111.822 154.35 111.789 154.03C113.761 154.378 115.321 154.595 116.24 154.626C119.796 154.747 131.553 157.282 133.592 146.747C134.148 141.824 134.098 138.283 133.67 134.307C132.907 127.211 128.984 108.663 123.322 97.6125" fill="#F4B467"/>
<path d="M113.044 106.849C113.338 111.083 113.135 115.334 112.544 119.534C111.972 123.603 111.103 127.62 110.28 131.643C110.157 132.242 110.453 132.866 111.068 133.035C111.626 133.189 112.333 132.846 112.456 132.245C114.173 123.854 115.899 115.466 115.301 106.849C115.259 106.239 114.812 105.717 114.172 105.717C113.594 105.717 113.001 106.236 113.044 106.849Z" fill="#E59D4E"/>
<path d="M0.0960477 103.124C0.330264 102.468 0.967069 101.992 1.72239 102.019C14.5512 102.474 51.6914 104.307 61.5934 104.797C62.7339 104.853 63.6773 105.699 63.8631 106.829C65.3333 115.771 70.7132 146.826 72.1388 154.899L72.2596 155.585C72.0024 155.725 71.7376 155.845 71.4516 155.947C70.8167 156.177 69.7355 156.315 69.0615 156.276C48.4377 155.087 30.4243 153.206 9.92138 151.988C8.73478 151.918 7.75135 151.04 7.55382 149.865C5.86445 139.819 1.51263 113.335 0.0212678 103.947C-0.024823 103.658 0.0057474 103.378 0.0960477 103.124Z" fill="#C6C6C6"/>
<path d="M69.5009 120.719L66.2407 120.867C67.2378 126.68 68.3703 133.243 69.3951 139.156C69.8645 139.25 70.1504 139.31 70.1504 139.31L73.7907 140.051C75.0041 140.325 78.3104 141.164 81.5316 142.057C82.491 138.944 83.8436 134.576 84.8581 131.274C84.6079 131.2 84.3577 131.127 84.107 131.055C82.8014 128.787 81.4963 126.52 80.1907 124.252C79.5097 123.07 78.7779 121.834 77.6012 121.147C76.4475 120.473 72.8416 120.651 71.5068 120.628L69.5014 120.719H69.5009Z" fill="#FCE0CD"/>
<path d="M70.7561 146.994C70.3446 144.628 69.8823 141.965 69.3955 139.156L70.1508 139.31L73.7929 140.053C75.9032 140.522 84.327 142.712 87.6131 143.911C87.0854 144.339 86.6946 144.656 86.6946 144.656C82.5027 148.059 74.8338 153.849 73.0202 155.117C72.7653 155.295 72.5165 155.451 72.2593 155.584L72.1384 154.9C71.8331 153.171 71.3464 150.388 70.7557 146.994H70.7561Z" fill="#A0A0A0"/>
<path d="M25.8629 139.949C25.6179 138.788 24.6636 137.505 23.0904 137.793C22.1046 137.973 21.4654 138.807 21.3911 139.999C21.2914 141.601 21.6357 143.411 22.2062 146.356C22.6441 148.614 23.2042 151.228 23.7864 153.364C24.7196 155.543 26.0788 156.974 28.0785 157.268C29.3046 157.482 36.9618 158.219 40.4055 158.069C43.3717 157.767 47.8233 157.803 47.7917 154.596C46.6856 154.269 45.7087 153.65 45.2803 153.578C45.1627 153.281 45.0385 152.95 44.9195 152.448C44.4516 150.476 43.2297 146.877 42.0285 146.076C41.0639 145.434 39.415 145.423 38.9296 146.715C38.9296 146.715 38.7932 147.078 38.5844 147.638C38.4424 147.084 38.2985 146.508 38.1527 145.896C37.649 143.782 36.8113 141.227 36.2639 139.75C35.9173 138.813 35.407 138.148 34.2679 137.748C33.236 137.385 31.6896 138.048 31.5231 139.35C31.5231 139.35 31.4319 140.063 31.3406 140.777L30.7664 138.213C30.123 135.341 28.317 134.559 26.9978 135.028C25.5149 135.556 25.2012 137.147 25.7669 139.483" fill="#FCE0CD"/>
<path d="M40.7286 151.411C40.3599 149.922 39.9521 148.443 39.5754 146.956C39.4301 146.381 38.7589 145.979 38.187 146.165C37.5954 146.357 37.2426 146.942 37.3988 147.557C37.7755 149.044 38.1837 150.524 38.552 152.013C38.6945 152.588 39.3708 152.988 39.9404 152.803C40.5344 152.611 40.8815 152.027 40.7286 151.411Z" fill="#EFC0A0"/>
<path d="M35.0724 151.361C34.1294 147.477 33.1836 143.593 32.2679 139.702C31.9345 138.284 29.7569 138.884 30.0909 140.304C31.0066 144.195 31.9524 148.079 32.8953 151.963C33.2387 153.378 35.4162 152.779 35.0724 151.361Z" fill="#EFC0A0"/>
<path d="M29.6825 150.794C28.732 147.093 27.7467 143.387 26.9514 139.648C26.6486 138.224 24.4719 138.826 24.7744 140.25C25.5697 143.989 26.555 147.694 27.5055 151.396C27.8676 152.806 30.0456 152.208 29.6825 150.794Z" fill="#EFC0A0"/>
<path d="M36.2534 125.169C38.0274 125.227 39.7653 126.511 39.7328 128.686C39.6947 131.255 36.9932 131.885 35.2023 131.585C33.4842 131.297 32.1885 129.563 32.6452 127.623C33.0487 125.908 34.8053 125.121 36.2539 125.169L36.2534 125.169Z" fill="#A0A0A0"/>
<path d="M85.1974 130.17C85.6945 128.546 86.0698 127.307 86.2095 126.814C86.2095 126.814 86.2226 126.766 86.2358 126.72L87.2197 126.814C90.5806 127.134 106.55 131.481 109.917 132.625C109.917 132.625 106.809 145.578 105.102 152.693C94.9065 150.482 81.7405 147.008 80.4067 145.741C80.8653 144.183 83.6345 135.273 85.1974 130.17Z" fill="#F4B467"/>
<path d="M119.025 131.493C117.45 131.496 115.877 131.564 114.303 131.592C113.488 131.606 112.673 131.612 111.859 131.596C111.48 131.588 111.101 131.575 110.723 131.554C110.558 131.544 110.395 131.532 110.231 131.521C110.222 131.52 109.976 131.479 110.12 131.513C110.233 131.539 110.113 131.499 110.092 131.492C108.557 130.975 106.991 130.546 105.433 130.106C100.928 128.834 96.4006 127.62 91.84 126.565C89.9794 126.135 88.1372 125.769 86.2357 125.588C85.7466 125.541 85.2735 125.973 85.1474 126.419C83.6269 131.798 81.8717 137.117 80.2275 142.459C79.9218 143.452 79.6118 144.444 79.3179 145.44C79.2083 145.812 79.3193 146.277 79.6081 146.542C80.4259 147.292 81.6394 147.633 82.6604 147.993C84.4034 148.606 86.1798 149.125 87.9576 149.627C92.7599 150.983 97.6117 152.173 102.479 153.27C105.052 153.85 107.631 154.401 110.223 154.89C110.822 155.002 111.441 154.723 111.612 154.099C111.763 153.547 111.425 152.82 110.823 152.707C106.099 151.816 101.407 150.74 96.7388 149.59C92.4989 148.546 88.2454 147.471 84.0982 146.095C83.3772 145.856 82.6623 145.602 81.9582 145.317C81.7254 145.223 82.1986 145.425 81.9789 145.326C81.9037 145.292 81.8279 145.259 81.7532 145.224C81.6544 145.177 81.5561 145.13 81.4597 145.079C81.3675 145.03 81.28 144.973 81.1883 144.924C80.9038 144.77 81.3209 145.047 81.2052 144.941L81.4954 146.043C83.0884 140.643 84.8168 135.282 86.462 129.898C86.7545 128.941 87.0527 127.985 87.325 127.021L86.2367 127.852C86.5598 127.883 86.8834 127.911 87.206 127.945C87.3499 127.96 87.6232 128.002 87.2935 127.95C87.6048 127.999 87.9162 128.048 88.2261 128.105C89.0496 128.257 89.8684 128.436 90.6854 128.622C92.9259 129.129 95.1543 129.692 97.3779 130.27C101.338 131.3 105.318 132.327 109.213 133.584C110.58 134.025 112.212 133.881 113.634 133.866C115.431 133.846 117.228 133.761 119.026 133.758C120.478 133.755 120.481 131.491 119.026 131.494L119.025 131.493Z" fill="#E59D4E"/>
<path d="M93.4196 52.3036C97.1426 52.4121 101.348 52.3168 103.696 48.9341C105.486 46.3566 105.796 41.9842 103.42 39.6624C103.04 39.2917 102.466 39.1671 101.969 39.0143C101.468 38.8601 100.962 38.7228 100.451 38.6039C99.4307 38.3662 98.3932 38.2015 97.351 38.094C95.3183 37.8845 93.2705 37.9718 91.2576 38.3195C89.4958 38.6237 87.3309 38.9657 86.2868 40.5776C85.5418 41.7276 85.2451 43.289 85.3377 44.6381C85.4755 46.6406 86.2953 48.7695 87.7594 50.1785C89.255 51.6177 91.3916 52.2238 93.4191 52.3031C94.8719 52.3597 94.8696 50.0955 93.4191 50.0388C91.8558 49.978 90.1185 49.5044 89.0654 48.2699C88.0044 47.026 87.4184 45.2094 87.6079 43.5791C87.6606 43.1253 87.821 42.5465 87.9729 42.2041C88.312 41.4385 88.5956 41.3389 89.3763 41.0974C91.3488 40.4865 93.3928 40.2125 95.4551 40.2455C97.7827 40.2828 100.065 40.7266 102.262 41.4927L101.763 41.2017C103.436 42.9267 103.045 46.1179 101.656 47.9175C99.7688 50.3634 96.1629 50.119 93.4191 50.0388C91.9659 49.9964 91.9673 52.2606 93.4191 52.3031L93.4196 52.3036Z" fill="#4D4544"/>
<path d="M64.7244 41.4934C67.9141 40.3801 71.3544 39.9419 74.7096 40.4358C75.5501 40.5594 76.3835 40.7429 77.2004 40.9764C77.5847 41.0863 78.0719 41.1712 78.4209 41.3693C78.4383 41.3792 78.6226 41.5443 78.6725 41.6066C79.2557 42.3383 79.4405 43.4958 79.4001 44.4605C79.3446 45.7912 78.8145 47.1753 77.975 48.2064C77.1261 49.2499 75.7777 49.7551 74.4848 49.9593C72.961 50.1999 71.2618 50.1461 69.7309 49.9947C68.3764 49.8608 66.9076 49.4584 65.8856 48.5116C64.0335 46.796 63.3534 43.1293 65.2224 41.2019C66.236 40.1565 64.6416 38.5541 63.6262 39.6009C61.2902 42.0095 61.4289 46.1776 63.2467 48.8697C65.5018 52.2099 69.61 52.4175 73.2672 52.3123C75.052 52.2609 76.914 51.892 78.4021 50.8443C79.8901 49.7966 80.8928 48.1248 81.3655 46.371C81.7596 44.9086 81.777 43.3241 81.2921 41.8812C81.0527 41.1689 80.7169 40.4603 80.1845 39.9188C79.5252 39.2475 78.5761 39.0098 77.698 38.764C73.2611 37.5229 68.4587 37.797 64.1243 39.3098C63.5486 39.5108 63.1667 40.0848 63.336 40.7023C63.4898 41.2627 64.1464 41.6953 64.7244 41.4934Z" fill="#4D4544"/>
<path d="M81.7228 44.8883C81.9509 44.7737 81.4584 44.9836 81.7101 44.8907C81.7905 44.861 81.8723 44.835 81.9551 44.8119C82.1291 44.7628 82.3055 44.7293 82.4833 44.6982C82.5665 44.6836 82.7311 44.6845 82.3939 44.7081C82.4353 44.7053 82.4767 44.6977 82.5176 44.6935C82.6229 44.6822 82.7288 44.6727 82.8351 44.6657C83.0533 44.651 83.2724 44.6444 83.4911 44.6459C83.7 44.6473 83.9092 44.6558 84.1176 44.6709C84.2248 44.6789 84.3325 44.6888 84.4393 44.7006C84.5211 44.71 84.6909 44.7515 84.3584 44.6878C84.3988 44.6954 84.4402 44.6996 84.4812 44.7062C84.6735 44.7364 84.8649 44.7746 85.0535 44.8237C85.1307 44.844 85.2078 44.8661 85.2835 44.8907C85.379 44.9218 85.6988 45.0577 85.3089 44.8883C85.5981 45.0138 85.8611 45.0902 86.1785 45.0025C86.4405 44.9303 86.7241 44.727 86.8529 44.4822C87.1102 43.9939 87.0265 43.1845 86.448 42.933C85.5154 42.5278 84.5042 42.3882 83.4907 42.3811C82.5058 42.3745 81.4735 42.4859 80.5827 42.933C80.0536 43.1986 79.8622 43.9911 80.1778 44.4822C80.5267 45.0251 81.156 45.1723 81.7223 44.8883H81.7228Z" fill="#4D4544"/>
<path d="M105.78 43.6472C105.819 43.6293 105.859 43.6123 105.899 43.5953L105.629 43.7095C106.324 43.4156 107.063 43.1623 107.804 43.0203C108.07 42.9694 108.347 42.7264 108.479 42.5C108.62 42.2575 108.681 41.8995 108.593 41.6278C108.504 41.3537 108.335 41.0896 108.074 40.9513C107.793 40.8028 107.516 40.7773 107.204 40.8372C106.325 41.0051 105.455 41.3273 104.641 41.6924C104.398 41.8009 104.189 42.124 104.122 42.3689C104.048 42.6396 104.081 43.0005 104.236 43.2411C104.391 43.4826 104.622 43.6958 104.91 43.7614L105.21 43.8019C105.414 43.8015 105.604 43.7496 105.78 43.6472Z" fill="#4D4544"/>
<path d="M62.0781 41.6918C61.2631 41.3262 60.3934 41.0045 59.5144 40.8366C59.212 40.7786 58.9176 40.7903 58.6448 40.9507C58.4106 41.088 58.1872 41.3574 58.1261 41.6272C58.0602 41.9168 58.0743 42.2423 58.2399 42.4994C58.3918 42.7357 58.6283 42.965 58.9143 43.0197C59.656 43.1617 60.3948 43.415 61.0895 43.7089L60.82 43.5947C60.86 43.6117 60.8995 43.6292 60.939 43.6466C61.0683 43.7292 61.2085 43.774 61.3585 43.781C61.5086 43.8145 61.6586 43.8079 61.8086 43.7608C62.0706 43.6886 62.3542 43.4853 62.483 43.2405C62.6213 42.9777 62.6909 42.6593 62.5969 42.3683C62.5122 42.1055 62.3405 41.8093 62.0781 41.6918Z" fill="#4D4544"/>
<path d="M79.1244 62.0291C80.6374 62.8306 82.2671 63.1641 83.9776 63.1528C85.7032 63.1414 87.4612 62.807 88.8449 61.7258C89.326 61.3498 89.2385 60.5196 88.8449 60.1248C88.3698 59.6484 87.7312 59.7479 87.2486 60.1248C87.5816 59.8644 87.29 60.0866 87.2049 60.1413C87.1061 60.205 87.0041 60.2635 86.9001 60.3182C86.8296 60.3555 86.4735 60.505 86.752 60.3984C86.6123 60.4517 86.474 60.5059 86.3315 60.5517C85.4436 60.838 84.7635 60.8942 83.8191 60.8885C82.8954 60.8828 82.2868 60.8239 81.4219 60.5649C81.2681 60.5187 81.1176 60.4635 80.9657 60.4111C80.9163 60.3941 80.8688 60.3687 80.8185 60.3536C81.0955 60.4357 80.8942 60.3875 80.8218 60.3536C80.6332 60.2644 80.4474 60.1715 80.263 60.0738C79.7241 59.7885 79.0355 59.9366 78.7185 60.48C78.4204 60.9913 78.5826 61.7423 79.1235 62.0291H79.1244Z" fill="#EFC0A0"/>
<path d="M83.473 50.4718C83.6879 51.294 83.8944 52.129 84.0176 52.97L83.9771 52.6691C83.9917 52.7842 83.9983 52.8979 83.9865 53.0139L84.027 52.7129C84.019 52.7667 84.0072 52.8167 83.9894 52.8681L84.1032 52.5978C84.0872 52.6342 84.0707 52.6648 84.0486 52.6974L84.225 52.4681C84.1996 52.4993 84.1751 52.5233 84.1436 52.5488L84.3722 52.3719C84.3092 52.4125 84.2429 52.445 84.1751 52.4766L84.4446 52.3625C84.336 52.4077 84.2283 52.4412 84.1121 52.4596L84.4122 52.4191C84.3073 52.4313 84.2048 52.4309 84.0999 52.4186L84.3999 52.4592C84.2824 52.4426 84.1667 52.4139 84.0491 52.3983C83.734 52.3559 83.4664 52.3441 83.1795 52.5125C82.9453 52.6497 82.7219 52.9191 82.6607 53.1889C82.5949 53.4785 82.609 53.804 82.7745 54.0611C82.9213 54.2894 83.1673 54.5432 83.449 54.5814C83.7039 54.6159 83.9508 54.6814 84.2099 54.6927C84.6003 54.7097 84.9653 54.5913 85.3142 54.4319C85.7422 54.2361 86.0757 53.8583 86.1895 53.3955C86.2859 53.0045 86.2436 52.654 86.1777 52.2624C86.0423 51.4577 85.8565 50.66 85.6505 49.8704C85.501 49.2977 84.8373 48.893 84.2621 49.0798C83.6742 49.2703 83.313 49.8586 83.4739 50.4723L83.473 50.4718Z" fill="#EFC0A0"/>
<path d="M70.1592 43.4356C69.743 44.7913 70.0144 47.9104 72.5752 48.1759C75.9601 48.1556 76.1402 44.3847 75.0006 42.612C74.0675 41.1605 71.3247 40.5563 70.1592 43.4356Z" fill="#645D5C"/>
<path d="M97.2644 43.4361C97.6806 44.7918 97.4092 47.9108 94.8484 48.1764C91.4635 48.1561 91.2834 44.3852 92.4225 42.612C93.3551 41.1605 96.0985 40.5567 97.2639 43.4361H97.2644Z" fill="#645D5C"/>
</g>
<defs>
<clipPath id="clip0_727_5762">
<rect width="134" height="171" fill="white"/>
</clipPath>
</defs>
</svg>
