<svg width="151" height="142" viewBox="0 0 151 142" fill="none" xmlns="http://www.w3.org/2000/svg">
<g clip-path="url(#clip0_685_1206)">
<path d="M100.364 44.7935C101.266 43.9749 102.605 43.5785 103.856 43.7669C105.107 43.9552 106.246 44.7134 106.819 45.747C107.224 46.4717 107.355 47.2973 107.43 48.1027C107.704 51.2771 107.081 54.512 105.649 57.4047C104.952 58.8139 104.043 60.1632 102.779 61.1898C101.809 61.9677 100.834 62.4096 99.4243 61.9783C99.4243 61.9783 99.2395 61.922 98.9207 61.8249C98.6113 63.0479 98.2037 64.1133 98.021 64.6349C96.9746 67.2994 90.8578 77.1134 83.3409 79.8941C83.4 80.3462 83.4808 80.8746 83.5922 81.514C83.957 83.6739 84.5652 86.1194 87.4246 87.7084C87.6173 87.7694 91.3478 89.5527 91.6418 89.6747L92.6455 90.0923C92.4876 90.1867 92.3298 90.2812 92.3298 90.2812C92.0299 90.4605 91.8087 90.5666 91.5289 90.7316C86.1665 93.8923 78.1279 95.6633 71.2329 95.8193C64.33 95.6612 56.2477 93.8848 50.8911 90.7099C50.5807 90.5258 50.3843 90.4122 50.0939 90.2053C50.0939 90.2053 49.8722 90.0467 49.6499 89.888L50.1747 89.6768C50.4788 89.5548 54.1998 87.7716 54.4025 87.7105C57.2513 86.1209 57.8595 83.6761 58.2349 81.5161C58.3616 80.7945 58.4492 80.2305 58.4973 79.7429C55.2367 78.2053 52.2237 75.7949 49.5697 72.8158C46.4078 69.2657 44.4876 65.4657 43.3478 62.1889C42.8774 62.3168 42.6034 62.3911 42.6034 62.3911C41.0095 62.8224 39.7921 61.9682 38.8217 61.1898C37.5578 60.1632 36.6492 58.8139 35.9518 57.4047C34.52 54.512 33.8975 51.2771 34.1715 48.1027C34.246 47.2973 34.3769 46.4717 34.7818 45.747C35.3547 44.7134 36.494 43.9552 37.7452 43.7669C38.9964 43.5791 40.3348 43.9749 41.2376 44.7935C41.2376 44.7935 39.3005 16.6021 70.8011 16.6021C102.302 16.6021 100.365 44.7935 100.365 44.7935H100.364Z" fill="#FCE0CD"/>
<path d="M112.728 28.2996C112.274 27.3658 111.746 25.8059 111.577 24.9464C110.685 20.2827 111.456 15.3377 110.168 10.7642C108.626 5.27805 105.078 1.95666 100.147 0.534726C94.894 -0.982714 87.9884 0.656758 86.0773 6.38695L85.9743 6.68832C84.8566 6.14076 83.711 5.65211 82.54 5.23667C78.8238 3.91925 74.8985 3.33032 70.9727 3.33032C63.2229 3.33032 56.6426 5.59534 51.3763 9.39106C45.6781 13.4982 39.2773 20.5957 37.9833 31.8264C37.8888 32.6477 37.8212 33.4913 37.7837 34.3572C37.6005 38.5604 38.7847 45.6924 38.5841 43.7314C39.5122 43.7727 40.4235 44.115 41.1114 44.6896C43.1081 44.333 46.3423 42.4866 47.7989 41.6568C56.5982 36.6461 63.2266 32.4015 69.1296 27.3043C68.6075 28.7347 67.7147 30.3275 66.9682 31.8661C66.3837 33.07 67.4043 34.4097 68.7178 34.1821C73.9513 33.2759 78.1829 29.885 81.9176 25.7545C83.6112 30.6846 86.8998 34.5323 91.1218 38.3169C94.8449 41.6547 98.3631 43.3838 100.692 44.5267C101.497 43.9468 102.544 43.6539 103.562 43.7329C103.586 43.5939 103.598 43.5175 103.598 43.5175C104.049 40.801 104.316 37.8308 104.164 34.3567C104.066 32.0985 103.753 29.8563 103.225 27.673C105.279 28.453 107.549 28.9252 110.178 29.1321C110.954 29.1905 113.097 29.0472 112.728 28.2991L112.728 28.2996Z" fill="#FEBE69"/>
<path d="M18.4102 130.446C19.3341 120.078 20.5219 109.026 27.0791 100.972C29.344 98.1921 32.179 95.8894 35.3573 94.2552C37.7964 92.9977 40.4098 92.1329 43.0178 91.2787C45.0399 90.6128 47.0867 89.9448 49.1647 89.4854C50.1483 90.2791 50.341 90.3841 50.89 90.7094C56.2471 93.8849 64.3295 95.6612 71.2319 95.8188C78.1269 95.6628 86.1654 93.8918 91.5278 90.7311C92.0579 90.4186 92.3788 90.3157 93.4215 89.5283C95.4383 89.9857 97.4255 90.634 99.3916 91.2787C102 92.1329 104.613 92.9977 107.052 94.2552C110.23 95.8894 113.065 98.1921 115.33 100.972C121.887 109.026 123.075 120.078 123.999 130.446" fill="white"/>
<path d="M70.9046 55.1254C71.1522 56.0746 71.3898 57.0381 71.5318 58.0096L71.4864 57.6711C71.5033 57.8043 71.5107 57.9353 71.4969 58.069L71.5423 57.7305C71.5328 57.7926 71.5196 57.8504 71.4985 57.9093L71.6263 57.6053C71.6078 57.6472 71.5888 57.6828 71.5635 57.7204L71.7614 57.4626C71.7319 57.4986 71.7039 57.5262 71.6675 57.5554L71.924 57.3565C71.8517 57.4031 71.7752 57.4413 71.697 57.4774L71.9995 57.349C71.8744 57.4016 71.7503 57.4398 71.6162 57.4615L71.9531 57.4159C71.8322 57.4302 71.7144 57.4291 71.5935 57.4153L71.9304 57.461C71.7947 57.4419 71.6617 57.409 71.526 57.3904C71.1722 57.3427 70.8718 57.3294 70.5498 57.5188C70.2869 57.6732 70.0361 57.9762 69.9675 58.2797C69.8936 58.6054 69.9094 58.9715 70.0952 59.2607C70.2599 59.5175 70.5361 59.8029 70.8523 59.8459C71.1427 59.8852 71.4246 59.96 71.7203 59.9732C72.1637 59.9929 72.5787 59.8581 72.9757 59.6767C73.4614 59.4543 73.8394 59.0267 73.9688 58.5004C74.0781 58.0558 74.03 57.6552 73.9551 57.21C73.7988 56.281 73.585 55.3599 73.3474 54.4484C73.1795 53.8043 72.4346 53.349 71.7889 53.5591C71.129 53.7735 70.7235 54.4351 70.904 55.1254H70.9046Z" fill="#EFC0A0"/>
<path d="M55.7044 47.6C55.2356 49.1302 55.5413 52.65 58.426 52.9498C62.2383 52.927 62.4411 48.6713 61.1581 46.6705C60.1075 45.0321 57.0174 44.3508 55.705 47.6006L55.7044 47.6Z" fill="#645D5C"/>
<path d="M86.1084 47.6006C86.5772 49.1307 86.2715 52.6506 83.3873 52.9503C79.575 52.9275 79.3717 48.6718 80.6552 46.6705C81.7058 45.0321 84.7954 44.3508 86.1084 47.6006Z" fill="#645D5C"/>
<path d="M19.6771 130.446C20.317 123.275 21.036 115.948 23.7349 109.211C25.0373 105.96 26.8926 102.897 29.3079 100.361C31.9614 97.5741 35.1956 95.5102 38.7629 94.111C40.9687 93.2462 43.2362 92.523 45.4953 91.8131C47.7544 91.1032 50.0747 90.4602 52.4473 90.2384C53.1289 90.1747 53.7144 89.6988 53.7144 88.965C53.7144 88.3257 53.1326 87.6274 52.4473 87.6916C48.039 88.1033 43.7579 89.607 39.6077 91.0884C35.6243 92.5098 31.936 94.4288 28.7942 97.3056C23.0739 102.544 20.205 109.959 18.7748 117.446C17.9549 121.738 17.5315 126.096 17.1435 130.445C17.0822 131.131 17.7696 131.719 18.4105 131.719C19.147 131.719 19.6164 131.133 19.6776 130.445L19.6771 130.446Z" fill="#E2E2E2"/>
<path d="M89.6777 90.2126C93.8543 90.5521 97.9654 92.0759 101.894 93.4613C105.609 94.7712 109.084 96.5513 111.988 99.2588C117.33 104.239 119.878 111.186 121.212 118.229C121.976 122.266 122.368 126.358 122.733 130.446C122.794 131.131 123.271 131.719 124 131.719C124.637 131.719 125.328 131.135 125.267 130.446C124.587 122.828 123.838 115.012 120.856 107.895C119.374 104.358 117.345 101.066 114.661 98.3187C111.703 95.2917 108.124 93.1344 104.205 91.6101C101.916 90.7198 99.5641 89.969 97.2184 89.2448C94.7545 88.4839 92.253 87.8748 89.6777 87.6658C88.9946 87.6101 88.4106 88.2908 88.4106 88.9392C88.4106 89.6746 88.993 90.1568 89.6777 90.2126Z" fill="#E2E2E2"/>
<path d="M91.6892 89.1809C86.8574 91.9776 81.4834 93.5438 75.9563 94.2044C73.0801 94.5482 70.2556 94.5954 67.3735 94.2999C64.5474 94.0097 61.7403 93.4695 59.0076 92.6907C56.1498 91.8762 53.1944 90.8161 50.7326 89.1045C50.1698 88.713 49.3256 89 48.9988 89.5613C48.6308 90.1938 48.889 90.9111 49.4533 91.3037C51.7304 92.8875 54.4594 93.9364 57.0838 94.77C60.0429 95.7101 63.0924 96.3203 66.1687 96.7082C69.1168 97.0801 72.0168 97.1549 74.9744 96.8583C78.018 96.5532 81.0458 96.0147 83.9917 95.1833C87.1483 94.293 90.1291 93.0223 92.9684 91.3791C94.3812 90.5615 93.1062 88.3596 91.6892 89.1799V89.1809Z" fill="#E2E2E2"/>
<path d="M65.6721 67.5691C67.0738 68.9481 69.2849 69.3561 71.1675 69.355C73.0502 69.354 75.2618 68.9486 76.664 67.5691C77.1529 67.0879 77.1444 66.2506 76.664 65.7683C76.174 65.276 75.3626 65.286 74.8721 65.7683C74.8188 65.8203 74.5712 66.0103 74.7533 65.8845C74.9392 65.7561 74.6045 65.9822 74.5374 66.0235C74.4181 66.0973 74.2956 66.1652 74.1705 66.2283C74.0865 66.2708 74.001 66.3101 73.915 66.3488C74.0776 66.275 74.0111 66.3106 73.8849 66.3557C72.9076 66.7037 72.1775 66.8077 71.1675 66.8083C70.1808 66.8088 69.449 66.7212 68.4987 66.3743C68.4565 66.3589 68.1329 66.2183 68.419 66.3488C68.3472 66.3159 68.2754 66.2835 68.2052 66.2485C68.0663 66.1801 67.9296 66.1053 67.7976 66.0235C67.7675 66.005 67.4978 65.8532 67.503 65.823C67.5067 65.8039 67.7575 66.0469 67.5743 65.8718C67.5379 65.8368 67.4999 65.8034 67.464 65.7683C66.9751 65.2871 66.1594 65.2786 65.6721 65.7683C65.1906 66.2522 65.1816 67.0863 65.6721 67.5691Z" fill="#EFC0A0"/>
<path d="M9.56167 59.9926C9.44869 60.4807 8.76183 60.4892 8.6367 60.0042C8.11351 57.9775 7.30152 55.5564 6.06824 54.1133C4.56358 52.3528 2.38949 51.6053 0.374317 51.1702C-0.126178 51.062 -0.124066 50.3414 0.376429 50.2348C2.37207 49.8098 4.57203 49.0612 6.03498 47.4742C7.4277 45.9637 8.21382 42.924 8.65413 40.8617C8.76077 40.3619 9.46611 40.3539 9.58384 40.8505C10.0738 42.9129 10.9465 45.961 12.3418 47.4737C13.7905 49.0442 15.8838 49.7939 17.8182 50.221C18.3203 50.3319 18.3156 51.0556 17.8114 51.1569C15.7455 51.5729 13.4806 52.2855 11.977 54.0454C10.7443 55.488 10.0358 57.9467 9.56167 59.991V59.9926Z" fill="#FEBE69"/>
<path d="M126.388 75.5424C126.275 76.0305 125.588 76.039 125.463 75.554C124.94 73.5273 124.128 71.1063 122.895 69.6631C121.39 67.9026 119.216 67.1551 117.201 66.72C116.7 66.6118 116.702 65.8912 117.203 65.7846C119.198 65.3596 121.398 64.611 122.861 63.024C124.254 61.5135 125.04 58.4738 125.481 56.4115C125.587 55.9117 126.293 55.9037 126.41 56.4003C126.9 58.4627 127.773 61.5108 129.168 63.0235C130.617 64.594 132.71 65.3437 134.645 65.7708C135.147 65.8817 135.142 66.6054 134.638 66.7067C132.572 67.1227 130.307 67.8353 128.803 69.5952C127.571 71.0378 126.862 73.4965 126.388 75.5408V75.5424Z" fill="#FEBE69"/>
<path d="M144.739 52.7539C144.657 53.1078 144.158 53.1141 144.068 52.7624C143.688 51.2921 143.099 49.5354 142.204 48.4886C141.113 47.2115 139.536 46.6693 138.073 46.3536C137.71 46.275 137.712 45.7524 138.075 45.675C139.522 45.3667 141.119 44.8234 142.18 43.672C143.191 42.5764 143.761 40.3708 144.08 38.8746C144.158 38.5122 144.669 38.5064 144.755 38.8666C145.111 40.3629 145.744 42.5743 146.756 43.672C147.806 44.8117 149.325 45.3556 150.729 45.6654C151.093 45.7461 151.09 46.2708 150.724 46.3445C149.225 46.6464 147.582 47.1632 146.491 48.4403C145.596 49.4866 145.082 51.2704 144.739 52.7539Z" fill="#FEBE69"/>
<path d="M60.5165 109.171C58.1048 110.2 56.7301 111.846 55.7032 114.543C53.6627 120.33 57.1266 125.767 53.9689 131.098C53.5692 131.772 53.0455 132.433 52.9996 133.188C52.961 133.824 53.2715 134.434 53.5893 135.01C54.8089 137.223 56.2333 139.354 57.8451 141.376C58.3789 142.046 59.3318 142.201 60.0392 141.72L67.478 136.661L71.6874 134.009C74.6296 137.87 80.5912 139.317 86.5824 139.068C87.8521 136.109 88.6947 133.773 89.1471 131.228C86.7708 128.635 85.347 125.424 85.0877 122.142C84.9325 120.179 85.1865 118.21 85.1912 116.242C85.1949 114.866 85.0761 113.49 84.837 112.129C84.432 109.823 83.5451 107.388 81.3456 106.005C79.9255 105.112 78.1183 104.774 76.3555 104.722C74.5927 104.67 72.8272 104.807 71.067 104.904C69.8554 104.971 68.6131 105.064 67.505 105.487C66.3757 105.918 65.4238 106.904 65.6212 107.953C63.52 108.218 61.8575 108.599 60.5165 109.171Z" fill="#FCE0CD"/>
<path d="M77.2484 108.079C75.3594 108 73.4683 108.001 71.5798 108.092C69.8349 108.175 67.9454 108.197 66.2512 108.659C64.9551 109.013 63.7778 109.806 63.4103 111.165C63.0064 112.658 63.8459 113.985 65.1108 114.714C66.5279 115.531 67.806 113.331 66.3901 112.514C66.2808 112.451 66.1683 112.391 66.0685 112.314C66.0759 112.32 65.8859 112.138 65.9682 112.236C65.9117 112.169 65.8748 112.083 65.831 112.007C65.9239 112.166 65.8516 111.877 65.8389 112.014C65.8431 111.969 65.8442 111.905 65.8547 111.842C65.8906 111.619 65.8077 111.898 65.8647 111.785C65.897 111.721 65.9344 111.661 65.9703 111.598C66.0437 111.47 65.8283 111.732 65.9915 111.571C66.0089 111.554 66.1731 111.409 66.1145 111.454C66.1968 111.391 66.4766 111.257 66.6466 111.198C67.2121 111 67.8113 110.932 68.4031 110.873C71.3422 110.579 74.2987 110.502 77.2494 110.625C78.8803 110.693 78.8771 108.146 77.2494 108.078L77.2484 108.079Z" fill="#EFC0A0"/>
<path d="M77.9014 113.074C75.938 112.964 73.9751 112.854 72.0116 112.745C70.2314 112.645 68.4559 112.552 66.6794 112.761C65.1393 112.941 63.5951 113.421 62.8882 114.945C62.1548 116.528 62.857 118.12 64.0528 119.241C65.2486 120.363 67.0399 118.562 65.8447 117.441C65.6235 117.233 65.4007 117.033 65.2539 116.764C65.1932 116.652 65.1045 116.37 65.1071 116.393C65.0807 116.185 65.1224 116.019 65.3273 115.803C65.6673 115.445 66.2142 115.367 66.6794 115.307C67.3868 115.216 68.1038 115.18 68.817 115.174C71.8395 115.147 74.8847 115.452 77.9019 115.62C79.5312 115.712 79.5264 113.164 77.9019 113.074L77.9014 113.074Z" fill="#EFC0A0"/>
<path d="M76.5578 118.482C74.4809 118.232 72.4029 117.993 70.3201 117.795C68.0256 117.577 65.2951 117.013 63.3776 118.67C61.4955 120.297 62.4204 123.002 64.3775 124.052C65.2967 124.545 66.3806 124.663 67.3926 124.842C68.5399 125.046 69.6897 125.235 70.8349 125.448C71.5069 125.574 72.2012 125.262 72.3934 124.559C72.5628 123.939 72.1848 123.119 71.5085 122.993C69.7468 122.663 67.9591 122.432 66.2121 122.028C65.6948 121.908 64.9287 121.595 64.8669 120.999C64.8511 120.846 64.8844 120.771 64.9746 120.655C65.1937 120.372 65.6198 120.234 65.9529 120.155C66.8441 119.943 67.8366 120.118 68.7363 120.197C69.6734 120.28 70.6099 120.367 71.546 120.462C73.2191 120.631 74.8895 120.828 76.5589 121.029C77.2394 121.11 77.8259 120.385 77.8259 119.755C77.8259 118.999 77.2415 118.564 76.5589 118.482H76.5578Z" fill="#EFC0A0"/>
<path d="M69.4995 125.012C68.4743 126.255 68.4605 128.085 68.6384 129.622C68.8491 131.441 69.4895 133.187 70.5919 134.654C70.9899 135.184 71.7037 135.513 72.3256 135.111C72.8467 134.773 73.2073 133.937 72.7802 133.368C72.3531 132.799 71.974 132.184 71.6947 131.526C71.7491 131.654 71.5886 131.239 71.5707 131.189C71.5216 131.049 71.4762 130.908 71.4339 130.766C71.3194 130.38 71.2243 129.983 71.1678 129.583C71.1092 129.166 71.1013 128.415 71.1209 127.861C71.1261 127.712 71.1388 127.564 71.1478 127.415C71.1642 127.265 71.1631 127.265 71.1441 127.417C71.1557 127.343 71.1694 127.269 71.1853 127.197C71.2164 127.056 71.2539 126.913 71.3072 126.779C71.1684 127.126 71.5364 126.514 71.2903 126.813C71.7127 126.301 71.8267 125.506 71.2903 125.012C70.8231 124.581 69.9504 124.464 69.4985 125.012L69.4995 125.012Z" fill="#EFC0A0"/>
</g>
<defs>
<clipPath id="clip0_685_1206">
<rect width="151" height="142" fill="white"/>
</clipPath>
</defs>
</svg>
