<svg width="114" height="64" viewBox="0 0 114 64" fill="none" xmlns="http://www.w3.org/2000/svg">
<rect y="5" width="114" height="56" rx="28" fill="#009FAD"/>
<path d="M27.168 39.616H28.416C30.08 39.616 33.536 39.552 33.76 39.552C34.432 39.552 34.56 39.744 34.56 40.48V43.296C34.56 44.032 34.432 44.224 33.76 44.224C33.536 44.224 30.08 44.16 28.416 44.16H23.84C22.144 44.16 18.4 44.224 18.176 44.224C17.504 44.224 17.376 44.032 17.376 43.296V41.92C17.376 41.088 17.472 40.864 18.176 40.416C18.816 39.968 19.328 39.584 19.936 39.072C26.048 33.888 28.8 31.104 28.8 28.48C28.8 26.72 27.648 25.504 25.344 25.504C23.52 25.504 21.856 26.528 20.8 27.744C20.512 28.064 20.352 28.224 20.16 28.224C19.968 28.224 19.808 28.064 19.52 27.776L17.152 25.248C16.896 24.96 16.768 24.768 16.768 24.544C16.768 24.352 16.896 24.16 17.184 23.872C19.232 21.792 22.368 20.384 25.76 20.384C31.264 20.384 34.4 23.52 34.4 27.616C34.4 31.872 31.104 35.424 26.944 39.008C26.688 39.232 26.592 39.36 26.592 39.456C26.592 39.552 26.784 39.616 27.168 39.616ZM46.7185 32.992C45.3745 32.992 43.8065 33.376 42.5585 34.176C41.9505 34.56 41.7905 34.848 41.7905 35.584C41.7905 37.92 43.2945 39.904 46.3025 39.904C48.8305 39.904 50.4945 38.304 50.4945 36.16C50.4945 34.464 49.0545 32.992 46.7185 32.992ZM43.2945 29.792C44.6385 29.056 46.2065 28.608 48.1905 28.608C52.1265 28.608 55.8065 30.976 55.8065 35.68C55.8065 41.312 51.2945 44.48 46.0465 44.48C39.6145 44.48 36.5105 40.128 36.5105 34.88C36.5105 28.64 39.4225 22.464 47.3905 20.8C48.6705 20.544 50.4305 20.384 51.1345 20.384C51.7745 20.384 51.9025 20.544 51.9025 21.28V24.448C51.9025 25.28 51.7745 25.408 50.9425 25.472C47.9985 25.6 45.3425 26.528 43.6785 28.352C43.1985 28.864 42.7185 29.6 42.7185 29.856C42.7185 29.92 42.7505 29.952 42.8145 29.952C42.9105 29.952 43.0705 29.92 43.2945 29.792Z" fill="white"/>
<path d="M66.7 36.48H64.98C64.66 36.48 64.42 36.74 64.42 37.04V37.96C64.42 38.26 64.66 38.52 64.98 38.52H66.74C67.04 38.52 67.3 38.26 67.3 37.96V37.04C67.3 36.74 67.02 36.48 66.7 36.48ZM66.74 31.82H65C64.36 31.82 64.22 32.02 63.88 32.56C63.76 32.74 63.6 32.96 63.4 33.24C63.34 33.32 63.28 33.4 63.28 33.5C63.28 33.76 63.64 33.76 64.22 33.76H66.74C67.04 33.76 67.3 33.5 67.3 33.2V32.38C67.3 32.06 67.06 31.82 66.74 31.82ZM72.98 31.82H71.04C70.7 31.82 70.46 32.06 70.46 32.38V33.12C70.46 33.54 70.7 33.76 71.1 33.76H71.52C72.42 33.76 73.32 33.7 74.22 33.7C74.76 33.7 74.8 33.92 74.8 34.64V35.58C74.8 36.32 74.76 36.54 74.22 36.54C73.32 36.54 72.42 36.48 71.52 36.48H71.12C70.72 36.48 70.46 36.68 70.46 37.1V37.96C70.46 38.26 70.72 38.52 71.02 38.52H73.58C74.48 38.52 75.38 38.46 76.28 38.46C76.82 38.46 76.86 38.68 76.86 39.32V40.44C76.86 41.1 76.82 41.3 76.28 41.3C75.38 41.3 74.48 41.26 73.58 41.26H71.08C70.58 41.26 70.46 41.56 70.46 42C70.46 42.94 70.52 43.88 70.52 44.82C70.52 45.34 70.3 45.4 69.58 45.4H68.12C67.48 45.4 67.22 45.34 67.22 44.84C67.22 43.9 67.3 42.96 67.3 42.02V41.86C67.3 41.48 67.04 41.26 66.68 41.26H62.4C61.5 41.26 60.6 41.3 59.72 41.3C59.18 41.3 59.14 41.1 59.14 40.44V39.54C59.14 38.58 59.18 38.46 59.76 38.46C60.04 38.46 60.46 38.5 61.08 38.5C61.52 38.5 61.62 38.18 61.62 37.82V36.18C61.62 35.92 61.6 35.74 61.38 35.74C61.28 35.74 61.24 35.76 61.16 35.82C61.08 35.9 60.96 35.96 60.86 35.96C60.32 35.96 58.86 34.46 58.86 33.94C58.86 33.78 59.06 33.62 59.26 33.46C61.06 31.88 62.38 29.86 63.06 27.56C63.16 27.22 63.2 27.08 63.4 27.08C63.74 27.08 65.72 27.64 66.18 27.76C66.4 27.82 66.66 27.88 66.66 28.08C66.66 28.24 66.48 28.32 66.36 28.36C66.3 28.38 65.94 28.48 65.94 28.76C65.94 28.96 66.16 29 66.3 29H72.98C73.84 29 74.7 28.96 75.56 28.96C76.08 28.96 76.12 29.2 76.12 29.84V30.98C76.12 31.64 76.08 31.88 75.56 31.88C74.7 31.88 73.84 31.82 72.98 31.82ZM89.84 29.08H93.08C93.9 29.08 94.7 29.02 95.52 29.02C96.04 29.02 96.08 29.22 96.08 29.86V30.98C96.08 31.56 96.04 31.78 95.54 31.78C94.88 31.78 94.22 31.72 93.54 31.72H93.3C93.24 31.72 93.1 31.76 93.1 31.84C93.1 31.94 93.6 32.16 93.82 32.28C93.86 32.3 93.86 32.3 93.92 32.32C94.06 32.4 94.28 32.48 94.28 32.66C94.28 32.72 94.24 32.9 93.9 32.9H93.86C93.64 32.9 93.6 32.96 93.44 33.16C93.34 33.28 93.2 33.46 93.2 33.64C93.2 34.08 95.34 35.92 95.78 36.26C95.9 36.34 96.06 36.5 96.06 36.64C96.06 36.94 94.5 38.36 94.08 38.36C93.72 38.36 92.16 36.7 91.86 36.36C91.72 36.2 91.52 36.02 91.3 36.02C91.1 36.02 90.68 36.36 90.22 36.86C90.08 37.02 89.96 37.14 89.8 37.28C89.7 37.36 89.6 37.46 89.6 37.6C89.6 37.74 89.66 37.74 89.66 37.86C89.66 38 89.54 38.08 89.46 38.16C89.4 38.22 89.36 38.28 89.36 38.38C89.36 38.56 89.54 38.7 89.72 38.7H93.58C94.46 38.7 95.34 38.64 96.22 38.64C96.68 38.64 96.72 38.88 96.72 39.46V40.58C96.72 41.16 96.68 41.4 96.22 41.4C95.34 41.4 94.46 41.36 93.58 41.36H89.82C89.52 41.36 89.26 41.6 89.26 41.92V43.16C89.26 43.8 89.32 44.4 89.32 44.86C89.32 45.42 88.98 45.42 88 45.42H86.94C86.52 45.42 86.26 45.34 86.26 44.86C86.26 44.56 86.32 43.84 86.32 43.16V41.92C86.32 41.6 86.06 41.36 85.76 41.36H82.04C81.18 41.36 80.3 41.4 79.42 41.4C78.94 41.4 78.9 41.18 78.9 40.58V40.02C78.9 38.76 78.92 38.64 79.66 38.64C80.12 38.64 80.86 38.7 82.04 38.7H85.82C86.1 38.7 86.28 38.46 86.28 38.2C86.28 38.14 86.28 38 86.26 37.94C86.24 37.82 86.24 37.8 86.24 37.76C86.24 37.52 86.44 37.48 86.64 37.48C86.86 37.48 87.28 37.5 87.42 37.5C87.56 37.5 87.64 37.42 87.64 37.36C87.64 37.28 87.5 37.14 87.34 37C87.12 36.8 86.88 36.54 86.88 36.34C86.88 36.18 87.1 36 87.26 35.88C87.8 35.46 88.36 34.94 88.86 34.42C89.78 33.48 89.92 33.22 90.66 32.34C90.74 32.24 90.84 32.14 90.84 32C90.84 31.82 90.68 31.72 90.52 31.72H85.38C85.3 31.72 85.14 31.74 85.14 31.86C85.14 31.96 85.34 32.04 85.44 32.08C85.66 32.18 86.34 32.44 86.34 32.72C86.34 32.88 86.12 32.94 85.98 32.94C85.78 32.94 85.7 33 85.44 33.38C85.34 33.54 85.28 33.62 85.28 33.78C85.28 34.02 85.48 34.16 85.7 34.36C86.1 34.72 86.46 35.04 86.86 35.36C86.94 35.42 86.98 35.46 86.98 35.56C86.98 35.92 85.48 37.4 85.08 37.4C84.8 37.4 84.08 36.7 83.88 36.48C83.72 36.32 83.6 36.18 83.38 36.18C83.18 36.18 83.02 36.3 82.88 36.44C82.46 36.86 82.02 37.26 81.58 37.68C81.42 37.82 81.14 38.1 80.9 38.1C80.42 38.1 78.92 36.82 78.92 36.38C78.92 36.2 79.3 35.92 79.52 35.74C80.78 34.72 81.76 33.5 82.76 32.26C82.84 32.16 82.9 32.1 82.9 31.98C82.9 31.74 82.66 31.72 82.36 31.72C81.6 31.72 80.86 31.78 80.1 31.78C79.6 31.78 79.56 31.58 79.56 30.88V30.22C79.56 29.24 79.58 29.02 80.12 29.02C80.94 29.02 81.74 29.08 82.56 29.08H85.72C86.04 29.08 86.28 28.84 86.28 28.52C86.28 28.38 86.26 27.88 86.24 27.72C86.22 27.66 86.22 27.6 86.22 27.54C86.22 27.26 86.42 27.22 86.64 27.22C87.04 27.22 88.32 27.34 88.76 27.38C88.9 27.4 88.92 27.4 89 27.4C89.36 27.44 89.66 27.48 89.66 27.72C89.66 27.82 89.6 27.86 89.44 27.98C89.26 28.12 89.24 28.34 89.24 28.54C89.24 28.88 89.54 29.08 89.84 29.08Z" fill="white"/>
</svg>
