<svg width="824" height="78" viewBox="0 0 824 78" fill="none" xmlns="http://www.w3.org/2000/svg">
<g filter="url(#filter0_d_376_14454)">
<path d="M21.8139 61.9884C22.636 62.0912 23.3857 61.5081 23.4884 60.6861C23.5912 59.864 23.0081 59.1143 22.1861 59.0116L21.8139 61.9884ZM35.5 32V33.5H38.5V32H35.5ZM22.1861 59.0116C18.9406 58.6059 15.5135 55.5056 12.8301 50.3592C10.1953 45.306 8.5 38.6699 8.5 32H5.5C5.5 39.1372 7.30474 46.2511 10.1699 51.7462C12.9865 57.148 17.0594 61.3941 21.8139 61.9884L22.1861 59.0116ZM8.5 32C8.5 25.3216 10.1273 19.348 12.6796 15.0941C15.2499 10.8103 18.5918 8.5 22 8.5V5.5C17.124 5.5 12.9658 8.78615 10.1072 13.5506C7.23058 18.3449 5.5 24.8713 5.5 32H8.5ZM22 8.5C25.4082 8.5 28.7501 10.8103 31.3204 15.0941C33.8727 19.348 35.5 25.3216 35.5 32H38.5C38.5 24.8713 36.7694 18.3449 33.8928 13.5506C31.0342 8.78615 26.876 5.5 22 5.5V8.5Z" fill="#606060"/>
<circle cx="22.5" cy="65.5" r="7.5" fill="#606060"/>
<path d="M151.814 61.9884C152.636 62.0912 153.386 61.5081 153.488 60.6861C153.591 59.864 153.008 59.1143 152.186 59.0116L151.814 61.9884ZM165.5 32V33.5H168.5V32H165.5ZM152.186 59.0116C148.941 58.6059 145.513 55.5056 142.83 50.3592C140.195 45.306 138.5 38.6699 138.5 32H135.5C135.5 39.1372 137.305 46.2511 140.17 51.7462C142.987 57.148 147.059 61.3941 151.814 61.9884L152.186 59.0116ZM138.5 32C138.5 25.3216 140.127 19.348 142.68 15.0941C145.25 10.8103 148.592 8.5 152 8.5V5.5C147.124 5.5 142.966 8.78615 140.107 13.5506C137.231 18.3449 135.5 24.8713 135.5 32H138.5ZM152 8.5C155.408 8.5 158.75 10.8103 161.32 15.0941C163.873 19.348 165.5 25.3216 165.5 32H168.5C168.5 24.8713 166.769 18.3449 163.893 13.5506C161.034 8.78615 156.876 5.5 152 5.5V8.5Z" fill="#606060"/>
<circle cx="152.5" cy="65.5" r="7.5" fill="#606060"/>
<path d="M281.814 61.9884C282.636 62.0912 283.386 61.5081 283.488 60.6861C283.591 59.864 283.008 59.1143 282.186 59.0116L281.814 61.9884ZM295.5 32V33.5H298.5V32H295.5ZM282.186 59.0116C278.941 58.6059 275.513 55.5056 272.83 50.3592C270.195 45.306 268.5 38.6699 268.5 32H265.5C265.5 39.1372 267.305 46.2511 270.17 51.7462C272.987 57.148 277.059 61.3941 281.814 61.9884L282.186 59.0116ZM268.5 32C268.5 25.3216 270.127 19.348 272.68 15.0941C275.25 10.8103 278.592 8.5 282 8.5V5.5C277.124 5.5 272.966 8.78615 270.107 13.5506C267.231 18.3449 265.5 24.8713 265.5 32H268.5ZM282 8.5C285.408 8.5 288.75 10.8103 291.32 15.0941C293.873 19.348 295.5 25.3216 295.5 32H298.5C298.5 24.8713 296.769 18.3449 293.893 13.5506C291.034 8.78615 286.876 5.5 282 5.5V8.5Z" fill="#606060"/>
<circle cx="282.5" cy="65.5" r="7.5" fill="#606060"/>
<path d="M411.814 61.9884C412.636 62.0912 413.386 61.5081 413.488 60.6861C413.591 59.864 413.008 59.1143 412.186 59.0116L411.814 61.9884ZM425.5 32V33.5H428.5V32H425.5ZM412.186 59.0116C408.941 58.6059 405.513 55.5056 402.83 50.3592C400.195 45.306 398.5 38.6699 398.5 32H395.5C395.5 39.1372 397.305 46.2511 400.17 51.7462C402.987 57.148 407.059 61.3941 411.814 61.9884L412.186 59.0116ZM398.5 32C398.5 25.3216 400.127 19.348 402.68 15.0941C405.25 10.8103 408.592 8.5 412 8.5V5.5C407.124 5.5 402.966 8.78615 400.107 13.5506C397.231 18.3449 395.5 24.8713 395.5 32H398.5ZM412 8.5C415.408 8.5 418.75 10.8103 421.32 15.0941C423.873 19.348 425.5 25.3216 425.5 32H428.5C428.5 24.8713 426.769 18.3449 423.893 13.5506C421.034 8.78615 416.876 5.5 412 5.5V8.5Z" fill="#606060"/>
<circle cx="412.5" cy="65.5" r="7.5" fill="#606060"/>
<path d="M541.814 61.9884C542.636 62.0912 543.386 61.5081 543.488 60.6861C543.591 59.864 543.008 59.1143 542.186 59.0116L541.814 61.9884ZM555.5 32V33.5H558.5V32H555.5ZM542.186 59.0116C538.941 58.6059 535.513 55.5056 532.83 50.3592C530.195 45.306 528.5 38.6699 528.5 32H525.5C525.5 39.1372 527.305 46.2511 530.17 51.7462C532.987 57.148 537.059 61.3941 541.814 61.9884L542.186 59.0116ZM528.5 32C528.5 25.3216 530.127 19.348 532.68 15.0941C535.25 10.8103 538.592 8.5 542 8.5V5.5C537.124 5.5 532.966 8.78615 530.107 13.5506C527.231 18.3449 525.5 24.8713 525.5 32H528.5ZM542 8.5C545.408 8.5 548.75 10.8103 551.32 15.0941C553.873 19.348 555.5 25.3216 555.5 32H558.5C558.5 24.8713 556.769 18.3449 553.893 13.5506C551.034 8.78615 546.876 5.5 542 5.5V8.5Z" fill="#606060"/>
<circle cx="542.5" cy="65.5" r="7.5" fill="#606060"/>
<path d="M671.814 61.9884C672.636 62.0912 673.386 61.5081 673.488 60.6861C673.591 59.864 673.008 59.1143 672.186 59.0116L671.814 61.9884ZM685.5 32V33.5H688.5V32H685.5ZM672.186 59.0116C668.941 58.6059 665.513 55.5056 662.83 50.3592C660.195 45.306 658.5 38.6699 658.5 32H655.5C655.5 39.1372 657.305 46.2511 660.17 51.7462C662.987 57.148 667.059 61.3941 671.814 61.9884L672.186 59.0116ZM658.5 32C658.5 25.3216 660.127 19.348 662.68 15.0941C665.25 10.8103 668.592 8.5 672 8.5V5.5C667.124 5.5 662.966 8.78615 660.107 13.5506C657.231 18.3449 655.5 24.8713 655.5 32H658.5ZM672 8.5C675.408 8.5 678.75 10.8103 681.32 15.0941C683.873 19.348 685.5 25.3216 685.5 32H688.5C688.5 24.8713 686.769 18.3449 683.893 13.5506C681.034 8.78615 676.876 5.5 672 5.5V8.5Z" fill="#606060"/>
<circle cx="672.5" cy="65.5" r="7.5" fill="#606060"/>
<path d="M801.814 61.9884C802.636 62.0912 803.386 61.5081 803.488 60.6861C803.591 59.864 803.008 59.1143 802.186 59.0116L801.814 61.9884ZM815.5 32V33.5H818.5V32H815.5ZM802.186 59.0116C798.941 58.6059 795.513 55.5056 792.83 50.3592C790.195 45.306 788.5 38.6699 788.5 32H785.5C785.5 39.1372 787.305 46.2511 790.17 51.7462C792.987 57.148 797.059 61.3941 801.814 61.9884L802.186 59.0116ZM788.5 32C788.5 25.3216 790.127 19.348 792.68 15.0941C795.25 10.8103 798.592 8.5 802 8.5V5.5C797.124 5.5 792.966 8.78615 790.107 13.5506C787.231 18.3449 785.5 24.8713 785.5 32H788.5ZM802 8.5C805.408 8.5 808.75 10.8103 811.32 15.0941C813.873 19.348 815.5 25.3216 815.5 32H818.5C818.5 24.8713 816.769 18.3449 813.893 13.5506C811.034 8.78615 806.876 5.5 802 5.5V8.5Z" fill="#606060"/>
<circle cx="802.5" cy="65.5" r="7.5" fill="#606060"/>
</g>
<defs>
<filter id="filter0_d_376_14454" x="0.5" y="0.5" width="823" height="77.5" filterUnits="userSpaceOnUse" color-interpolation-filters="sRGB">
<feFlood flood-opacity="0" result="BackgroundImageFix"/>
<feColorMatrix in="SourceAlpha" type="matrix" values="0 0 0 0 0 0 0 0 0 0 0 0 0 0 0 0 0 0 127 0" result="hardAlpha"/>
<feOffset/>
<feGaussianBlur stdDeviation="2.5"/>
<feComposite in2="hardAlpha" operator="out"/>
<feColorMatrix type="matrix" values="0 0 0 0 0 0 0 0 0 0 0 0 0 0 0 0 0 0 0.5 0"/>
<feBlend mode="normal" in2="BackgroundImageFix" result="effect1_dropShadow_376_14454"/>
<feBlend mode="normal" in="SourceGraphic" in2="effect1_dropShadow_376_14454" result="shape"/>
</filter>
</defs>
</svg>
