<svg width="75" height="73" viewBox="0 0 75 73" fill="none" xmlns="http://www.w3.org/2000/svg">
<rect y="0.273438" width="75" height="72.0687" rx="10" fill="white"/>
<path d="M46.5465 8.68169C45.9018 8.67988 45.15 8.72556 44.2267 8.80423L14.1568 11.0118C11.7313 11.2203 10.887 12.798 10.887 14.6879V47.4768C10.887 48.9488 11.4132 50.2077 12.6799 51.89L19.7482 61.0331C20.9089 62.5041 21.9652 62.8199 24.1826 62.7147L59.1046 60.6109C62.058 60.4033 62.9031 59.0362 62.9031 56.7255V19.8382C62.9031 18.5767 62.3739 18.2629 60.7903 17.1066L51.1916 10.3802C49.4512 9.12064 48.4804 8.68712 46.5465 8.68169ZM45.9237 11.566C47.8263 11.5969 48.9111 12.3287 49.7523 12.9799L54.7699 16.5976C54.9828 16.7037 55.5168 17.3403 54.8753 17.3403L24.6605 19.1501C21.4557 19.3644 20.8145 19.469 19.1086 18.0869L14.9451 14.7878C14.5193 14.3612 14.7329 13.8298 15.7992 13.7245L45.0564 11.5981C45.3632 11.5715 45.6519 11.5616 45.9237 11.566ZM57.7707 21.2389C58.6477 21.3275 59.05 22.0419 59.05 23.2353V54.3408C59.05 55.7075 58.8376 56.8654 56.9429 56.9687L24.2184 58.8614C22.3236 58.9647 21.4828 58.3343 21.4828 56.652V25.3391C21.4828 23.9734 21.9038 23.3395 23.1667 23.2353L57.3662 21.2408C57.5111 21.2275 57.6454 21.2262 57.7707 21.2389ZM54.2337 26.5381L47.4909 27.0207C45.9102 27.2099 45.0828 27.9859 45.0828 28.9511L47.9725 29.4338V43.9119L36.895 27.5033L29.3827 28.1669C27.9003 28.3522 27.3816 29.635 27.5935 30.5799L30.1522 30.8816V51.151L29.1889 51.6336C27.2624 52.1162 27.744 53.0815 27.744 53.5641L35.4501 53.0815C37.8583 52.5988 37.8583 51.151 37.8583 51.151L34.0052 50.1858V34.7424L44.539 51.1227C45.7999 52.6951 46.2878 53.5641 47.9725 53.5641C49.4174 53.5641 50.8623 53.0814 51.8256 52.1162V28.9511L53.167 28.6929C54.2333 28.4689 54.7154 27.5033 54.2337 26.5381Z" fill="black"/>
</svg>
