<svg width="400" height="400" viewBox="0 0 400 400" fill="none" xmlns="http://www.w3.org/2000/svg">
<path d="M90 55.5938H310C331.815 55.5938 349.5 73.2785 349.5 95.0938V303.368C349.5 325.183 331.815 342.868 310 342.868H90C68.1848 342.868 50.5 325.183 50.5 303.368V95.0938C50.5 73.2785 68.1848 55.5938 90 55.5938Z" fill="white" stroke="#898888"/>
<path d="M236.185 89.2266C240.012 89.2373 242.853 89.6714 245.589 90.71C247.99 91.6216 250.333 93.0079 253.207 95.0234L254.473 95.9258L254.48 95.9307L292.874 122.836C296.067 125.167 298.113 126.593 299.385 128.06C300.61 129.472 301.112 130.922 301.112 133.353V280.902C301.112 285.477 300.273 289.005 298.07 291.496C295.941 293.905 292.454 295.437 286.925 295.903L286.388 295.944L146.7 304.359C142.286 304.568 139.095 304.353 136.447 303.39C133.817 302.433 131.671 300.719 129.388 297.826H129.389L101.115 261.254C96.0863 254.574 94.048 249.644 94.048 243.907V112.752C94.048 109.039 94.878 105.695 96.8429 103.186C98.7968 100.69 101.925 98.9536 106.663 98.5449L106.664 98.5459L226.943 89.7158L226.949 89.7148C230.177 89.4398 232.87 89.2666 235.205 89.2324L236.185 89.2266ZM281.133 138.458C280.593 138.403 280.023 138.408 279.419 138.464L142.638 146.442L142.626 146.443C140.027 146.658 138.18 147.427 137.008 148.952C135.853 150.455 135.431 152.594 135.431 155.356V280.608C135.431 284.047 136.291 286.542 138.249 288.097C140.063 289.537 142.717 290.085 146.194 289.976L146.901 289.945L146.902 289.944L277.801 282.374L277.8 282.373C281.696 282.16 283.983 280.85 285.254 278.775C286.494 276.751 286.7 274.096 286.7 271.363V146.941C286.7 144.51 286.292 142.495 285.382 141.027C284.513 139.627 283.209 138.763 281.484 138.502L281.133 138.458ZM233.703 99.7637C232.874 99.7503 232.008 99.7702 231.102 99.8262L230.19 99.8936L113.16 108.399L113.148 108.4C110.973 108.615 109.497 109.275 108.835 110.265C108.493 110.775 108.386 111.351 108.506 111.928C108.624 112.493 108.953 113.03 109.427 113.505L109.447 113.525L109.47 113.543L126.119 126.735V126.736C129.564 129.527 131.993 130.864 135.213 131.362C138.379 131.852 142.299 131.526 148.675 131.1L148.674 131.099L269.529 123.86C270.203 123.856 270.781 123.689 271.067 123.214C271.348 122.745 271.202 122.205 271.026 121.824C270.836 121.416 270.533 121.014 270.231 120.691C269.952 120.394 269.633 120.123 269.355 119.972L249.302 105.514C246.006 102.963 241.734 100.077 234.421 99.7842L233.703 99.7637ZM242.39 171.312L241.973 171.242L230.847 169.384C230.957 167.778 231.706 166.327 233.097 165.163C234.618 163.891 236.923 162.95 240.018 162.579L266.627 160.676C267.384 162.377 267.334 164.025 266.676 165.352C265.979 166.755 264.572 167.858 262.573 168.28L257.208 169.313L256.803 169.392V262.252C253.065 265.903 247.497 267.757 241.89 267.757C238.629 267.757 236.573 266.923 234.71 265.351C232.802 263.74 231.104 261.369 228.56 258.195L186.442 192.699L185.521 191.268V255.134L185.9 255.229L200.89 258.982C200.87 259.102 200.842 259.247 200.799 259.412C200.662 259.935 200.385 260.662 199.822 261.451C198.708 263.015 196.428 264.882 191.733 265.829L161.443 267.727C161.431 267.613 161.419 267.499 161.404 267.386C161.366 267.083 161.322 266.781 161.293 266.462C161.236 265.828 161.241 265.183 161.45 264.554C161.854 263.342 163.097 261.966 166.877 261.02L166.931 261.006L166.98 260.981L170.833 259.051L171.109 258.913V177.082L170.667 177.03L160.793 175.865C160.195 172.362 162.186 167.842 167.587 167.164L197.33 164.537L241.476 229.928L242.39 231.282V171.312Z" fill="black" stroke="#898888"/>
</svg>
