<svg width="400" height="400" viewBox="0 0 400 400" fill="none" xmlns="http://www.w3.org/2000/svg">
<path d="M310 55.0938H90C67.9086 55.0938 50 73.0024 50 95.0938V303.369C50 325.46 67.9086 343.369 90 343.369H310C332.091 343.369 350 325.46 350 303.369V95.0938C350 73.0024 332.091 55.0938 310 55.0938Z" fill="white"/>
<path d="M236.186 88.7268C233.607 88.7195 230.6 88.9022 226.907 89.2169L106.627 98.0472C96.9252 98.8812 93.548 105.192 93.548 112.752V243.907C93.548 249.795 95.6528 254.831 100.72 261.56L128.993 298.132C133.636 304.016 137.861 305.28 146.73 304.859L286.418 296.444C298.232 295.613 301.612 290.145 301.612 280.902V133.353C301.612 128.307 299.496 127.052 293.161 122.426L254.766 95.5208C247.805 90.4826 243.922 88.7485 236.186 88.7268ZM233.695 100.264C241.305 100.388 245.644 103.315 249.009 105.92L269.08 120.39C269.931 120.815 272.067 123.361 269.501 123.361L148.642 130.6C135.823 131.458 133.258 131.876 126.434 126.348L109.78 113.151C108.077 111.445 108.932 109.319 113.197 108.898L230.226 100.392C231.453 100.286 232.608 100.246 233.695 100.264ZM281.083 138.956C284.591 139.31 286.2 142.168 286.2 146.941V271.363C286.2 276.83 285.35 281.462 277.772 281.875L146.874 289.446C139.294 289.859 135.931 287.337 135.931 280.608V155.356C135.931 149.894 137.615 147.358 142.667 146.941L279.465 138.963C280.044 138.91 280.582 138.905 281.083 138.956ZM266.935 160.152L239.964 162.083C233.641 162.84 230.331 165.944 230.331 169.804L241.89 171.735V229.648L197.58 164.013L167.531 166.668C161.601 167.409 159.526 172.54 160.374 176.32L170.609 177.526V258.604L166.756 260.534C159.05 262.465 160.976 266.326 160.976 268.256L191.8 266.326C201.433 264.395 201.433 258.604 201.433 258.604L186.021 254.743V192.97L228.156 258.491C233.2 264.78 235.151 268.256 241.89 268.256C247.67 268.256 253.449 266.326 257.302 262.465V169.804L262.668 168.772C266.933 167.876 268.862 164.013 266.935 160.152Z" fill="black"/>
</svg>
