<svg width="31" height="55" viewBox="0 0 31 55" fill="none" xmlns="http://www.w3.org/2000/svg">
<path fill-rule="evenodd" clip-rule="evenodd" d="M15 0.5C15.5523 0.5 16 0.947715 16 1.5V51.0858L29.2929 37.7929C29.6834 37.4024 30.3166 37.4024 30.7071 37.7929C31.0976 38.1834 31.0976 38.8166 30.7071 39.2071L15.7071 54.2071C15.4211 54.4931 14.991 54.5787 14.6173 54.4239C14.2436 54.2691 14 53.9045 14 53.5V1.5C14 0.947715 14.4477 0.5 15 0.5Z" fill="black"/>
<path d="M10.888 3.91637L10.888 5.00837C10.888 5.66637 10.916 6.77237 10.916 6.87037C10.916 7.16437 10.818 7.26237 10.524 7.26237C10.426 7.26237 8.91401 7.23437 8.13001 7.23437L3.77601 7.23437C2.96401 7.23437 1.42401 7.27637 1.32601 7.27637C1.03201 7.27637 0.976013 7.19237 0.976013 6.87037L0.976013 5.97437C0.976013 5.65237 1.03201 5.56837 1.32601 5.56837C1.42401 5.56837 2.96401 5.61037 3.77601 5.61037L8.99801 5.61037C9.34801 5.61037 9.41801 5.54037 9.41801 5.19036L9.41801 3.91637C9.41801 3.24437 9.37601 1.98437 9.37601 1.88637C9.37601 1.59237 9.46001 1.53637 9.78201 1.53637L10.51 1.53637C10.832 1.53637 10.916 1.59237 10.916 1.88637C10.916 1.98437 10.888 3.24437 10.888 3.91637Z" fill="black"/>
<path d="M10.888 12.0233L10.888 13.1153C10.888 13.7733 10.916 14.8793 10.916 14.9773C10.916 15.2713 10.818 15.3693 10.524 15.3693C10.426 15.3693 8.91401 15.3413 8.13001 15.3413L3.77601 15.3413C2.96401 15.3413 1.42401 15.3833 1.32601 15.3833C1.03201 15.3833 0.976013 15.2993 0.976013 14.9773L0.976013 14.0813C0.976013 13.7593 1.03201 13.6753 1.32601 13.6753C1.42401 13.6753 2.96401 13.7173 3.77601 13.7173L8.99801 13.7173C9.34801 13.7173 9.41801 13.6473 9.41801 13.2973L9.41801 12.0233C9.41801 11.3513 9.37601 10.0913 9.37601 9.9933C9.37601 9.6993 9.46001 9.6433 9.78201 9.6433L10.51 9.6433C10.832 9.6433 10.916 9.6993 10.916 9.9933C10.916 10.0913 10.888 11.3513 10.888 12.0233Z" fill="black"/>
<path d="M0.892029 22.4805C0.892029 19.4285 3.18803 17.6785 5.80603 17.6785C9.09603 17.6785 10.972 20.0165 10.972 22.7045C10.972 25.7425 8.62003 27.4785 6.00203 27.4785C2.90803 27.4785 0.892029 25.3925 0.892029 22.4805ZM2.50203 22.5225C2.50203 24.5245 4.00003 25.7985 6.01603 25.7985C7.90603 25.7985 9.43203 24.6505 9.43203 22.6485C9.43203 20.8285 8.10203 19.3585 5.89003 19.3585C4.01403 19.3585 2.50203 20.5205 2.50203 22.5225Z" fill="black"/>
<path d="M7.514 34.6071L8.088 34.6071C8.9 34.6071 10.44 34.5651 10.538 34.5651C10.832 34.5651 10.888 34.6491 10.888 34.9711L10.888 35.8391C10.888 36.1611 10.832 36.2451 10.538 36.2451C10.44 36.2451 8.9 36.2031 8.088 36.2031L3.748 36.2031C3.062 36.2031 2.18 36.2171 1.396 36.2311C1.06 36.2311 0.947998 36.1471 0.947998 35.8391C0.947998 35.7411 0.975999 34.6351 0.975999 33.9771L0.975999 32.7451C0.975999 30.9391 1.676 29.6091 3.706 29.6091C5.022 29.6091 6.002 30.2391 6.562 31.3031C6.66 31.4711 6.73 31.5551 6.814 31.5551C6.884 31.5551 6.968 31.5131 7.094 31.4151L7.71 30.9671C8.606 30.2951 9.348 29.7351 10.524 28.8111C10.622 28.7411 10.692 28.6991 10.748 28.6991C10.846 28.6991 10.888 28.8251 10.888 29.0351L10.888 30.1971C10.888 30.5471 10.832 30.6451 10.538 30.8411C9.642 31.4291 8.914 31.9611 8.214 32.4791L7.43 33.0391C7.15 33.2491 7.094 33.3611 7.094 33.7111L7.094 34.1871C7.094 34.5371 7.164 34.6071 7.514 34.6071ZM2.838 34.6071L5.302 34.6071C5.652 34.6071 5.722 34.5371 5.722 34.1871L5.722 33.2491C5.722 32.1991 5.274 31.2611 3.902 31.2611C2.684 31.2611 2.418 32.0171 2.418 32.8851L2.418 34.1871C2.418 34.5371 2.488 34.6071 2.838 34.6071Z" fill="black"/>
<path d="M9.96403 38.6248C10.076 38.5828 10.16 38.5548 10.23 38.5548C10.356 38.5548 10.426 38.6528 10.524 38.8628C10.818 39.5348 10.972 40.4028 10.972 41.2288C10.972 44.1268 9.04003 45.9888 6.17003 45.9888C3.24403 45.9888 0.892029 44.2108 0.892029 40.7108C0.892029 39.9828 1.00403 39.2968 1.24203 38.6948C1.32603 38.4848 1.39603 38.3868 1.52203 38.3868C1.59203 38.3868 1.67603 38.4148 1.78803 38.4568L2.62803 38.7648C2.83803 38.8488 2.92203 38.8908 2.92203 39.0028C2.92203 39.0728 2.89403 39.1568 2.83803 39.2828C2.64203 39.7168 2.51603 40.2628 2.51603 40.7808C2.51603 43.1048 4.15403 44.2948 6.12803 44.2948C8.10203 44.2948 9.44603 43.0488 9.44603 41.0468C9.44603 40.4448 9.32003 39.8568 9.09603 39.4228C9.02603 39.2968 8.99803 39.1988 8.99803 39.1428C8.99803 39.0308 9.08203 38.9748 9.29203 38.8908L9.96403 38.6248Z" fill="black"/>
<path d="M5.13399 50.6739C5.74999 49.2039 6.43599 47.7199 8.11599 47.7199C9.92199 47.7199 10.986 49.0779 10.986 51.2339C10.986 52.3119 10.692 53.3899 10.258 54.1739C10.16 54.3559 10.076 54.4399 9.94999 54.4399C9.87999 54.4399 9.79599 54.4119 9.66999 54.3559L8.94199 54.0059C8.75999 53.9219 8.66199 53.8659 8.66199 53.7679C8.66199 53.6979 8.71799 53.6139 8.80199 53.5019C9.26399 52.8299 9.52999 51.9339 9.52999 51.1079C9.52999 50.0579 9.03999 49.3719 8.25599 49.3719C7.44399 49.3719 7.00999 50.2679 6.53399 51.4299C5.97399 52.7879 5.28799 54.2299 3.60799 54.2299C1.87199 54.2299 0.877991 52.8439 0.877991 50.7159C0.877991 49.8199 1.11599 48.9239 1.39599 48.3079C1.49399 48.1119 1.56399 48.0139 1.68999 48.0139C1.75999 48.0139 1.84399 48.0419 1.95599 48.0839L2.78199 48.4059C2.97799 48.4899 3.07599 48.5459 3.07599 48.6299C3.07599 48.6999 3.03399 48.7839 2.94999 48.9099C2.64199 49.4279 2.40399 50.1699 2.40399 50.8979C2.40399 52.0179 2.89399 52.5639 3.55199 52.5639C4.27999 52.5639 4.64399 51.8359 5.13399 50.6739Z" fill="black"/>
</svg>
