<?xml version="1.0" encoding="UTF-8"?><svg id="b" xmlns="http://www.w3.org/2000/svg" width="339.954" height="145.479" viewBox="0 0 339.954 145.479"><defs><style>.d{fill:#e2e2e2;}.d,.e,.f,.g,.h,.i{stroke-width:0px;}.e{fill:#cfcfcf;}.f{fill:#645d5c;}.g{fill:#4d4544;}.h{fill:#fff;}.i{fill:#74c66d;}</style></defs><g id="c"><path class="g" d="M154.692,129.209v8.333c0,1.081.916,2,2,2,15.986,0,31.971,0,47.957,0,10.843,0,21.686,0,32.53,0,1.948,0,3.895,0,5.843,0,1.081,0,2-.916,2-2v-8.333c0-2.574-4-2.578-4,0v8.333l2-2c-5.749,0-11.499,0-17.248,0-13.694,0-27.388,0-41.083,0-9.333,0-18.666,0-27.999,0l2,2v-8.333c0-2.574-4-2.578-4,0h0Z"/><path class="g" d="M95.692,126.001v3.208c0,1.081.916,2,2,2h155.667c1.081,0,2-.916,2-2v-3.208c0-1.081-.916-2-2-2H116.86c-6.292,0-12.624-.211-18.913,0-.085.003-.17,0-.254,0-2.574,0-2.578,4,0,4h149.289c2.01,0,4.119.184,6.124,0,.083-.008.171,0,.254,0l-2-2v3.208l2-2H97.692l2,2v-3.208c0-2.574-4-2.578-4,0Z"/><path class="d" d="M338.025,16.877c0-4.418-3.582-8-8-8H26.966c-7.196,0-13.497,5.014-14.929,12.066-3.782,18.633-7.349,39.071-10.678,60.93-1.516,9.956-.292,16.725,2.478,26.73h334.189V16.877Z"/><path class="d" d="M124.543,4.75l.7,4.13h-61.44l.74-4.14c.62-3.11,2.14-4.74,4.76-4.74h50.51c2.62,0,4.44,1.82,4.73,4.75Z"/><path class="i" d="M318.801,76.52c-101.437,0-202.858,0-304.29.002.027-.114.05-.229.069-.344,1.531-9.188,2.653-16.251,3.685-22.652,106.585.004,213.171.004,319.756.004v22.99c-6.407,0-12.814,0-19.221,0Z"/><path class="h" d="M49.066,108.765c10.497,0,20.423,0,28.626,0,.552,0,.992-.448.992-1.001-.002-26.014-.002-47.861-.002-60.5,0-4.418-3.582-7.992-8-7.992h-14.62c-4.418,0-8,3.582-8,8v60.492c0,.552.452,1,1.004,1Z"/><path class="h" d="M171.312,39.273h-45.25c-4.418,0-8,3.582-8,8v60.49c0,.552.44,1,.992,1,9.093,0,52.149.001,59.262.002.552,0,.996-.448.996-1v-60.492c0-4.418-3.582-8-8-8Z"/><path class="h" d="M338.022,17.523H24.692c-2.574,0-2.578,4,0,4h313.33c2.574,0,2.578-4,0-4h0Z"/><path class="e" d="M135.374,49.98h-4c-2.209,0-4,1.791-4,4v25.805c0,.552.448,1,1,1h10c.552,0,1-.448,1-1v-25.804c0-2.209-1.791-4-4-4Z"/><path class="e" d="M165.376,49.98h-4c-2.209,0-4,1.791-4,4v25.805c0,.552.448,1,1,1h10c.552,0,1-.448,1-1v-25.804c0-2.209-1.791-4-4-4Z"/><path class="e" d="M65.37,49.98h-4c-2.209,0-4,1.791-4,4v25.805c0,.552.448,1,1,1h10c.552,0,1-.448,1-1v-25.804c0-2.209-1.791-4-4-4Z"/><path class="e" d="M225.141,45.274h68.569c5.108,0,9.249,4.141,9.249,9.249,0,8.012,0,16.023,0,24.035,0,4.512-3.652,8.169-8.164,8.169-16.321,0-52.934,0-70.741,0-4.512,0-8.161-3.657-8.161-8.169v-24.035c0-5.108,4.141-9.249,9.249-9.249Z"/><path class="f" d="M274.526,121.479c5.705,0,11.635,3.213,11.635,12.204-.256,8.393-6.078,11.796-12.585,11.796-4.752,0-11.415-3.241-11.415-12.423,0-9.031,7.404-11.577,12.365-11.577Z"/><path class="f" d="M318.763,121.479c5.705,0,11.635,3.213,11.635,12.204-.256,8.393-6.078,11.796-12.585,11.796-4.752,0-11.415-3.241-11.415-12.423,0-9.031,7.404-11.577,12.365-11.577Z"/><path class="g" d="M277.957,135.21c13.167,0,26.333,0,39.5,0,2.574,0,2.578-4,0-4-13.167,0-26.333,0-39.5,0-2.574,0-2.578,4,0,4h0Z"/><path class="f" d="M34.511,121.479c5.705,0,11.635,3.213,11.635,12.204-.256,8.393-6.078,11.796-12.585,11.796-4.752,0-11.415-3.241-11.415-12.423,0-9.031,7.404-11.577,12.365-11.577Z"/><path class="f" d="M78.748,121.479c5.705,0,11.635,3.213,11.635,12.204-.256,8.393-6.078,11.796-12.585,11.796-4.752,0-11.415-3.241-11.415-12.423,0-9.031,7.404-11.577,12.365-11.577Z"/><path class="g" d="M37.942,135.21c13.167,0,26.333,0,39.5,0,2.574,0,2.578-4,0-4-13.167,0-26.333,0-39.5,0-2.574,0-2.578,4,0,4h0Z"/><path class="f" d="M338.022,108.601v9.4c0,4.41-3.58,8-8,8-144.82-.01-288.12-.01-315.69-.01-2.81,0-5.27-1.88-6.02-4.58l-3.56-12.81h333.27Z"/><path class="h" d="M1.932,83.873c3.091,0,6.518.429,9.402-.88,2.389-1.084,4.379-3.257,5.07-5.807.413-1.523.553-3.175.81-4.732.264-1.603.527-3.206.788-4.81,1.65-10.131,3.218-20.276,5.004-30.385,1.132-6.408,2.349-12.801,3.615-19.184.498-2.514-3.356-3.59-3.857-1.063-2.002,10.101-3.85,20.228-5.518,30.389-.806,4.911-1.588,9.826-2.381,14.739-.449,2.783-.902,5.565-1.359,8.346-.256,1.557-.503,3.117-.773,4.672-.214,1.234-.577,2.204-1.482,3.101-2.356,2.337-6.292,1.615-9.32,1.615-2.574,0-2.578,4,0,4h0Z"/></g></svg>